<svg fill="#C5C5C5" width="200px" height="200px" viewBox="0 -2 16 16" xmlns="http://www.w3.org/2000/svg"
    stroke="#C5C5C5" stroke-width="0">
    <g id="SVGRepo_bgCarrier" stroke-width="0"></g>
    <g id="SVGRepoEditor" data-name="Layer 2">
        <g id="SVGRepoEditor" data-name="Layer 1">
            <path
                d="M 15.505 8.124 C 15.505 8.286 15.354 8.422 15.148 8.462 L 15.166 8.462 L 15.528 9.643 C 15.528 9.81 15.369 9.948 15.154 9.984 L 15.165 9.984 L 15.527 11.165 C 15.527 11.359 15.311 11.515 15.043 11.515 L 0.505 11.515 C 0.239 11.515 0.021 11.359 0.021 11.165 L 0.383 9.984 L 0.397 9.984 C 0.183 9.948 0.022 9.81 0.022 9.643 L 0.383 8.466 C 0.164 8.433 -0.001 8.293 -0.001 8.124 L 0.344 7 C 0.145 6.956 0 6.823 0 6.664 L 1.938 0.351 C 1.938 0.157 2.155 0 2.423 0 L 13.083 0 C 13.351 0 13.569 0.157 13.569 0.351 L 15.506 6.664 C 15.506 6.823 15.361 6.957 15.161 7 Z M 1.015 7.799 L 14.65 7.868 L 14.344 7.015 L 1.278 7.015 Z M 1.038 9.318 L 14.673 9.387 L 14.345 8.474 L 1.321 8.474 Z M 1.037 10.84 L 14.672 10.909 L 14.343 9.993 L 1.321 9.993 Z M 2.908 0.702 L 1.479 4.337 L 4.022 2.21 C 4.206 2.068 4.517 2.068 4.7 2.21 L 8.238 4.763 L 10.806 2.912 C 10.99 2.769 11.301 2.769 11.484 2.912 L 14.089 4.683 L 12.599 0.702 Z M 14.537 6.314 L 14.537 6.111 L 11.145 3.655 L 8.578 5.508 C 8.393 5.649 8.082 5.649 7.899 5.508 L 4.361 2.954 L 1.242 5.408 L 0.97 6.314 Z M 10.138 1.982 C 10.138 2.267 9.857 2.595 9.535 2.76 C 9.23 2.916 8.744 3.027 8.296 3.027 C 7.85 3.027 7.364 2.916 7.058 2.76 C 6.736 2.595 6.455 2.267 6.455 1.982 C 6.455 1.696 6.736 1.369 7.058 1.204 C 7.364 1.047 7.85 0.937 8.296 0.937 C 8.744 0.937 9.23 1.047 9.535 1.204 C 9.857 1.369 10.138 1.696 10.138 1.982 Z M 9.195 1.644 C 9.009 1.549 8.599 1.506 8.296 1.506 C 7.995 1.506 7.534 1.549 7.349 1.644 C 7.178 1.731 7.155 1.884 7.155 1.982 C 7.155 2.079 7.178 2.25 7.349 2.338 C 7.534 2.432 7.995 2.476 8.296 2.476 C 8.599 2.476 9.009 2.432 9.195 2.338 C 9.365 2.25 9.387 2.079 9.387 1.982 C 9.387 1.884 9.365 1.731 9.195 1.644 Z"
                style=""></path>
        </g>
    </g>
</svg>