<svg fill="#424242" width="200px" height="200px" viewBox="0 -2 16 16" xmlns="http://www.w3.org/2000/svg"
    stroke="#424242" stroke-width="0">
    <g id="SVGRepo_bgCarrier" stroke-width="0"></g>
    <g id="SVGRepoEditor" data-name="Layer 2">
        <g id="SVGRepoEditor" data-name="Layer 1">
            <path
                d="M15.5,0H.5A.5.5,0,0,0,0,.5v11a.5.5,0,0,0,.5.5h15a.5.5,0,0,0,.5-.5V.5A.5.5,0,0,0,15.5,0ZM15,1V9.29L11.85,6.15a.48.48,0,0,0-.7,0L8.5,8.79,4.85,5.15a.48.48,0,0,0-.7,0L1,8.29V1ZM1,11V9.71l3.5-3.5L8.15,9.85a.48.48,0,0,0,.7,0L11.5,7.21l3.5,3.5V11ZM9,6A2,2,0,1,0,7,4,2,2,0,0,0,9,6ZM9,3A1,1,0,1,1,8,4,1,1,0,0,1,9,3Z">
            </path>
        </g>
    </g>
</svg>