<?xml version="1.0" encoding="utf-8"?><svg viewBox="0 0 500 500" xmlns="http://www.w3.org/2000/svg" fill="currentColor"><path d="M 86.353 471.597 L 86.353 33.263 L 250.696 33.263 C 284.162 33.263 311.004 37.698 331.224 46.567 C 351.443 55.438 367.28 69.093 378.733 87.532 C 390.188 105.97 395.916 125.256 395.916 145.388 C 395.916 164.126 390.836 181.767 380.675 198.311 C 370.516 214.856 355.178 228.212 334.661 238.376 C 361.154 246.151 381.522 259.406 395.766 278.144 C 410.008 296.882 417.13 319.008 417.13 344.523 C 417.13 365.055 412.797 384.14 404.133 401.781 C 395.468 419.422 384.76 433.026 372.01 442.594 C 359.262 452.163 343.276 459.389 324.054 464.272 C 304.829 469.156 281.273 471.597 253.385 471.597 L 86.353 471.597 Z M 144.322 217.447 L 239.043 217.447 C 264.74 217.447 283.166 215.753 294.32 212.365 C 309.062 207.979 320.168 200.703 327.638 190.538 C 335.108 180.371 338.843 167.613 338.843 152.264 C 338.843 137.714 335.357 124.906 328.386 113.843 C 321.413 102.78 311.454 95.206 298.505 91.119 C 285.557 87.033 263.345 84.99 231.872 84.99 L 144.322 84.99 L 144.322 217.447 Z M 144.322 419.872 L 253.385 419.872 C 272.11 419.872 285.258 419.173 292.828 417.777 C 306.175 415.386 317.33 411.399 326.294 405.818 C 335.258 400.236 342.629 392.113 348.406 381.45 C 354.182 370.785 357.071 358.477 357.071 344.523 C 357.071 328.177 352.888 313.975 344.521 301.915 C 336.154 289.856 324.551 281.383 309.709 276.5 C 294.869 271.616 273.504 269.175 245.616 269.175 L 144.322 269.175 L 144.322 419.872 Z" style="fill:rgb(51, 51, 51)"/></svg>