<?xml version="1.0" encoding="utf-8"?><svg viewBox="0 0 500 500" xmlns="http://www.w3.org/2000/svg" fill="currentColor"><path d="M 341.241 357.589 L 338.16 360.683 L 332.862 355.407 L 324.517 363.594 L 329.355 368.412 C 328.103 369.232 326.841 370.03 325.567 370.805 L 321.399 366.654 L 313.568 374.337 L 315.589 376.35 C 314.207 377.046 312.818 377.717 311.42 378.364 L 310.449 377.397 L 206.991 478.902 C 204.187 478.371 201.392 477.789 198.607 477.154 L 294.016 383.546 L 279.929 369.515 L 272.096 377.2 L 282.942 388.002 C 281.235 388.384 279.523 388.732 277.804 389.05 L 268.978 380.259 L 260.708 388.373 L 263.305 390.959 C 261.449 391.105 259.591 391.218 257.731 391.293 L 176.539 470.953 C 174.039 470.114 171.551 469.231 169.075 468.304 L 252.545 386.409 L 240.583 374.495 L 232.751 382.18 L 241.635 391.028 C 239.346 390.86 237.058 390.636 234.774 390.358 L 229.634 385.238 L 152.205 461.205 C 149.929 460.139 147.668 459.034 145.421 457.888 L 224.589 380.214 L 211.211 366.89 L 202.941 375.003 L 214.288 386.305 C 211.257 385.468 208.249 384.53 205.269 383.488 L 199.822 378.063 L 128.313 448.222 C 126.254 446.938 124.21 445.619 122.182 444.265 L 194.778 373.039 L 182.108 360.42 L 174.277 368.104 L 174.39 368.217 C 174.344 368.187 174.299 368.157 174.253 368.127 L 108.811 432.334 L 103.825 427.252 L 168.312 363.982 C 163.282 360.278 158.442 356.197 153.83 351.741 L 90.602 413.775 L 85.616 408.693 L 148.833 346.669 C 144.687 342.246 140.878 337.622 137.407 332.829 L 73.093 395.929 L 68.108 390.848 L 140.926 319.405 L 127.427 305.96 L 55.679 376.354 C 54.367 374.298 53.09 372.226 51.849 370.138 L 122.383 300.936 L 118.767 297.335 C 117.713 294.359 116.763 291.355 115.915 288.328 L 125.502 297.876 L 133.772 289.762 L 121.101 277.143 L 43 353.77 C 41.893 351.506 40.826 349.229 39.798 346.939 L 116.057 272.119 L 111.778 267.857 C 111.491 265.576 111.257 263.288 111.08 260.998 L 119.175 269.06 L 127.007 261.376 L 113.628 248.052 L 32.254 327.89 C 31.388 325.382 30.567 322.863 29.791 320.333 L 110.967 240.69 C 110.997 240.236 111.029 239.784 111.063 239.331 L 111.702 239.968 L 119.972 231.854 L 112.914 224.824 C 113.224 223.104 113.565 221.39 113.94 219.681 L 123.091 228.795 L 130.923 221.11 L 118.253 208.491 L 24.627 300.349 C 24.038 297.559 23.502 294.761 23.017 291.955 L 124.596 192.294 L 123.462 191.164 C 124.104 189.764 124.77 188.372 125.46 186.988 L 127.715 189.234 L 135.546 181.55 L 130.963 176.986 C 131.735 175.711 132.527 174.445 133.342 173.189 L 138.665 178.49 L 147.009 170.304 L 140.207 163.529 C 141.103 162.375 142.017 161.232 142.952 160.1 L 150.126 167.245 L 157.959 159.56 L 150.276 151.908 C 150.798 151.366 151.326 150.827 151.86 150.291 C 152.357 149.793 152.855 149.3 153.356 148.81 L 161.078 156.501 L 169.347 148.387 L 161.983 141.053 C 163.117 140.116 164.259 139.198 165.412 138.302 L 172.466 145.327 L 180.298 137.643 L 174.459 131.828 C 175.71 131.006 176.97 130.207 178.24 129.428 L 183.416 134.584 L 191.686 126.47 L 188.78 123.576 C 190.164 122.885 191.557 122.216 192.958 121.572 L 194.804 123.411 L 293.753 26.33 C 296.549 26.868 299.337 27.457 302.115 28.1 L 210.362 118.121 L 223.032 130.74 L 231.74 122.196 L 221.503 112 C 223.215 111.624 224.933 111.279 226.654 110.968 L 234.857 119.138 L 242.69 111.453 L 240.389 109.161 C 242.043 109.025 243.697 108.918 245.352 108.841 L 321.997 33.643 C 324.512 34.467 327.015 35.336 329.505 36.25 L 250.853 113.418 L 264.231 126.742 L 272.501 118.628 L 262.94 109.105 C 265.242 109.282 267.54 109.515 269.833 109.806 L 275.619 115.569 L 348.407 44.155 C 350.678 45.227 352.934 46.337 355.176 47.487 L 280.664 120.593 L 293.334 133.212 L 301.166 125.528 L 289.238 113.648 C 292.249 114.465 295.237 115.386 298.199 116.406 L 304.285 122.467 L 371.373 56.646 C 373.436 57.927 375.483 59.243 377.514 60.594 L 309.329 127.492 L 322.828 140.936 L 393.128 71.963 C 394.992 73.443 396.837 74.957 398.665 76.503 L 336.968 137.035 C 341.691 140.595 346.243 144.49 350.59 148.721 L 411.878 88.59 C 412.751 89.452 413.62 90.323 414.482 91.203 C 415.284 92.02 416.08 92.842 416.867 93.669 L 355.568 153.811 C 359.934 158.503 363.922 163.42 367.533 168.522 L 429.347 107.875 C 430.852 109.738 432.325 111.618 433.764 113.514 L 364.01 181.952 L 376.68 194.571 L 444.145 128.379 C 445.461 130.432 446.741 132.501 447.986 134.585 L 381.724 199.595 L 385.472 203.328 C 386.504 206.285 387.437 209.269 388.267 212.277 L 378.606 202.655 L 370.774 210.339 L 384.152 223.664 L 457.324 151.873 C 458.426 154.142 459.488 156.424 460.511 158.72 L 389.197 228.688 L 392.188 231.667 C 392.487 233.957 392.729 236.255 392.916 238.557 L 386.079 231.747 L 377.809 239.861 L 389.77 251.774 L 467.287 175.721 C 468.167 178.214 469.002 180.719 469.793 183.235 L 393.133 258.448 C 393.08 259.335 393.019 260.221 392.949 261.107 L 391.695 259.858 L 383.863 267.543 L 391.199 274.849 C 390.895 276.572 390.558 278.293 390.187 280.005 L 380.746 270.601 L 372.038 279.145 L 386.125 293.176 L 475.572 205.417 C 476.154 208.214 476.683 211.019 477.16 213.832 L 380.657 308.514 L 380.73 308.587 C 380.093 309.991 379.43 311.388 378.744 312.774 L 377.538 311.573 L 369.269 319.687 L 372.935 323.338 C 372.162 324.611 371.366 325.874 370.55 327.128 L 366.151 322.746 L 358.319 330.43 L 363.325 335.416 L 360.242 338.512 L 355.2 333.49 L 346.931 341.603 L 352.067 346.719 L 348.984 349.815 L 343.812 344.664 L 335.979 352.348 Z M 262.908 285.735 C 260.918 286.406 258.848 286.906 256.718 287.219 L 252.242 291.61 L 264.912 304.229 L 273.257 296.042 Z M 240.209 285.791 C 235.701 284.298 231.591 281.933 228.077 278.895 L 222.869 284.004 L 236.248 297.329 L 244.079 289.646 Z M 217.532 263.206 L 212.985 258.678 L 205.154 266.361 L 217.825 278.98 L 223.177 273.729 C 220.745 270.595 218.822 267.046 217.532 263.206 Z M 217.497 240.507 L 205.906 228.963 L 197.561 237.15 L 211.06 250.594 L 216.226 245.526 C 216.53 243.807 216.957 242.131 217.497 240.507 Z M 219.285 236.124 C 220.932 232.75 223.093 229.674 225.667 226.995 L 216.856 218.219 L 209.024 225.904 Z M 228.884 224.033 C 231.985 221.508 235.517 219.491 239.353 218.111 L 228.244 207.047 L 219.975 215.16 Z M 244.178 216.75 C 244.737 216.634 245.301 216.532 245.869 216.443 L 252.693 209.747 L 239.195 196.302 L 231.363 203.986 Z M 260.005 217.029 L 257.737 214.77 L 256.167 216.311 C 257.469 216.482 258.75 216.722 260.005 217.029 Z M 270.946 221.76 C 271.981 222.432 272.979 223.156 273.936 223.928 L 281.796 216.217 L 269.125 203.597 L 260.856 211.711 Z M 281.439 232.211 L 291.949 242.679 L 300.219 234.566 L 286.84 221.241 L 279.009 228.925 C 279.879 229.972 280.691 231.069 281.439 232.211 Z M 286.215 243.133 C 286.57 244.563 286.84 246.026 287.018 247.518 L 288.831 245.738 Z M 286.556 258.957 L 298.714 271.065 L 306.545 263.381 L 293.875 250.762 L 286.785 257.719 C 286.716 258.134 286.639 258.547 286.556 258.957 Z M 285.216 263.789 C 283.852 267.631 281.848 271.171 279.336 274.282 L 287.325 282.239 L 295.595 274.126 Z M 276.386 277.51 C 273.719 280.096 270.65 282.27 267.283 283.929 L 276.374 292.983 L 284.206 285.299 Z M 411.378 417.003 C 400.796 427.385 389.468 436.538 377.57 444.464 L 439.479 383.724 C 431.326 395.47 421.959 406.621 411.378 417.003 Z M 88.682 88.098 C 99.994 77 112.159 67.306 124.962 59.014 L 58.912 123.817 C 67.446 111.175 77.37 99.197 88.682 88.098 Z M 190.205 30.025 L 28.685 188.496 C 30.105 183.574 31.691 178.689 33.445 173.853 L 175.474 34.505 C 180.343 32.844 185.257 31.351 190.205 30.025 Z M 234.835 22.662 L 20.473 232.978 C 20.789 229.246 21.196 225.521 21.694 221.807 L 223.643 23.67 C 227.366 23.243 231.098 22.907 234.835 22.662 Z M 270.147 23.04 L 20.178 268.29 C 19.962 265.116 19.812 261.939 19.727 258.76 L 260.627 22.407 C 263.803 22.554 266.977 22.764 270.147 23.04 Z M 480.317 245.758 L 238.85 482.667 C 235.681 482.513 232.515 482.295 229.353 482.012 L 479.844 236.25 C 480.067 239.417 480.224 242.586 480.317 245.758 Z M 478.24 284.22 L 277.345 481.323 C 273.605 481.767 269.857 482.119 266.103 482.38 L 479.511 273 C 479.179 276.748 478.756 280.489 478.24 284.22 Z M 466.948 330.322 L 323.654 470.912 C 318.815 472.539 313.933 474.002 309.017 475.299 L 471.613 315.772 C 470.223 320.662 468.668 325.515 466.948 330.322 Z M 327.818 350.382 L 313.73 336.352 L 305.385 344.539 L 319.473 358.57 Z M 308.686 331.328 L 296.724 319.415 L 288.38 327.601 L 300.342 339.515 Z M 291.68 314.39 L 278.301 301.066 L 269.957 309.253 L 283.335 322.577 Z M 316.354 361.629 L 302.267 347.599 L 294.436 355.282 L 308.523 369.313 Z M 297.223 342.575 L 285.261 330.661 L 277.43 338.345 L 289.392 350.258 Z M 280.216 325.637 L 266.838 312.313 L 259.007 319.996 L 272.385 333.321 Z M 261.794 307.289 L 249.124 294.67 L 241.292 302.353 L 253.962 314.972 Z M 207.941 253.654 L 194.443 240.21 L 186.612 247.893 L 200.11 261.337 Z M 189.398 235.186 L 176.728 222.566 L 168.897 230.25 L 181.567 242.869 Z M 171.684 217.543 L 158.305 204.218 L 150.474 211.901 L 163.853 225.226 Z M 153.261 199.194 L 140.591 186.575 L 132.76 194.258 L 145.43 206.877 Z M 143.71 183.515 L 156.38 196.134 L 164.724 187.947 L 152.054 175.328 Z M 161.424 201.158 L 174.803 214.483 L 183.147 206.296 L 169.769 192.971 Z M 179.847 219.507 L 192.517 232.126 L 200.861 223.939 L 188.191 211.32 Z M 155.171 172.27 L 167.841 184.889 L 175.674 177.204 L 163.004 164.585 Z M 172.886 189.913 L 186.264 203.237 L 194.097 195.552 L 180.719 182.228 Z M 191.309 208.261 L 203.979 220.88 L 211.811 213.195 L 199.141 200.576 Z M 166.123 161.525 L 178.793 174.144 L 187.062 166.031 L 174.392 153.412 Z M 183.837 179.168 L 197.216 192.493 L 205.485 184.379 L 192.106 171.055 Z M 202.26 197.516 L 214.93 210.136 L 223.199 202.022 L 210.529 189.403 Z M 177.511 150.352 L 190.181 162.971 L 198.013 155.287 L 185.343 142.668 Z M 195.225 167.995 L 208.604 181.319 L 216.436 173.635 L 203.057 160.311 Z M 213.648 186.343 L 226.318 198.962 L 234.15 191.278 L 221.48 178.659 Z M 188.461 139.608 L 201.131 152.227 L 209.401 144.114 L 196.731 131.495 Z M 206.176 157.251 L 219.554 170.576 L 227.824 162.462 L 214.445 149.138 Z M 224.599 175.6 L 237.269 188.219 L 245.538 180.105 L 232.868 167.486 Z M 242.313 193.243 L 255.812 206.687 L 264.081 198.574 L 250.583 185.129 Z M 296.994 247.703 L 309.664 260.322 L 317.933 252.208 L 305.263 239.59 Z M 314.708 265.346 L 328.087 278.671 L 336.356 270.557 L 322.978 257.233 Z M 333.131 283.695 L 345.093 295.608 L 353.363 287.495 L 341.401 275.581 Z M 350.137 300.632 L 364.225 314.663 L 372.494 306.549 L 358.407 292.519 Z M 361.106 317.722 L 347.019 303.692 L 339.187 311.375 L 353.274 325.406 Z M 341.975 298.668 L 330.013 286.754 L 322.181 294.438 L 334.143 306.352 Z M 324.968 281.73 L 311.59 268.406 L 303.758 276.09 L 317.137 289.414 Z M 350.155 328.466 L 336.068 314.436 L 327.799 322.549 L 341.886 336.579 Z M 331.024 309.412 L 319.062 297.498 L 310.793 305.612 L 322.755 317.525 Z M 314.018 292.474 L 300.639 279.15 L 292.37 287.263 L 305.748 300.587 Z M 338.767 339.639 L 324.68 325.609 L 316.847 333.294 L 330.935 347.324 Z M 319.636 320.585 L 307.674 308.672 L 299.841 316.356 L 311.803 328.27 Z M 302.629 303.647 L 289.251 290.323 L 281.418 298.007 L 294.797 311.332 Z M 367.235 168.814 L 353.857 155.49 L 345.587 163.603 L 358.965 176.928 Z M 348.812 150.465 L 336.142 137.846 L 327.872 145.96 L 340.542 158.579 Z M 138.138 332.111 L 150.809 344.731 L 158.64 337.047 L 145.97 324.428 Z M 155.854 349.755 L 169.232 363.08 L 177.063 355.396 L 163.685 342.072 Z M 130.546 302.9 L 144.045 316.345 L 152.315 308.231 L 138.816 294.786 Z M 149.089 321.368 L 161.759 333.987 L 170.029 325.874 L 157.359 313.254 Z M 166.804 339.012 L 180.182 352.336 L 188.452 344.222 L 175.074 330.898 Z M 185.227 357.361 L 197.897 369.98 L 206.167 361.866 L 193.497 349.247 Z M 124.219 274.084 L 136.889 286.703 L 144.721 279.019 L 132.051 266.4 Z M 141.934 291.728 L 155.432 305.172 L 163.264 297.488 L 149.766 284.043 Z M 160.476 310.195 L 173.146 322.815 L 180.979 315.131 L 168.308 302.511 Z M 178.191 327.839 L 191.57 341.164 L 199.402 333.48 L 186.023 320.155 Z M 196.614 346.188 L 209.284 358.807 L 217.116 351.123 L 204.446 338.504 Z M 214.328 363.831 L 227.707 377.156 L 235.539 369.471 L 222.16 356.147 Z M 116.747 244.992 L 130.125 258.317 L 138.395 250.203 L 125.017 236.878 Z M 135.17 263.34 L 147.84 275.959 L 156.11 267.846 L 143.439 255.227 Z M 152.884 280.984 L 166.383 294.428 L 174.653 286.314 L 161.154 272.87 Z M 171.427 299.451 L 184.097 312.071 L 192.367 303.957 L 179.697 291.338 Z M 189.142 317.095 L 202.52 330.42 L 210.79 322.306 L 197.412 308.982 Z M 207.565 335.444 L 220.235 348.063 L 228.505 339.949 L 215.835 327.33 Z M 225.279 353.087 L 238.658 366.411 L 246.927 358.298 L 233.549 344.973 Z M 243.702 371.435 L 255.664 383.349 L 263.934 375.236 L 251.972 363.322 Z M 128.135 233.819 L 141.514 247.143 L 149.346 239.459 L 135.968 226.134 Z M 146.558 252.167 L 159.228 264.786 L 167.06 257.102 L 154.39 244.482 Z M 164.272 269.811 L 177.771 283.255 L 185.604 275.57 L 172.105 262.126 Z M 182.815 288.278 L 195.485 300.898 L 203.318 293.213 L 190.648 280.594 Z M 200.53 305.922 L 213.908 319.247 L 221.741 311.562 L 208.363 298.237 Z M 218.953 324.271 L 231.623 336.89 L 239.456 329.205 L 226.786 316.586 Z M 236.667 341.914 L 250.046 355.238 L 257.878 347.554 L 244.5 334.229 Z M 255.09 360.262 L 267.052 372.176 L 274.885 364.491 L 262.923 352.578 Z M 121.371 205.432 L 134.041 218.051 L 142.311 209.937 L 129.641 197.318 Z M 139.085 223.075 L 152.464 236.4 L 160.734 228.286 L 147.356 214.961 Z M 157.508 241.424 L 170.178 254.043 L 178.448 245.929 L 165.778 233.31 Z M 175.223 259.067 L 188.721 272.511 L 196.992 264.397 L 183.493 250.953 Z M 193.765 277.535 L 206.436 290.154 L 214.706 282.04 L 202.035 269.421 Z M 211.48 295.178 L 224.859 308.503 L 233.129 300.389 L 219.751 287.064 Z M 229.903 313.527 L 242.573 326.146 L 250.844 318.032 L 238.174 305.413 Z M 247.618 331.17 L 260.996 344.495 L 269.266 336.38 L 255.888 323.056 Z M 266.041 349.519 L 278.003 361.432 L 286.273 353.318 L 274.311 341.405 Z M 283.047 366.456 L 297.134 380.487 L 305.404 372.373 L 291.317 358.342 Z M 199.849 128.435 L 212.519 141.054 L 219.914 133.799 L 207.244 121.18 Z M 217.564 146.078 L 230.942 159.403 L 238.337 152.148 L 224.958 138.823 Z M 235.986 164.427 L 248.656 177.046 L 256.051 169.791 L 243.381 157.172 Z M 253.701 182.07 L 267.2 195.514 L 274.595 188.259 L 261.096 174.815 Z M 272.244 200.538 L 284.914 213.157 L 292.309 205.902 L 279.638 193.283 Z M 289.959 218.182 L 303.337 231.506 L 310.732 224.251 L 297.354 210.926 Z M 308.381 236.53 L 321.052 249.149 L 328.447 241.894 L 315.776 229.275 Z M 326.096 254.173 L 339.474 267.498 L 346.87 260.242 L 333.491 246.918 Z M 344.519 272.522 L 356.481 284.436 L 363.876 277.18 L 351.914 265.267 Z M 361.525 289.459 L 375.612 303.49 L 383.007 296.234 L 368.92 282.204 Z M 228.076 135.764 L 241.455 149.089 L 250.163 140.545 L 236.785 127.22 Z M 246.499 154.113 L 259.169 166.732 L 267.877 158.188 L 255.207 145.569 Z M 264.214 171.756 L 277.712 185.2 L 286.421 176.656 L 272.922 163.212 Z M 282.756 190.224 L 295.427 202.843 L 304.135 194.299 L 291.464 181.68 Z M 300.471 207.867 L 313.85 221.192 L 322.558 212.648 L 309.18 199.324 Z M 318.894 226.216 L 331.564 238.835 L 340.272 230.291 L 327.602 217.672 Z M 336.609 243.859 L 349.987 257.184 L 358.695 248.64 L 345.317 235.316 Z M 355.032 262.208 L 366.994 274.121 L 375.701 265.578 L 363.74 253.664 Z M 239.902 124.162 L 253.28 137.487 L 261.113 129.801 L 247.735 116.477 Z M 258.324 142.51 L 270.994 155.13 L 278.827 147.445 L 266.157 134.825 Z M 276.039 160.154 L 289.538 173.598 L 297.37 165.913 L 283.872 152.469 Z M 294.582 178.622 L 307.252 191.241 L 315.085 183.556 L 302.414 170.937 Z M 312.297 196.265 L 325.675 209.59 L 333.508 201.905 L 320.129 188.58 Z M 330.72 214.614 L 343.39 227.233 L 351.222 219.548 L 338.552 206.929 Z M 348.434 232.257 L 361.813 245.581 L 369.645 237.897 L 356.267 224.572 Z M 366.857 250.605 L 378.819 262.519 L 386.651 254.835 L 374.69 242.921 Z M 269.275 131.766 L 281.946 144.385 L 290.216 136.271 L 277.546 123.652 Z M 286.99 149.409 L 300.489 162.854 L 308.759 154.739 L 295.26 141.295 Z M 305.533 167.877 L 318.203 180.496 L 326.473 172.382 L 313.803 159.763 Z M 323.248 185.521 L 336.626 198.845 L 344.897 190.731 L 331.518 177.407 Z M 341.671 203.869 L 354.341 216.488 L 362.611 208.374 L 349.941 195.755 Z M 359.386 221.512 L 372.764 234.837 L 381.034 226.723 L 367.656 213.399 Z M 298.378 138.236 L 311.877 151.68 L 319.709 143.996 L 306.21 130.552 Z M 316.921 156.704 L 329.591 169.323 L 337.424 161.639 L 324.753 149.02 Z M 334.636 174.348 L 348.015 187.672 L 355.847 179.988 L 342.468 166.663 Z M 353.059 192.696 L 365.729 205.315 L 373.561 197.631 L 360.891 185.012 Z" style="stroke:rgb(0, 0, 0)" transform="matrix(1, 0, 0, 1, -1.1368683772161603e-13, 0)"/></svg>