<?xml version="1.0" encoding="utf-8"?><svg viewBox="0 0 500 500" xmlns="http://www.w3.org/2000/svg" fill="currentColor"><path d="M 319.426 17.868 L 319.489 17.854 C 322.243 17.26 323.184 18.193 325.657 20.776 C 328.058 23.282 328.957 24.606 328.442 27.587 L 328.43 27.654 L 328.43 133.135 L 183.448 133.138 C 176.33 133.566 168.021 137.443 163.157 142.106 C 158.683 147.215 155.202 155.926 154.805 163.334 L 154.805 343.16 L 21.502 343.173 L 21.439 343.186 C 18.686 343.78 17.745 342.847 15.271 340.264 C 12.872 337.758 11.971 336.436 12.488 333.454 L 12.497 333.387 L 12.488 27.285 L 12.475 27.22 C 11.905 24.343 12.798 23.36 15.271 20.776 C 17.67 18.27 18.936 17.33 21.79 17.868 L 21.854 17.879 L 319.426 17.868 Z" style="paint-order:fill;stroke-linejoin:round" transform="matrix(1, 0, 0, 1, -5.684341886080802e-14, 0)"/><path d="M 182.729 143.286 L 464.471 143.286 C 474.525 143.286 482.673 151.8 482.673 162.307 L 482.673 452.114 C 482.673 462.616 474.525 471.131 464.471 471.131 L 182.729 471.131 C 172.675 471.131 164.525 462.616 164.525 452.114 L 164.525 162.307 C 164.525 151.8 172.675 143.286 182.729 143.286 Z M 465.17 155.66 L 182.395 155.673 L 182.108 155.62 C 181.191 155.331 180.877 155.331 180.427 155.576 C 179.902 155.864 179.343 156.462 178.238 157.613 C 177.041 158.865 176.414 159.435 176.15 159.899 C 175.958 160.233 175.939 160.205 176.257 161.048 L 176.284 161.123 L 176.319 161.313 L 176.37 161.575 L 176.381 452.464 L 176.331 452.764 C 176.054 453.718 176.054 454.051 176.288 454.519 C 176.561 455.068 177.135 455.652 178.238 456.805 C 179.438 458.056 179.981 458.709 180.427 458.986 C 180.747 459.187 180.72 459.208 181.527 458.875 L 181.595 458.847 L 181.78 458.81 L 182.029 458.758 L 464.807 458.746 L 465.093 458.798 C 466.008 459.088 466.324 459.088 466.773 458.842 C 467.298 458.555 467.857 457.957 468.962 456.805 C 470.158 455.553 470.785 454.983 471.051 454.519 C 471.241 454.186 471.261 454.213 470.944 453.37 L 470.915 453.297 L 470.881 453.106 L 470.831 452.844 L 470.82 161.956 L 470.87 161.655 C 471.146 160.699 471.146 160.371 470.913 159.899 C 470.637 159.351 470.065 158.766 468.962 157.613 C 467.764 156.362 467.22 155.709 466.773 155.432 C 466.453 155.234 466.48 155.21 465.673 155.542 L 465.603 155.571 L 465.42 155.61 L 465.17 155.66 Z" style="paint-order:fill;stroke-linejoin:round" transform="matrix(1, 0, 0, 1, -5.684341886080802e-14, 0)"/></svg>