<?xml version="1.0" encoding="utf-8"?><svg viewBox="0 0 500 500" xmlns="http://www.w3.org/2000/svg" fill="currentColor"><path style="fill:rgb(51, 51, 51)"/><path style="fill:rgb(51, 51, 51)"/><path d="M 60.501 466.504 L 60.501 34.357 L 252.108 34.357 C 290.626 34.357 319.907 38.238 339.953 46.001 C 359.997 53.763 376.014 67.471 388.002 87.123 C 399.989 106.774 405.983 128.489 405.983 152.268 C 405.983 182.926 396.058 208.769 376.211 229.796 C 356.363 250.823 325.705 264.187 284.239 269.886 C 299.371 277.158 310.867 284.33 318.728 291.404 C 335.432 306.733 351.252 325.894 366.187 348.888 L 441.356 466.504 L 369.43 466.504 L 312.243 376.596 C 295.539 350.655 281.782 330.807 270.974 317.05 C 260.165 303.294 250.487 293.665 241.938 288.163 C 233.388 282.66 224.693 278.828 215.85 276.666 C 209.365 275.29 198.753 274.602 184.014 274.602 L 117.687 274.602 L 117.687 466.504 L 60.501 466.504 Z M 117.687 225.08 L 240.611 225.08 C 266.749 225.08 287.187 222.377 301.925 216.973 C 316.664 211.569 327.866 202.921 335.53 191.032 C 343.195 179.142 347.027 166.221 347.027 152.268 C 347.027 131.83 339.609 115.028 324.771 101.861 C 309.933 88.695 286.499 82.112 254.466 82.112 L 117.687 82.112 L 117.687 225.08 Z" style="fill:rgb(51, 51, 51)"/></svg>