<?xml version="1.0" encoding="utf-8"?><svg viewBox="0 0 500 500" xmlns="http://www.w3.org/2000/svg" fill="currentColor"><path d="M 494.28 334.198 C 494.28 339.291 489.532 343.566 483.059 344.822 L 483.624 344.822 L 495.001 381.942 C 495.001 387.191 490.003 391.53 483.248 392.662 L 483.593 392.662 L 494.969 429.782 C 494.969 435.878 488.182 440.783 479.758 440.783 L 22.813 440.783 C 14.454 440.783 7.601 435.878 7.601 429.782 L 18.978 392.662 L 19.42 392.662 C 12.692 391.53 7.632 387.191 7.632 381.942 L 18.978 344.949 C 12.095 343.911 6.91 339.51 6.91 334.198 L 17.753 298.871 C 11.496 297.488 6.94 293.307 6.94 288.309 L 67.855 89.886 C 67.855 83.789 74.674 78.854 83.097 78.854 L 418.153 78.854 C 426.577 78.854 433.429 83.789 433.429 89.886 L 494.309 288.309 C 494.309 293.307 489.753 297.52 483.467 298.871 L 494.28 334.198 Z M 38.844 323.984 L 467.407 326.154 L 457.789 299.341 L 47.11 299.341 L 38.844 323.984 Z M 39.566 371.728 L 468.129 373.898 L 457.819 345.199 L 48.462 345.199 L 39.566 371.728 Z M 39.534 419.566 L 468.098 421.735 L 457.754 392.943 L 48.462 392.943 L 39.534 419.566 Z M 98.342 100.918 L 53.428 215.169 L 133.357 148.315 C 139.141 143.853 148.913 143.853 154.667 148.315 L 265.869 228.558 L 346.584 170.382 C 352.368 165.888 362.143 165.888 367.894 170.382 L 449.773 226.046 L 402.94 100.918 L 98.342 100.918 Z M 463.854 277.309 L 463.854 270.928 L 357.239 193.734 L 276.558 251.976 C 270.742 256.408 260.968 256.408 255.214 251.976 L 144.012 171.7 L 45.978 248.831 L 37.427 277.309 L 463.854 277.309 Z M 325.589 141.15 C 325.589 150.109 316.757 160.417 306.636 165.603 C 297.05 170.505 281.774 173.996 267.692 173.996 C 253.674 173.996 238.398 170.505 228.78 165.603 C 218.661 160.417 209.827 150.109 209.827 141.15 C 209.827 132.161 218.661 121.881 228.78 116.697 C 238.398 111.761 253.674 108.304 267.692 108.304 C 281.774 108.304 297.05 111.761 306.636 116.697 C 316.757 121.881 325.589 132.161 325.589 141.15 Z M 295.949 130.527 C 290.102 127.539 277.216 126.188 267.692 126.188 C 258.232 126.188 243.743 127.539 237.927 130.527 C 232.552 133.261 231.829 138.071 231.829 141.15 C 231.829 144.198 232.552 149.574 237.927 152.34 C 243.743 155.294 258.232 156.677 267.692 156.677 C 277.216 156.677 290.102 155.294 295.949 152.34 C 301.293 149.574 301.985 144.198 301.985 141.15 C 301.985 138.071 301.293 133.261 295.949 130.527 Z" style="" transform="matrix(1, 0, 0, 1, -7.105427357601002e-15, 0)"/></svg>