<?xml version="1.0" encoding="utf-8"?><svg viewBox="0 0 500 500" xmlns="http://www.w3.org/2000/svg" fill="currentColor"><path d="M 29.171 20.365 L 470.729 20.365 C 473.206 20.448 475.802 21.57 477.46 23.159 C 479.049 24.817 480.171 27.428 480.254 29.906 L 480.254 471.464 C 480.171 473.942 479.049 476.537 477.46 478.194 C 475.801 479.784 473.191 480.906 470.712 480.988 L 29.155 480.988 C 26.676 480.906 24.081 479.784 22.425 478.194 C 20.835 476.536 19.713 473.925 19.631 471.447 L 19.631 29.89 C 19.713 27.411 20.835 24.815 22.425 23.159 C 24.082 21.57 26.694 20.448 29.171 20.365 Z M 25.203 475.415 C 26.307 476.572 27.48 477.148 29.152 477.057 L 32.194 477.057 L 476.323 32.928 L 476.323 29.906 C 476.413 28.234 475.837 27.041 474.68 25.938 C 474.263 25.501 473.836 25.146 473.375 24.879 L 386.442 111.812 L 384.624 111.812 L 384.624 24.295 L 293.685 24.295 L 293.685 111.745 L 203.563 111.745 L 203.563 24.295 L 112.579 24.295 L 112.579 111.705 L 23.56 111.705 L 23.56 201.903 L 113.442 201.903 L 113.442 112.685 L 203.564 112.685 L 203.564 202.807 L 114.366 202.807 L 114.366 294.949 L 203.305 294.949 L 114.343 383.911 L 114.343 297.729 L 23.56 297.729 L 23.56 384.871 L 111.565 384.871 L 111.565 386.689 L 24.147 474.107 C 23.707 473.343 23.504 472.488 23.56 471.447 C 23.47 473.118 24.047 474.312 25.203 475.415 Z M 294.548 112.725 L 384.67 112.725 L 384.67 113.584 L 295.407 202.847 L 294.548 202.847 Z M 205.366 203.748 L 294.506 203.748 L 205.366 292.888 Z M 25.203 25.938 C 26.307 24.782 27.5 24.205 29.171 24.295 C 27.5 24.205 26.307 24.782 25.203 25.938 Z" style="" transform="matrix(1, 0, 0, 1, -5.684341886080802e-14, 0)"/></svg>