<?xml version="1.0" encoding="utf-8"?><svg xmlns="http://www.w3.org/2000/svg" xmlns:xlink="http://www.w3.org/1999/xlink"><symbol viewBox="0 0 500 500" fill="currentColor" id="B" xmlns="http://www.w3.org/2000/svg"><path d="M86.353 471.597V33.263h164.343c33.466 0 60.308 4.435 80.528 13.304 20.219 8.871 36.056 22.526 47.509 40.965 11.455 18.438 17.183 37.724 17.183 57.856 0 18.738-5.08 36.379-15.241 52.923-10.159 16.545-25.497 29.901-46.014 40.065 26.493 7.775 46.861 21.03 61.105 39.768 14.242 18.738 21.364 40.864 21.364 66.379 0 20.532-4.333 39.617-12.997 57.258-8.665 17.641-19.373 31.245-32.123 40.813-12.748 9.569-28.734 16.795-47.956 21.678-19.225 4.884-42.781 7.325-70.669 7.325H86.353zm57.969-254.15h94.721c25.697 0 44.123-1.694 55.277-5.082 14.742-4.386 25.848-11.662 33.318-21.827 7.47-10.167 11.205-22.925 11.205-38.274 0-14.55-3.486-27.358-10.457-38.421-6.973-11.063-16.932-18.637-29.881-22.724-12.948-4.086-35.16-6.129-66.633-6.129h-87.55v132.457zm0 202.425h109.063c18.725 0 31.873-.699 39.443-2.095 13.347-2.391 24.502-6.378 33.466-11.959 8.964-5.582 16.335-13.705 22.112-24.368 5.776-10.665 8.665-22.973 8.665-36.927 0-16.346-4.183-30.548-12.55-42.608-8.367-12.059-19.97-20.532-34.812-25.415-14.84-4.884-36.205-7.325-64.093-7.325H144.322v150.697z" fill="#333"/></symbol><symbol viewBox="0 0 500 500" fill="currentColor" id="BGR" xmlns="http://www.w3.org/2000/svg"><g fill="#333"><path d="M62.383 225.521V23.494h75.342c15.564-.012 27.801 1.992 37.078 6.091 9.263 4.017 16.292 10.072 21.492 18.515 5.278 8.428 7.793 16.998 7.793 26.187 0 8.539-2.214 16.342-6.887 23.881-4.59 7.551-11.423 13.48-20.863 18.122l-4.197 2.064 4.493 1.302c11.283 3.27 19.907 8.555 26.25 16.12-7.61 1.998-14.871 4.773-21.629 8.264l.941 1.195c-.315-.4-.642-.792-.975-1.177-.403.209-.804.42-1.205.633-.025.015-.067.037-.121.066l1.315-.713c-3.934-4.527-9.118-7.928-15.214-9.967-7.146-2.332-17.46-3.522-30.656-3.528H85.97v74.332h49.295c-2.03 7.21-3.177 12.979-4.022 20.64zm151.665-57.806c0 9.43-1.918 17.985-5.915 26.064-3.969 8.114-8.726 14.17-14.543 18.498-5.815 4.386-12.999 7.623-21.872 9.863-3.377.858-5.568 1.264-8.64 1.742 1.115-8.385 2.775-15.178 5.885-23.197 1.86-.785 3.423-1.563 5.211-2.673 4.4-2.779 8.18-6.929 11.017-12.107 2.238-4.171 3.497-8.512 4.034-13.362 4.182-3.216 8.693-5.815 14.524-8.241 3.678-1.544 6.4-2.37 9.93-3.209.425 2.768.369 3.646.369 6.622zM85.969 44.137v65.772h46.284c12.148-.004 21.056-.838 26.472-2.461 7.157-2.17 12.843-5.913 16.584-10.903 3.644-5.053 5.612-11.575 5.612-19.032 0-7.064-1.774-13.58-5.189-18.993-3.444-5.461-8.662-9.365-15.016-11.425-6.27-1.955-16.97-2.955-31.83-2.958z"/><path d="M237.49 260.343V239.84l83.49-.132v30.75h-23.028v-10.114zm83.49 52.984c-10.881 8.599-20.059 14.24-30.827 19.27v-25.406c2.706-1.743 4.917-3.37 7.188-5.38l.61-.538v-4.462h23.028zm-83.34 31.187c-19.99 0-37.923-4.199-54.218-12.77-16.285-8.487-28.323-20.626-36.616-36.747-8.314-16.168-12.424-34.024-12.424-54.023 0-19.815 4.096-38.09 12.377-55.252 8.253-17.107 19.866-29.602 35.345-37.84 15.487-8.333 33.155-12.41 53.433-12.41 14.71 0 27.816 2.329 39.656 7.095 11.83 4.712 20.878 11.146 27.522 19.576 6.714 8.42 11.307 18.386 14.782 31.264l-21.116 5.791c-3.05-9.814-6.584-17.434-11.287-23.575-4.74-6.189-11.68-11.243-20.372-14.947-8.697-3.657-18.495-5.543-29.045-5.543-12.597 0-23.71 1.957-32.964 5.82-9.239 3.858-16.893 9.067-22.602 15.4-5.665 6.284-10.148 13.34-13.308 20.865-5.289 12.895-7.991 27.035-7.991 42.073 0 18.515 3.244 34.28 9.669 46.839 6.44 12.594 16.051 22.18 28.374 28.294 12.248 6.078 25.474 9.167 39.242 9.167 8.616 0 15.619-1.005 23.213-2.97v21.938c-7.15 1.311-13.823 1.955-21.67 1.955z"/><path d="M262.61 476.111V274.084h89.37c18.21-.007 31.819 1.778 41.149 5.42 9.275 3.535 16.452 9.685 21.971 18.823 5.605 9.12 8.293 18.98 8.293 30.058 0 14.263-4.415 25.938-13.672 35.649-9.149 9.796-23.204 15.88-42.698 18.526l-5.998.814 5.46 2.617c7.115 3.412 12.362 6.677 15.975 9.947 7.863 7.204 15.24 16.14 22.284 26.996l33.984 53.177h-29.92l-26.685-41.954c-7.968-12.371-14.563-21.886-19.74-28.476-5.216-6.629-10.035-11.43-14.263-14.152-4.186-2.696-8.659-4.642-13.017-5.72-3.218-.674-8.458-1.02-15.53-1.022h-33.376v91.324zm23.587-182.928v71.663h60.31c12.56-.007 22.598-1.349 29.804-3.966 7.255-2.706 13.081-7.154 16.894-13.067 3.785-5.872 5.758-12.533 5.758-19.428 0-10.094-3.912-18.77-11.2-25.346-7.418-6.46-19.17-9.821-34.66-9.856z"/></g><path d="M250.885 61.58c63.655-14.005 121.666-5.567 163.885 38.665 20.255 22.187 29.256 53.004 31.075 81.082.913 14.078.181 28.043-1.51 40.084-1.701 12.11-7.198 29.449-7.198 29.449-.065.325-11.717-2.453-11.767-2.275 0 0 2.897-8.323 4.079-13.101 1.189-4.81 2.197-10.005 3.002-15.742a185.403 185.403 0 001.419-37.639c-1.738-26.836-9.008-53.955-27.872-73.668-38.647-42.382-90.966-49.06-152.501-35.143l-2.612-11.712z"/><path d="M414.184 276.433l-.322-54.302 43.212 20.997-42.89 33.305z"/><g><path d="M241.97 456.245c-63.656 14.005-121.667 5.567-163.886-38.665-20.255-22.187-29.256-53.004-31.075-81.082-.913-14.078-.18-28.043 1.51-40.084 1.701-12.11 7.198-29.449 7.198-29.449.065-.325 11.717 2.453 11.767 2.275 0 0-2.897 8.323-4.079 13.101-1.189 4.81-2.197 10.005-3.002 15.742a185.403 185.403 0 00-1.419 37.64c1.738 26.835 9.008 53.954 27.872 73.667 38.647 42.382 90.966 49.06 152.501 35.143l2.612 11.712z"/><path d="M78.67 241.392l.322 54.302-43.212-20.997 42.89-33.305z"/></g></symbol><symbol viewBox="0 0 500 500" fill="currentColor" id="G" xmlns="http://www.w3.org/2000/svg"><path d="M265.733 296.194v-49.267l178.295-.284v155.876c-27.37 21.794-55.606 38.181-84.71 49.161-29.082 10.98-58.935 16.47-89.559 16.47-41.363 0-78.937-8.833-112.723-26.501-33.784-17.667-59.289-43.221-76.515-76.658-17.225-33.437-25.837-70.788-25.837-112.054 0-40.882 8.566-79.051 25.694-114.506 17.13-35.427 41.781-61.74 73.949-78.934 32.146-17.193 69.185-25.789 111.12-25.789 30.434 0 57.946 4.91 82.538 14.727 24.59 9.842 43.868 23.561 57.841 41.157 13.992 17.572 24.625 40.493 31.894 68.761l-50.249 13.766c-6.32-21.391-14.171-38.204-23.555-50.441-9.386-12.237-22.787-22.032-40.202-29.382-17.414-7.351-36.742-11.028-57.981-11.028-25.47 0-47.483 3.865-66.037 11.597-18.581 7.755-33.56 17.928-44.941 30.521-11.38 12.615-20.23 26.465-26.549 41.546-10.715 25.991-16.073 54.177-16.073 84.557 0 37.446 6.45 68.783 19.349 94.016 12.927 25.21 31.73 43.933 56.418 56.168 24.707 12.238 50.937 18.356 78.688 18.356 24.115 0 47.659-4.636 70.633-13.908 22.974-9.272 40.391-19.162 52.245-29.668v-78.259H265.733z" fill="#333"/></symbol><symbol viewBox="0 0 500 500" fill="currentColor" id="R" xmlns="http://www.w3.org/2000/svg"><path d="M60.501 466.504V34.357h191.607c38.518 0 67.799 3.881 87.845 11.644 20.044 7.762 36.061 21.47 48.049 41.122 11.987 19.651 17.981 41.366 17.981 65.145 0 30.658-9.925 56.501-29.772 77.528-19.848 21.027-50.506 34.391-91.972 40.09 15.132 7.272 26.628 14.444 34.489 21.518 16.704 15.329 32.524 34.49 47.459 57.484l75.169 117.616H369.43l-57.187-89.908c-16.704-25.941-30.461-45.789-41.269-59.546-10.809-13.756-20.487-23.385-29.036-28.887-8.55-5.503-17.245-9.335-26.088-11.497-6.485-1.376-17.097-2.064-31.836-2.064h-66.327v191.902H60.501zm57.186-241.424h122.924c26.138 0 46.576-2.703 61.314-8.107 14.739-5.404 25.941-14.052 33.605-25.941 7.665-11.89 11.497-24.811 11.497-38.764 0-20.438-7.418-37.24-22.256-50.407-14.838-13.166-38.272-19.749-70.305-19.749H117.687V225.08z" fill="#333"/></symbol><symbol viewBox="0 0 16 16" fill="currentColor" id="contrast" xmlns="http://www.w3.org/2000/svg"><path d="M8 4v8a4 4 0 110-8zM0 8c0-4.418 3.59-8 8-8 4.418 0 8 3.59 8 8 0 4.418-3.59 8-8 8-4.418 0-8-3.59-8-8zm2 0c0 3.307 2.686 6 6 6 3.307 0 6-2.686 6-6 0-3.307-2.686-6-6-6-3.307 0-6 2.686-6 6z" fill-rule="evenodd"/></symbol><symbol viewBox="0 0 500 500" fill="currentColor" id="grayscale" xmlns="http://www.w3.org/2000/svg"><path d="M27.864 18.081h447.183c2.509.084 5.138 1.22 6.815 2.83 1.611 1.678 2.747 4.323 2.83 6.832v447.183c-.083 2.509-1.219 5.138-2.83 6.815-1.678 1.611-4.322 2.747-6.833 2.83H27.848c-2.51-.083-5.139-1.219-6.816-2.83-1.61-1.678-2.746-4.322-2.83-6.833V27.727c.084-2.51 1.22-5.139 2.83-6.816 1.678-1.61 4.323-2.746 6.832-2.83zm-5.682 456.827c-.092 1.693.493 2.902 1.664 4.019 1.117 1.172 2.305 1.755 3.998 1.663h447.185c1.693.092 2.902-.491 4.019-1.663 1.172-1.117 1.755-2.306 1.663-3.999V336.864h-6.589v-6.993h6.589v-28.574h-4.42v-6.993h4.42v-21.639h-6.845v-6.993h6.845v-35.046h-6.881v-6.993h6.881v-21.57h-6.481v-6.993h6.481v-7.143h-6.716v-6.993h6.716v-6.627h-5.49v-6.993h5.49v-7.143h-5.724v-6.993h5.724v-7.582H22.182v.333h6.882v6.993h-6.882v20.762h5.891v6.993h-5.891v7.143h6.125v6.993h-6.125v7.434h5.492v6.993h-5.492v7.143h5.726v6.993h-5.726v6.627h4.5v6.993h-4.5v7.143h4.734v6.993h-4.734v64.161h5.845v6.993h-5.845v21.183h5.692v6.993h-5.692zm6.112-294.091h6.993v6.993h-6.993zm.235 14.136h6.993v6.993h-6.993zm13.897-21.269v6.993h-6.993v-6.487H29.52v-6.993h6.993v6.487zm.222 7.133h6.993v6.993h-6.993zm-6.981 7.003h6.993v6.993h-6.993zm7.215 7.133h6.993v6.993h-6.993zm13.897-21.269v6.993h-6.993v-6.487h-5.913v-6.993h6.993v6.487zm.222 7.133h6.993v6.993h-6.993zm-6.98 7.003h6.993v6.993h-6.993zm7.214 7.133h6.993v6.993h-6.993zm13.898-21.269v6.993H64.14v-6.487h-5.913v-6.993h6.993v6.487zm.221 7.133h6.993v6.993h-6.993zm-6.98 7.003h6.993v6.993h-6.993zm7.215 7.133h6.993v6.993h-6.993zm13.864-21.152v6.993H78.46v-6.604h-5.88v-6.993h6.993v6.604zm.222 7.133h6.993v6.993h-6.993zm-6.98 7.003h6.993v6.993h-6.993zm7.214 7.133h6.993v6.993h-6.993zm13.898-21.269v6.993h-6.993v-6.487h-5.913v-6.993h6.993v6.487zm.221 7.133h6.993v6.993h-6.993zm-6.98 7.003h6.993v6.993h-6.993zm7.215 7.133h6.993v6.993h-6.993zm13.897-21.269v6.993h-6.993v-6.487h-5.913v-6.993h6.993v6.487zm.222 7.133h6.993v6.993h-6.993zm-6.981 7.003h6.993v6.993h-6.993zm7.215 7.133h6.993v6.993h-6.993zm13.897-21.269v6.993h-6.993v-6.487h-5.913v-6.993h6.993v6.487zm.222 7.133h6.993v6.993h-6.993zm-6.98 7.003h6.993v6.993h-6.993zm7.214 7.133h6.993v6.993h-6.993zm14.005-21.386v6.993h-6.993v-6.37h-6.02v-6.993h6.993v6.37zm.222 7.133h6.993v6.993h-6.993zm-6.981 7.003h6.993v6.993h-6.993zm7.215 7.133h6.993v6.993h-6.993zm13.897-21.269v6.993h-6.993v-6.487h-5.913v-6.993h6.993v6.487zm.222 7.133h6.993v6.993h-6.993zm-6.98 7.003h6.993v6.993h-6.993zm7.214 7.133h6.993v6.993h-6.993zm13.898-21.269v6.993h-6.993v-6.487h-5.914v-6.993h6.993v6.487zm.221 7.133h6.993v6.993h-6.993zm-6.98 7.003h6.993v6.993h-6.993zm7.214 7.133h6.993v6.993h-6.993zm13.898-21.269v6.993h-6.993v-6.487h-5.913v-6.993h6.993v6.487zm.222 7.133h6.993v6.993h-6.993zm-6.981 7.003h6.993v6.993h-6.993zm7.215 7.133h6.993v6.993h-6.993zm13.865-21.152v6.993h-6.993v-6.604h-5.881v-6.993h6.993v6.604zm.221 7.133h6.993v6.993h-6.993zm-6.98 7.003h6.993v6.993h-6.993zm7.214 7.133h6.993v6.993h-6.993zm13.898-21.269v6.993h-6.993v-6.487h-5.913v-6.993h6.993v6.487zm.221 7.133h6.993v6.993h-6.993zm-6.98 7.003h6.993v6.993h-6.993zm7.215 7.133h6.993v6.993h-6.993zm13.897-21.269v6.993h-6.993v-6.487h-5.913v-6.993h6.993v6.487zm.222 7.133h6.993v6.993h-6.993zm-6.981 7.003h6.993v6.993h-6.993zm7.215 7.133h6.993v6.993h-6.993zm13.898-21.269v6.993h-6.993v-6.487h-5.914v-6.993h6.993v6.487zm.221 7.133h6.993v6.993h-6.993zm-6.98 7.003h6.993v6.993h-6.993zm7.214 7.133h6.993v6.993h-6.993zM29.286 153.061h6.993v6.993h-6.993zm-6.981 7.004h6.993v6.993h-6.993zm14.119-14.136h6.993v6.993h-6.993zm7.215 7.132h6.993v6.993h-6.993zm-6.98 7.004h6.993v6.993h-6.993zm14.119-14.136h6.993v6.993h-6.993zm7.214 7.132h6.993v6.993h-6.993zm-6.98 7.004h6.993v6.993h-6.993zm14.119-14.136h6.993v6.993h-6.993zm7.215 7.132h6.993v6.993h-6.993zm-6.981 7.004h6.993v6.993h-6.993zm14.087-14.019h6.993v6.993h-6.993zm7.214 7.132h6.993v6.993h-6.993zm-6.98 7.004h6.993v6.993h-6.993zm14.119-14.136h6.993v6.993h-6.993zm7.215 7.132h6.993v6.993h-6.993zm-6.981 7.004h6.993v6.993h-6.993zm14.119-14.136h6.993v6.993h-6.993zm7.215 7.132h6.993v6.993h-6.993zm-6.98 7.004h6.993v6.993h-6.993zm14.119-14.136h6.993v6.993h-6.993zm7.214 7.132h6.993v6.993h-6.993zm-6.98 7.004h6.993v6.993h-6.993zm14.226-14.253h6.993v6.993h-6.993zm7.215 7.132h6.993v6.993h-6.993zm-6.981 7.004h6.993v6.993h-6.993zm14.12-14.136h6.993v6.993h-6.993zm7.214 7.132h6.993v6.993h-6.993zm-6.98 7.004h6.993v6.993h-6.993zm14.119-14.136h6.993v6.993h-6.993zm7.214 7.132h6.993v6.993h-6.993zm-6.98 7.004h6.993v6.993h-6.993zm14.119-14.136h6.993v6.993h-6.993zm7.215 7.132h6.993v6.993h-6.993zm-6.981 7.004h6.993v6.993h-6.993zm14.087-14.019h6.993v6.993h-6.993zm7.214 7.132h6.993v6.993h-6.993zm-6.98 7.004h6.993v6.993h-6.993zm14.119-14.136h6.993v6.993h-6.993zm7.215 7.132h6.993v6.993h-6.993zm-6.981 7.004h6.993v6.993h-6.993zm14.12-14.136h6.993v6.993h-6.993zm7.214 7.132h6.993v6.993h-6.993zm-6.98 7.004h6.993v6.993h-6.993zm14.119-14.136h6.993v6.993h-6.993zm7.214 7.132h6.993v6.993h-6.993zm-6.98 7.004h6.993v6.993h-6.993zm7.215 7.132h6.993v6.37h6.577v6.993h-6.993v-6.37h-6.577zm13.792 13.503h6.993v6.993h-6.993zm-6.981 7.003h6.993v6.993h-6.993zm7.215 7.133h6.993v6.993h-6.993zm13.897-21.269v6.993h-6.993v-6.487h-5.913v-6.993h6.993v6.487zm.222 7.133H280v6.993h-6.993zm-6.981 7.003h6.993v6.993h-6.993zm7.215 7.133h6.993v6.993h-6.993zm13.898-21.269v6.993h-6.993v-6.487h-5.914v-6.993h6.993v6.487zm.221 7.133h6.993v6.993h-6.993zm-6.98 7.003h6.993v6.993h-6.993zm7.214 7.133h6.993v6.993h-6.993zm13.898-21.269v6.993h-6.993v-6.487h-5.913v-6.993h6.993v6.487zm.221 7.133h6.993v6.993h-6.993zm-6.98 7.003h6.993v6.993h-6.993zm7.215 7.133h6.993v6.993h-6.993zm13.865-21.152v6.993h-6.993v-6.604h-5.881v-6.993h6.993v6.604zm.221 7.133h6.993v6.993h-6.993zm-6.98 7.003h6.993v6.993h-6.993zm7.214 7.133h6.993v6.993h-6.993zm13.898-21.269v6.993h-6.993v-6.487h-5.913v-6.993h6.993v6.487zm.221 7.133h6.993v6.993h-6.993zm-6.98 7.003h6.993v6.993h-6.993zm7.215 7.133h6.993v6.993h-6.993zm13.897-21.269v6.993h-6.993v-6.487h-5.913v-6.993h6.993v6.487zm.222 7.133h6.993v6.993h-6.993zm-6.981 7.003h6.993v6.993h-6.993zm7.215 7.133h6.993v6.993h-6.993zm13.898-21.269v6.993h-6.993v-6.487h-5.914v-6.993h6.993v6.487zm.221 7.133h6.993v6.993h-6.993zm-6.98 7.003h6.993v6.993h-6.993zm7.214 7.133h6.993v6.993h-6.993zm14.005-21.386v6.993h-6.993v-6.37h-6.02v-6.993h6.993v6.37zm.222 7.133h6.993v6.993h-6.993zm-6.981 7.003h6.993v6.993h-6.993zm7.215 7.133h6.993v6.993h-6.993zm13.897-21.269v6.993h-6.993v-6.487h-5.913v-6.993h6.993v6.487zm.222 7.133h6.993v6.993h-6.993zm-6.98 7.003h6.993v6.993h-6.993zm7.214 7.133h6.993v6.993h-6.993zm13.898-21.269v6.993h-6.993v-6.487h-5.913v-6.993h6.993v6.487zm.221 7.133h6.993v6.993h-6.993zm-6.98 7.003h6.993v6.993h-6.993zm7.215 7.133h6.993v6.993h-6.993zm13.897-21.269v6.993H409.4v-6.487h-5.913v-6.993h6.993v6.487zm.222 7.133h6.993v6.993h-6.993zm-6.981 7.003h6.993v6.993h-6.993zm7.215 7.133h6.993v6.993h-6.993zm13.865-21.152v6.993h-6.993v-6.604h-5.881v-6.993h6.993v6.604zm.221 7.133h6.993v6.993h-6.993zm-6.98 7.003h6.993v6.993h-6.993zm7.215 7.133h6.993v6.993h-6.993zm13.897-21.269v6.993h-6.993v-6.487h-5.913v-6.993h6.993v6.487zm.222 7.133h6.993v6.993h-6.993zm-6.981 7.003h6.993v6.993h-6.993zm7.215 7.133h6.993v6.993h-6.993zm13.897-21.269v6.993h-6.993v-6.487h-5.913v-6.993h6.993v6.487zm.222 7.133h6.993v6.993h-6.993zm-6.98 7.003h6.993v6.993h-6.993zm7.214 7.133h6.993v6.993h-6.993zm13.898-21.269v6.993h-6.993v-6.487h-5.914v-6.993h6.993v6.487zm-6.759 14.136h6.993v6.993h-6.993zM252.43 145.929h6.993v6.993h-6.993zm7.215 7.132h6.993v6.993h-6.993zm-6.981 7.004h6.993v6.993h-6.993zm14.12-14.136h6.993v6.993h-6.993zm7.214 7.132h6.993v6.993h-6.993zm-6.98 7.004h6.993v6.993h-6.993zm14.119-14.136h6.993v6.993h-6.993zm7.214 7.132h6.993v6.993h-6.993zm-6.98 7.004h6.993v6.993h-6.993zm14.119-14.136h6.993v6.993h-6.993zm7.215 7.132h6.993v6.993h-6.993zm-6.981 7.004h6.993v6.993h-6.993zm14.087-14.019h6.993v6.993h-6.993zm7.214 7.132h6.993v6.993h-6.993zm-6.98 7.004h6.993v6.993h-6.993zm14.119-14.136h6.993v6.993h-6.993zm7.215 7.132h6.993v6.993h-6.993zm-6.981 7.004h6.993v6.993h-6.993zm14.119-14.136h6.993v6.993h-6.993zm7.215 7.132h6.993v6.993h-6.993zm-6.98 7.004h6.993v6.993h-6.993zm14.119-14.136h6.993v6.993h-6.993zm7.214 7.132h6.993v6.993h-6.993zm-6.98 7.004h6.993v6.993h-6.993zm14.226-14.253h6.993v6.993h-6.993zm7.215 7.132h6.993v6.993h-6.993zm-6.98 7.004h6.993v6.993h-6.993zm14.119-14.136h6.993v6.993h-6.993zm7.214 7.132h6.993v6.993h-6.993zm-6.98 7.004h6.993v6.993h-6.993zm14.119-14.136h6.993v6.993h-6.993zm7.215 7.132h6.993v6.993h-6.993zm-6.981 7.004h6.993v6.993h-6.993zm14.119-14.136h6.993v6.993h-6.993zm7.215 7.132h6.993v6.993h-6.993zm-6.98 7.004h6.993v6.993h-6.993zm14.086-14.019h6.993v6.993h-6.993zm7.215 7.132h6.993v6.993h-6.993zm-6.981 7.004h6.993v6.993h-6.993zm14.119-14.136h6.993v6.993h-6.993zm7.215 7.132h6.993v6.993h-6.993zm-6.98 7.004h6.993v6.993H439.3zm14.119-14.136h6.993v6.993h-6.993zm7.214 7.132h6.993v6.993h-6.993zm-6.98 7.004h6.993v6.993h-6.993zm14.119-14.136h6.993v6.993h-6.993zm.234 14.136h6.993v6.993h-6.993zM26.904 237.135h6.993v6.993h-6.993zm.234 14.136h6.993v6.993h-6.993zm13.898-21.268v6.993h-6.993v-6.487h-5.914v-6.993h6.993v6.487zm.221 7.132h6.993v6.993h-6.993zm-6.98 7.004h6.993v6.993h-6.993zm7.214 7.132h6.993v6.993h-6.993zm13.898-21.268v6.993h-6.993v-6.487h-5.913v-6.993h6.993v6.487zm.221 7.132h6.993v6.993H55.61zm-6.98 7.004h6.993v6.993H48.63zm7.215 7.132h6.993v6.993h-6.993zm13.897-21.268v6.993h-6.993v-6.487h-5.913v-6.993h6.993v6.487zm.222 7.132h6.993v6.993h-6.993zm-6.981 7.004h6.993v6.993h-6.993zm7.215 7.132h6.993v6.993h-6.993zm13.865-21.151v6.993H77.07v-6.604h-5.881v-6.993h6.993v6.604zm.221 7.132h6.993v6.993h-6.993zm-6.98 7.004h6.993v6.993h-6.993zm7.215 7.132h6.993v6.993h-6.993zm13.897-21.268v6.993h-6.993v-6.487H85.51v-6.993h6.993v6.487zm.222 7.132h6.993v6.993h-6.993zm-6.981 7.004h6.993v6.993h-6.993zm7.215 7.132h6.993v6.993h-6.993zm13.897-21.268v6.993h-6.993v-6.487h-5.913v-6.993h6.993v6.487zm.222 7.132h6.993v6.993h-6.993zm-6.98 7.004h6.993v6.993h-6.993zm7.214 7.132h6.993v6.993h-6.993zm13.898-21.268v6.993h-6.993v-6.487h-5.913v-6.993h6.993v6.487zm.221 7.132h6.993v6.993h-6.993zm-6.98 7.004h6.993v6.993h-6.993zm7.215 7.132h6.993v6.993h-6.993zm14.004-21.385v6.993h-6.993v-6.37h-6.02v-6.993h6.993v6.37zm.222 7.132h6.993v6.993h-6.993zm-6.98 7.004h6.993v6.993h-6.993zm7.214 7.132h6.993v6.993h-6.993zm13.898-21.268v6.993h-6.993v-6.487h-5.914v-6.993h6.993v6.487zm.221 7.132h6.993v6.993h-6.993zm-6.98 7.004h6.993v6.993h-6.993zm7.215 7.132h6.993v6.993h-6.993zm13.897-21.268v6.993h-6.993v-6.487h-5.913v-6.993h6.993v6.487zm.222 7.132h6.993v6.993h-6.993zm-6.981 7.004h6.993v6.993h-6.993zm7.215 7.132h6.993v6.993h-6.993zm13.897-21.268v6.993h-6.993v-6.487h-5.913v-6.993h6.993v6.487zm.222 7.132h6.993v6.993h-6.993zm-6.98 7.004h6.993v6.993h-6.993zm7.214 7.132h6.993v6.993h-6.993zm13.865-21.151v6.993h-6.993v-6.604h-5.881v-6.993h6.993v6.604zm.222 7.132h6.993v6.993h-6.993zm-6.981 7.004h6.993v6.993h-6.993zm7.215 7.132h6.993v6.993h-6.993zm13.897-21.268v6.993h-6.993v-6.487h-5.913v-6.993h6.993v6.487zm.222 7.132h6.993v6.993h-6.993zm-6.98 7.004h6.993v6.993h-6.993zm7.214 7.132h6.993v6.993h-6.993zm13.898-21.268v6.993h-6.993v-6.487h-5.914v-6.993h6.993v6.487zm.221 7.132h6.993v6.993h-6.993zm-6.98 7.004h6.993v6.993h-6.993zm7.214 7.132h6.993v6.993h-6.993zm13.898-21.268v6.993h-6.993v-6.487h-5.913v-6.993h6.993v6.487zm.222 7.132h6.993v6.993h-6.993zm-6.981 7.004h6.993v6.993h-6.993zm7.215 7.132h6.993v6.993h-6.993zM27.895 209.38h6.993v6.993h-6.993zm7.139-7.133h6.993v6.993h-6.993zm7.214 7.133h6.993v6.993h-6.993zm-6.98 7.003h6.993v6.993h-6.993zm14.119-14.136h6.993v6.993h-6.993zm7.215 7.133h6.993v6.993h-6.993zm-6.981 7.003h6.993v6.993h-6.993zm14.119-14.136h6.993v6.993H63.74zm7.215 7.133h6.993v6.993h-6.993zm-6.98 7.003h6.993v6.993h-6.993zm14.086-14.019h6.993v6.993h-6.993zm7.215 7.133h6.993v6.993h-6.993zm-6.981 7.003h6.993v6.993h-6.993zm14.119-14.136h6.993v6.993h-6.993zm7.215 7.133h6.993v6.993h-6.993zm-6.98 7.003h6.993v6.993h-6.993zm14.119-14.136h6.993v6.993h-6.993zm7.214 7.133h6.993v6.993h-6.993zm-6.98 7.003h6.993v6.993h-6.993zm14.119-14.136h6.993v6.993h-6.993zm7.215 7.133h6.993v6.993h-6.993zm-6.981 7.003h6.993v6.993h-6.993zm14.227-14.253h6.993v6.993h-6.993zm7.214 7.133h6.993v6.993h-6.993zm-6.98 7.003h6.993v6.993h-6.993zm14.119-14.136h6.993v6.993h-6.993zm7.215 7.133h6.993v6.993h-6.993zm-6.981 7.003h6.993v6.993h-6.993zm14.119-14.136h6.993v6.993h-6.993zm7.215 7.133h6.993v6.993h-6.993zm-6.98 7.003h6.993v6.993h-6.993zm14.119-14.136h6.993v6.993h-6.993zm7.214 7.133h6.993v6.993h-6.993zm-6.98 7.003h6.993v6.993h-6.993zm14.086-14.019h6.993v6.993h-6.993zm7.215 7.133h6.993v6.993h-6.993zm-6.98 7.003h6.993v6.993h-6.993zm14.119-14.136h6.993v6.993h-6.993zm7.214 7.133h6.993v6.993h-6.993zm-6.98 7.003h6.993v6.993h-6.993zm14.119-14.136h6.993v6.993h-6.993zm7.215 7.133h6.993v6.993h-6.993zm-6.981 7.003h6.993v6.993h-6.993zm14.119-14.136h6.993v6.993h-6.993zm7.215 7.133h6.993v6.993h-6.993zm-6.98 7.003h6.993v6.993h-6.993zm7.214 7.133h6.993v6.37h6.577v6.993h-6.993v-6.37h-6.577zm13.792 13.502h6.993v6.993h-6.993zm-6.98 7.004h6.993v6.993h-6.993zm7.214 7.132h6.993v6.993h-6.993zm13.898-21.268v6.993h-6.993v-6.487h-5.914v-6.993h6.993v6.487zm.221 7.132h6.993v6.993h-6.993zm-6.98 7.004h6.993v6.993h-6.993zm7.214 7.132h6.993v6.839h6.439v6.993h-6.993v-6.839h-6.439zm13.898-21.268v6.993h-6.993v-6.487h-5.913v-6.993h6.993v6.487zm.222 7.132h6.993v6.993h-6.993zm-6.981 7.004h6.993v6.993h-6.993zm7.215 7.132h6.993v6.993h-6.993zm13.897-21.268v6.993h-6.993v-6.487h-5.913v-6.993h6.993v6.487zm.222 7.132h6.993v6.993h-6.993zm-6.98 7.004h6.993v6.993h-6.993zm7.214 7.132h6.993v6.839h6.846v6.993h-6.993v-6.839h-6.846zm13.865-21.151v6.993h-6.993v-6.604h-5.881v-6.993h6.993v6.604zm.222 7.132h6.993v6.993h-6.993zm-6.981 7.004h6.993v6.993h-6.993zm7.215 7.132h6.993v6.993h-6.993zm13.897-21.268v6.993h-6.993v-6.487h-5.913v-6.993h6.993v6.487zm.222 7.132h6.993v6.993h-6.993zm-6.98 7.004h6.993v6.993h-6.993zm7.214 7.132h6.993v6.993h-6.993zm13.898-21.268v6.993h-6.993v-6.487h-5.914v-6.993h6.993v6.487zm.221 7.132h6.993v6.993h-6.993zm-6.98 7.004h6.993v6.993h-6.993zm7.214 7.132h6.993v6.993h-6.993zm13.898-21.268v6.993h-6.993v-6.487h-5.913v-6.993h6.993v6.487zm.222 7.132h6.993v6.993h-6.993zm-6.981 7.004h6.993v6.993h-6.993zm7.215 7.132h6.993v6.993h-6.993zm14.005-21.385v6.993h-6.993v-6.37h-6.021v-6.993h6.993v6.37zm.221 7.132h6.993v6.993h-6.993zm-6.98 7.004h6.993v6.993h-6.993zm7.214 7.132h6.993v6.993h-6.993zm13.898-21.268v6.993h-6.993v-6.487h-5.913v-6.993h6.993v6.487zm.221 7.132h6.993v6.993h-6.993zm-6.98 7.004h6.993v6.993h-6.993zm7.215 7.132h6.993v6.993h-6.993zm13.897-21.268v6.993h-6.993v-6.487h-5.913v-6.993h6.993v6.487zm.222 7.132h6.993v6.993h-6.993zm-6.981 7.004h6.993v6.993h-6.993zm7.215 7.132h6.993v6.993h-6.993zm13.897-21.268v6.993h-6.993v-6.487h-5.913v-6.993h6.993v6.487zm.222 7.132h6.993v6.993h-6.993zm-6.98 7.004h6.993v6.993h-6.993zm7.214 7.132h6.993v6.993h-6.993zm13.865-21.151v6.993h-6.993v-6.604h-5.88v-6.993h6.993v6.604zm.222 7.132h6.993v6.993h-6.993zm-6.981 7.004h6.993v6.993h-6.993zm7.215 7.132h6.993v6.993h-6.993zm13.897-21.268v6.993h-6.993v-6.487h-5.913v-6.993h6.993v6.487zm.222 7.132h6.993v6.993h-6.993zm-6.98 7.004h6.993v6.993h-6.993zm7.214 7.132h6.993v6.993h-6.993zm13.898-21.268v6.993h-6.993v-6.487h-5.913v-6.993h6.993v6.487zm.221 7.132h6.993v6.993h-6.993zm-6.98 7.004h6.993v6.993h-6.993zm7.215 7.132h6.993v6.993h-6.993zm13.897-21.268v6.993h-6.993v-6.487h-5.913v-6.993h6.993v6.487zm.222 7.132h6.993v6.993h-6.993zm-6.981 7.004h6.993v6.993h-6.993zm7.215 7.132h6.993v6.993h-6.993zM251.04 202.247h6.993v6.993h-6.993zm7.214 7.133h6.993v6.993h-6.993zm-6.98 7.003h6.993v6.993h-6.993zm14.119-14.136h6.993v6.993h-6.993zm7.215 7.133h6.993v6.993h-6.993zm-6.981 7.003h6.993v6.993h-6.993zm14.119-14.136h6.993v6.993h-6.993zm7.215 7.133h6.993v6.993h-6.993zm-6.98 7.003h6.993v6.993h-6.993zm14.119-14.136h6.993v6.993H294.1zm7.214 7.133h6.993v6.993h-6.993zm-6.98 7.003h6.993v6.993h-6.993zm14.086-14.019h6.993v6.993h-6.993zm7.215 7.133h6.993v6.993h-6.993zm-6.98 7.003h6.993v6.993h-6.993zm14.119-14.136h6.993v6.993h-6.993zm7.214 7.133h6.993v6.993h-6.993zm-6.98 7.003h6.993v6.993h-6.993zm14.119-14.136h6.993v6.993h-6.993zm7.214 7.133h6.993v6.993h-6.993zm-6.98 7.003h6.993v6.993h-6.993zm14.119-14.136h6.993v6.993h-6.993zm7.215 7.133h6.993v6.993h-6.993zm-6.981 7.003h6.993v6.993h-6.993zm14.227-14.253h6.993v6.993h-6.993zm7.214 7.133h6.993v6.993h-6.993zm-6.98 7.003h6.993v6.993h-6.993zm14.119-14.136h6.993v6.993h-6.993zm7.215 7.133h6.993v6.993h-6.993zm-6.981 7.003h6.993v6.993h-6.993zm14.119-14.136h6.993v6.993h-6.993zm7.215 7.133h6.993v6.993h-6.993zm-6.98 7.003h6.993v6.993h-6.993zm14.119-14.136h6.993v6.993h-6.993zm7.214 7.133h6.993v6.993h-6.993zm-6.98 7.003h6.993v6.993h-6.993zm14.086-14.019h6.993v6.993h-6.993zm7.215 7.133h6.993v6.993h-6.993zm-6.98 7.003h6.993v6.993h-6.993zm14.119-14.136h6.993v6.993h-6.993zm7.214 7.133h6.993v6.993h-6.993zm-6.98 7.003h6.993v6.993h-6.993zm14.119-14.136h6.993v6.993h-6.993zm7.215 7.133h6.993v6.993h-6.993zm-6.981 7.003h6.993v6.993h-6.993zm14.119-14.136h6.993v6.993h-6.993zm7.215 7.133h6.993v6.993h-6.993zm-6.98 7.003h6.993v6.993h-6.993zm-444.02 70.231h6.993v6.993h-6.993zm6.286 21.268h6.993v6.993h-6.993zm14.119-14.136h6.993v6.993h-6.993zm-6.98 7.004h6.993v6.993h-6.993zm14.119-14.136h6.993v6.993H50.14zm-27.715-27.756h6.993v6.993h-6.993zm7.449 21.268h6.993v6.993h-6.993zm14.119-14.136h6.993v6.993h-6.993zm-6.981 7.004h6.993v6.993h-6.993zm14.119-14.136h6.993v6.993h-6.993zm7.449 21.268h6.993v6.993H58.58zm14.12-14.136h6.993v6.993H72.7zm-6.981 7.004h6.993v6.993h-6.993zm14.086-14.019h6.993v6.993h-6.993zm-22.216 48.907h6.993v6.993h-6.993zm14.119-14.136h6.993v6.993h-6.993zm-6.98 7.004h6.993v6.993h-6.993zm14.086-14.019h6.993v6.993h-6.993zm7.278-6.488h6.993v6.993h-6.993zm14.119-14.136h6.993v6.993h-6.993zm-6.98 7.004h6.993v6.993h-6.993zm14.119-14.136h6.993v6.993h-6.993zm-78.867 77.47h6.993v6.993h-6.993zm14.119-14.136h6.993v6.993h-6.993zm-6.98 7.003h6.993v6.993h-6.993zm14.119-14.136h6.993v6.993h-6.993zm35.326-7.948h6.993v6.993h-6.993zm14.119-14.137h6.993v6.993h-6.993zm-6.98 7.005h6.993v6.993h-6.993zm14.086-14.019h6.993v6.993h-6.993zm7.278-6.488h6.993v6.993h-6.993zm14.119-14.136h6.993v6.993h-6.993zm-6.98 7.004h6.993v6.993h-6.993zm14.119-14.137h6.993v6.993h-6.993zm-86.469 84.377h6.993v6.993h-6.993zm7.602-6.906h6.993v6.993h-6.993zm14.119-14.136h6.993v6.993H70.08zm-6.98 7.003h6.993v6.993H63.1zm14.119-14.136h6.993v6.993h-6.993zm36.635-7.294h6.993v6.993h-6.993zm14.119-14.136h6.993v6.993h-6.993zm-6.98 7.004h6.993v6.993h-6.993zm14.086-14.019h6.993v6.993h-6.993zm7.278-6.488h6.993v6.993h-6.993zm14.119-14.136h6.993v6.993h-6.993zm-6.98 7.004h6.993v6.993h-6.993zm14.119-14.136h6.993v6.993h-6.993zm-86.469 84.377h6.993v6.993h-6.993zm7.602-6.907h6.993v6.993h-6.993zm14.119-14.136h6.993v6.993h-6.993zm-6.98 7.003h6.993v6.993h-6.993zm14.119-14.136h6.993v6.993h-6.993zm36.962-7.294h6.993v6.993h-6.993zm14.119-14.136h6.993v6.993h-6.993zm-6.98 7.004h6.993v6.993h-6.993zm14.086-14.019h6.993v6.993h-6.993zm7.277-6.488h6.993v6.993h-6.993zm14.12-14.136h6.993v6.993h-6.993zm-6.981 7.004h6.993v6.993h-6.993zm14.12-14.136h6.993v6.993h-6.993zm-86.47 84.377h6.993v6.993h-6.993zm7.603-6.907h6.993v6.993h-6.993zm14.119-14.136h6.993v6.993h-6.993zm-6.98 7.003h6.993v6.993h-6.993zm14.118-14.136h6.993v6.993h-6.993zm35.981-6.967h6.993v6.993H171.1zm14.12-14.136h6.993v6.993h-6.993zm-6.981 7.004h6.993v6.993h-6.993zm14.086-14.019h6.993v6.993h-6.993zm7.278-6.488h6.993v6.993h-6.993zm14.119-14.136h6.993v6.993h-6.993zm-6.98 7.004h6.993v6.993h-6.993zm14.119-14.136h6.993v6.993h-6.993zm-86.469 84.377h6.993v6.993h-6.993zm7.602-6.907h6.993v6.993h-6.993zm14.119-14.136h6.993v6.993h-6.993zm-6.98 7.003h6.993v6.993h-6.993zm14.119-14.136h6.993v6.993h-6.993zm36.489-7.948h6.993v6.993h-6.993zm14.12-14.137h6.993v6.993h-6.993zm-6.981 7.005h6.993v6.993h-6.993zm14.086-14.019h6.993v6.993h-6.993zm7.278-6.488h6.993v6.993h-6.993zm14.119-14.136h6.993v6.993h-6.993zm-6.98 7.004h6.993v6.993h-6.993zm14.119-14.137h6.993v6.993h-6.993zm-86.469 84.377h6.993v6.993h-6.993zm7.602-6.906h6.993v6.993h-6.993zm14.119-14.136h6.993v6.993h-6.993zm-6.98 7.003h6.993v6.993h-6.993zm14.119-14.136h6.993v6.993h-6.993zm36.635-7.294h6.993v6.993h-6.993zm14.119-14.137h6.993v6.993h-6.993zm-6.98 7.005h6.993v6.993h-6.993zm14.086-14.019h6.993v6.993h-6.993zm7.277-6.488h6.993v6.993h-6.993zm14.12-14.136h6.993v6.993h-6.993zm-6.981 7.004h6.993v6.993h-6.993zm-72.35 70.24h6.993v6.993h-6.993zm7.603-6.906h6.993v6.993h-6.993zm14.119-14.136h6.993v6.993h-6.993zm-6.98 7.003h6.993v6.993h-6.993zm14.119-14.136h6.993v6.993h-6.993zm36.962-7.294h6.993v6.993h-6.993zm14.119-14.137h6.993v6.993h-6.993zm-6.98 7.005h6.993v6.993h-6.993zm14.086-14.019h6.993v6.993h-6.993zm7.277-6.488h6.993v6.993h-6.993zm14.12-14.136h6.993v6.993h-6.993zm-6.981 7.004h6.993v6.993h-6.993zm-72.35 70.24h6.993v6.993h-6.993zm7.603-6.906h6.993v6.993h-6.993zm14.119-14.136h6.993v6.993h-6.993zm-6.98 7.003h6.993v6.993h-6.993zm14.119-14.136h6.993v6.993h-6.993zm37.024-6.211h6.993v6.993h-6.993zm14.119-14.136h6.993v6.993h-6.993zm-6.98 7.004h6.993v6.993h-6.993zm14.086-14.019h6.993v6.993h-6.993zm7.278-6.487h6.993v6.993h-6.993zm14.119-14.136h6.993v6.993h-6.993zm-6.98 7.003h6.993v6.993h-6.993zm14.119-14.136h6.993v6.993h-6.993zm-86.469 84.377h6.993v6.993h-6.993zm7.602-6.907h6.993v6.993h-6.993zm14.119-14.136h6.993v6.993h-6.993zm-6.98 7.004h6.993v6.993h-6.993zm14.119-14.136h6.993v6.993h-6.993zm36.489-7.949h6.993v6.993h-6.993zm14.119-14.136h6.993v6.993h-6.993zm-6.98 7.004h6.993v6.993h-6.993zm14.086-14.019h6.993v6.993h-6.993zm7.278-6.487h6.993v6.993h-6.993zm14.119-14.137h6.993v6.993h-6.993zm-6.98 7.004h6.993v6.993h-6.993zm14.119-14.136h6.993v6.993h-6.993zm-86.469 84.377h6.993v6.993h-6.993zm7.602-6.907h6.993v6.993h-6.993zm14.119-14.136h6.993v6.993h-6.993zm-6.98 7.004h6.993v6.993h-6.993zm14.119-14.136h6.993v6.993h-6.993zm36.635-7.295h6.993v6.993h-6.993zm14.119-14.136h6.993v6.993h-6.993zm-6.981 7.004h6.993v6.993h-6.993zm14.087-14.019h6.993v6.993h-6.993zm7.277-6.487h6.993v6.993h-6.993zm20.371 34.932h6.993v6.993h-6.993zM379 328.877h6.993v6.993H379zm6.98-7.003h6.993v6.993h-6.993zm-14.118 14.136h6.993v6.993h-6.993zm-7.603 6.907h6.993v6.993h-6.993zm86.469-84.377h6.993v6.993h-6.993zm-14.119 14.136h6.993v6.993h-6.993zm6.98-7.004h6.993v6.993h-6.993zm-14.119 14.136h6.993v6.993h-6.993zm-7.278 6.488h6.993v6.993h-6.993zm-14.086 14.019h6.993v6.993h-6.993zm6.981-7.004h6.993v6.993h-6.993zm-14.12 14.136h6.993v6.993h-6.993zm-35.456 7.295h6.993v6.993h-6.993zm-14.118 14.136h6.993v6.993h-6.993zm6.979-7.004h6.993v6.993h-6.993zm-14.118 14.136h6.993v6.993h-6.993zm-7.603 6.907h6.993v6.993h-6.993zm86.469-84.377h6.993v6.993h-6.993zm-14.119 14.136h6.993v6.993h-6.993zm6.981-7.004h6.993v6.993h-6.993zm-14.12 14.137h6.993v6.993h-6.993zm-7.277 6.487h6.993v6.993h-6.993zm-14.087 14.019h6.993v6.993h-6.993zm6.981-7.004h6.993v6.993h-6.993zm-14.12 14.136h6.993v6.993h-6.993zm-36.962 7.295h6.993v6.993h-6.993zm-14.118 14.136h6.993v6.993h-6.993zm6.98-7.004h6.993v6.993h-6.993zM315.14 336.01h6.993v6.993h-6.993zm-7.603 6.907h6.993v6.993h-6.993zm86.47-84.377H401v6.993h-6.993zm-14.12 14.136h6.993v6.993h-6.993zm6.981-7.004h6.993v6.993h-6.993zm44.376 41.775h6.993v6.993h-6.993zm14.119-14.136h6.993v6.993h-6.993zm-6.98 7.004h6.993v6.993h-6.993zm14.086-14.019h6.993v6.993h-6.993zm7.278-6.488h6.993v6.993h-6.993zm7.139-7.132h6.993v6.993h-6.993zm-72.35 70.241h6.993v6.993h-6.993zm7.602-6.907h6.993v6.993h-6.993zm14.119-14.136h6.993v6.993h-6.993zm-6.98 7.003h6.993v6.993h-6.993zm14.119-14.136h6.993v6.993h-6.993zm38.775-6.301h6.993v6.993h-6.993zm7.139-7.132h6.993v6.993h-6.993zm-43.847 42.602h6.993v6.993h-6.993zm7.603-6.907h6.993v6.993h-6.993zm14.118-14.136h6.993v6.993h-6.993zm-6.979 7.004h6.993v6.993h-6.993zm14.118-14.137h6.993v6.993h-6.993zm5.057 28.176h6.993v6.993h-6.993zm7.603-6.907h6.993v6.993h-6.993z"/></symbol><symbol viewBox="0 0 500 500" fill="currentColor" id="heatmap" xmlns="http://www.w3.org/2000/svg"><path d="M341.241 357.589l-3.081 3.094-5.298-5.276-8.345 8.187 4.838 4.818c-1.252.82-2.514 1.618-3.788 2.393l-4.168-4.151-7.831 7.683 2.021 2.013a139.896 139.896 0 01-4.169 2.014l-.971-.967-103.458 101.505a231.35 231.35 0 01-8.384-1.748l95.409-93.608-14.087-14.031-7.833 7.685 10.846 10.802c-1.707.382-3.419.73-5.138 1.048l-8.826-8.791-8.27 8.114 2.597 2.586c-1.856.146-3.714.259-5.574.334l-81.192 79.66c-2.5-.839-4.988-1.722-7.464-2.649l83.47-81.895-11.962-11.914-7.832 7.685 8.884 8.848a144.073 144.073 0 01-6.861-.67l-5.14-5.12-77.429 75.967a224.681 224.681 0 01-6.784-3.317l79.168-77.674-13.378-13.324-8.27 8.113 11.347 11.302a141.157 141.157 0 01-9.019-2.817l-5.447-5.425-71.509 70.159a234.713 234.713 0 01-6.131-3.957l72.596-71.226-12.67-12.619-7.831 7.684.113.113-.137-.09-65.442 64.207-4.986-5.082 64.487-63.27a142.136 142.136 0 01-14.482-12.241l-63.228 62.034-4.986-5.082 63.217-62.024a142.139 142.139 0 01-11.426-13.84l-64.314 63.1-4.985-5.081 72.818-71.443-13.499-13.445-71.748 70.394a230.086 230.086 0 01-3.83-6.216l70.534-69.202-3.616-3.601a140.528 140.528 0 01-2.852-9.007l9.587 9.548 8.27-8.114-12.671-12.619L43 353.77a229.79 229.79 0 01-3.202-6.831l76.259-74.82-4.279-4.262a143.609 143.609 0 01-.698-6.859l8.095 8.062 7.832-7.684-13.379-13.324-81.374 79.838a227.952 227.952 0 01-2.463-7.557l81.176-79.643c.03-.454.062-.906.096-1.359l.639.637 8.27-8.114-7.058-7.03c.31-1.72.651-3.434 1.026-5.143l9.151 9.114 7.832-7.685-12.67-12.619-93.626 91.858a231.593 231.593 0 01-1.61-8.394l101.579-99.661-1.134-1.13a142.3 142.3 0 011.998-4.176l2.255 2.246 7.831-7.684-4.583-4.564a143.847 143.847 0 012.379-3.797l5.323 5.301 8.344-8.186-6.802-6.775c.896-1.154 1.81-2.297 2.745-3.429l7.174 7.145 7.833-7.685-7.683-7.652a133.736 133.736 0 013.08-3.098l7.722 7.691 8.269-8.114-7.364-7.334a146.851 146.851 0 013.429-2.751l7.054 7.025 7.832-7.684-5.839-5.815a143.822 143.822 0 013.781-2.4l5.176 5.156 8.27-8.114-2.906-2.894c1.384-.691 2.777-1.36 4.178-2.004l1.846 1.839 98.949-97.081c2.796.538 5.584 1.127 8.362 1.77l-91.753 90.021 12.67 12.619 8.708-8.544L221.503 112c1.712-.376 3.43-.721 5.151-1.032l8.203 8.17 7.833-7.685-2.301-2.292c1.654-.136 3.308-.243 4.963-.32l76.645-75.198c2.515.824 5.018 1.693 7.508 2.607l-78.652 77.168 13.378 13.324 8.27-8.114-9.561-9.523c2.302.177 4.6.41 6.893.701l5.786 5.763 72.788-71.414a229.2 229.2 0 016.769 3.332l-74.512 73.106 12.67 12.619 7.832-7.684-11.928-11.88c3.011.817 5.999 1.738 8.961 2.758l6.086 6.061 67.088-65.821a233.208 233.208 0 016.141 3.948l-68.185 66.898 13.499 13.444 70.3-68.973a231.387 231.387 0 015.537 4.54l-61.697 60.532a142.523 142.523 0 0113.622 11.686l61.288-60.131c.873.862 1.742 1.733 2.604 2.613.802.817 1.598 1.639 2.385 2.466l-61.299 60.142a142.093 142.093 0 0111.965 14.711l61.814-60.647a236.542 236.542 0 014.417 5.639l-69.754 68.438 12.67 12.619 67.465-66.192a231.552 231.552 0 013.841 6.206l-66.262 65.01 3.748 3.733a140.886 140.886 0 012.795 8.949l-9.661-9.622-7.832 7.684 13.378 13.325 73.172-71.791a229.043 229.043 0 013.187 6.847l-71.314 69.968 2.991 2.979c.299 2.29.541 4.588.728 6.89l-6.837-6.81-8.27 8.114 11.961 11.913 77.517-76.053c.88 2.493 1.715 4.998 2.506 7.514l-76.66 75.213c-.053.887-.114 1.773-.184 2.659l-1.254-1.249-7.832 7.685 7.336 7.306a135.62 135.62 0 01-1.012 5.156l-9.441-9.404-8.708 8.544 14.087 14.031 89.447-87.759a230.313 230.313 0 011.588 8.415l-96.503 94.682.073.073c-.637 1.404-1.3 2.801-1.986 4.187l-1.206-1.201-8.269 8.114 3.666 3.651a143.712 143.712 0 01-2.385 3.79l-4.399-4.382-7.832 7.684 5.006 4.986-3.083 3.096-5.042-5.022-8.269 8.113 5.136 5.116-3.083 3.096-5.172-5.151-7.833 7.684zm-78.333-71.854a35.54 35.54 0 01-6.19 1.484l-4.476 4.391 12.67 12.619 8.345-8.187zm-22.699.056a35.73 35.73 0 01-12.132-6.896l-5.208 5.109 13.379 13.325 7.831-7.683zm-22.677-22.585l-4.547-4.528-7.831 7.683 12.671 12.619 5.352-5.251a35.72 35.72 0 01-5.645-10.523zm-.035-22.699l-11.591-11.544-8.345 8.187 13.499 13.444 5.166-5.068a35.49 35.49 0 011.271-5.019zm1.788-4.383a35.932 35.932 0 016.382-9.129l-8.811-8.776-7.832 7.685zm9.599-12.091a35.752 35.752 0 0110.469-5.922l-11.109-11.064-8.269 8.113zm15.294-7.283a34.952 34.952 0 011.691-.307l6.824-6.696-13.498-13.445-7.832 7.684zm15.827.279l-2.268-2.259-1.57 1.541c1.302.171 2.583.411 3.838.718zm10.941 4.731a35.897 35.897 0 012.99 2.168l7.86-7.711-12.671-12.62-8.269 8.114zm10.493 10.451l10.51 10.468 8.27-8.113-13.379-13.325-7.831 7.684a36.047 36.047 0 012.43 3.286zm4.776 10.922c.355 1.43.625 2.893.803 4.385l1.813-1.78zm.341 15.824l12.158 12.108 7.831-7.684-12.67-12.619-7.09 6.957c-.069.415-.146.828-.229 1.238zm-1.34 4.832a35.745 35.745 0 01-5.88 10.493l7.989 7.957 8.27-8.113zm-8.83 13.721a35.839 35.839 0 01-9.103 6.419l9.091 9.054 7.832-7.684zm134.992 139.493a231.615 231.615 0 01-33.808 27.461l61.909-60.74a231.705 231.705 0 01-28.101 33.279zM88.682 88.098a231.416 231.416 0 0136.28-29.084l-66.05 64.803a231.419 231.419 0 0129.77-35.719zm101.523-58.073L28.685 188.496a229.638 229.638 0 014.76-14.643L175.474 34.505a230.126 230.126 0 0114.731-4.48zm44.63-7.363L20.473 232.978a230.21 230.21 0 011.221-11.171L223.643 23.67a230.65 230.65 0 0111.192-1.008zm35.312.378L20.178 268.29a231.48 231.48 0 01-.451-9.53l240.9-236.353c3.176.147 6.35.357 9.52.633zm210.17 222.718L238.85 482.667a233.87 233.87 0 01-9.497-.655L479.844 236.25c.223 3.167.38 6.336.473 9.508zm-2.077 38.462L277.345 481.323c-3.74.444-7.488.796-11.242 1.057L479.511 273a230.09 230.09 0 01-1.271 11.22zm-11.292 46.102l-143.294 140.59a230.181 230.181 0 01-14.637 4.387l162.596-159.527a229.23 229.23 0 01-4.665 14.55zm-139.13 20.06l-14.088-14.03-8.345 8.187 14.088 14.031zm-19.132-19.054l-11.962-11.913-8.344 8.186 11.962 11.914zM291.68 314.39l-13.379-13.324-8.344 8.187 13.378 13.324zm24.674 47.239l-14.087-14.03-7.831 7.683 14.087 14.031zm-19.131-19.054l-11.962-11.914-7.831 7.684 11.962 11.913zm-17.007-16.938l-13.378-13.324-7.831 7.683 13.378 13.325zm-18.422-18.348l-12.67-12.619-7.832 7.683 12.67 12.619zm-53.853-53.635l-13.498-13.444-7.831 7.683 13.498 13.444zm-18.543-18.468l-12.67-12.62-7.831 7.684 12.67 12.619zm-17.714-17.643l-13.379-13.325-7.831 7.683 13.379 13.325zm-18.423-18.349l-12.67-12.619-7.831 7.683 12.67 12.619zm-9.551-15.679l12.67 12.619 8.344-8.187-12.67-12.619zm17.714 17.643l13.379 13.325 8.344-8.187-13.378-13.325zm18.423 18.349l12.67 12.619 8.344-8.187-12.67-12.619zm-24.676-47.237l12.67 12.619 7.833-7.685-12.67-12.619zm17.715 17.643l13.378 13.324 7.833-7.685-13.378-13.324zm18.423 18.348l12.67 12.619 7.832-7.685-12.67-12.619zm-25.186-46.736l12.67 12.619 8.269-8.113-12.67-12.619zm17.714 17.643l13.379 13.325 8.269-8.114-13.379-13.324zm18.423 18.348l12.67 12.62 8.269-8.114-12.67-12.619zm-24.749-47.164l12.67 12.619 7.832-7.684-12.67-12.619zm17.714 17.643l13.379 13.324 7.832-7.684-13.379-13.324zm18.423 18.348l12.67 12.619 7.832-7.684-12.67-12.619zm-25.187-46.735l12.67 12.619 8.27-8.113-12.67-12.619zm17.715 17.643l13.378 13.325 8.27-8.114-13.379-13.324zm18.423 18.349l12.67 12.619 8.269-8.114-12.67-12.619zm17.714 17.643l13.499 13.444 8.269-8.113-13.498-13.445zm54.681 54.46l12.67 12.619 8.269-8.114-12.67-12.618zm17.714 17.643l13.379 13.325 8.269-8.114-13.378-13.324zm18.423 18.349l11.962 11.913 8.27-8.113-11.962-11.914zm17.006 16.937l14.088 14.031 8.269-8.114-14.087-14.03zm10.969 17.09l-14.087-14.03-7.832 7.683 14.087 14.031zm-19.131-19.054l-11.962-11.914-7.832 7.684 11.962 11.914zm-17.007-16.938l-13.378-13.324-7.832 7.684 13.379 13.324zm25.187 46.736l-14.087-14.03-8.269 8.113 14.087 14.03zm-19.131-19.054l-11.962-11.914-8.269 8.114 11.962 11.913zm-17.006-16.938l-13.379-13.324-8.269 8.113 13.378 13.324zm24.749 47.165l-14.087-14.03-7.833 7.685 14.088 14.03zm-19.131-19.054l-11.962-11.913-7.833 7.684 11.962 11.914zm-17.007-16.938l-13.378-13.324-7.833 7.684 13.379 13.325zm64.606-134.833l-13.378-13.324-8.27 8.113 13.378 13.325zm-18.423-18.349l-12.67-12.619-8.27 8.114 12.67 12.619zM138.138 332.111l12.671 12.62 7.831-7.684-12.67-12.619zm17.716 17.644l13.378 13.325 7.831-7.684-13.378-13.324zM130.546 302.9l13.499 13.445 8.27-8.114-13.499-13.445zm18.543 18.468l12.67 12.619 8.27-8.113-12.67-12.62zm17.715 17.644l13.378 13.324 8.27-8.114-13.378-13.324zm18.423 18.349l12.67 12.619 8.27-8.114-12.67-12.619zm-61.008-83.277l12.67 12.619 7.832-7.684-12.67-12.619zm17.715 17.644l13.498 13.444 7.832-7.684-13.498-13.445zm18.542 18.467l12.67 12.62 7.833-7.684-12.671-12.62zm17.715 17.644l13.379 13.325 7.832-7.684-13.379-13.325zm18.423 18.349l12.67 12.619 7.832-7.684-12.67-12.619zm17.714 17.643l13.379 13.325 7.832-7.685-13.379-13.324zm-97.581-118.839l13.378 13.325 8.27-8.114-13.378-13.325zm18.423 18.348l12.67 12.619 8.27-8.113-12.671-12.619zm17.714 17.644l13.499 13.444 8.27-8.114-13.499-13.444zm18.543 18.467l12.67 12.62 8.27-8.114-12.67-12.619zm17.715 17.644l13.378 13.325 8.27-8.114-13.378-13.324zm18.423 18.349l12.67 12.619 8.27-8.114-12.67-12.619zm17.714 17.643l13.379 13.324 8.269-8.113-13.378-13.325zm18.423 18.348l11.962 11.914 8.27-8.113-11.962-11.914zM128.135 233.819l13.379 13.324 7.832-7.684-13.378-13.325zm18.423 18.348l12.67 12.619 7.832-7.684-12.67-12.62zm17.714 17.644l13.499 13.444 7.833-7.685-13.499-13.444zm18.543 18.467l12.67 12.62 7.833-7.685-12.67-12.619zm17.715 17.644l13.378 13.325 7.833-7.685-13.378-13.325zm18.423 18.349l12.67 12.619 7.833-7.685-12.67-12.619zm17.714 17.643l13.379 13.324 7.832-7.684-13.378-13.325zm18.423 18.348l11.962 11.914 7.833-7.685-11.962-11.913zm-133.719-154.83l12.67 12.619 8.27-8.114-12.67-12.619zm17.714 17.643l13.379 13.325 8.27-8.114-13.378-13.325zm18.423 18.349l12.67 12.619 8.27-8.114-12.67-12.619zm17.715 17.643l13.498 13.444 8.271-8.114-13.499-13.444zm18.542 18.468l12.671 12.619 8.27-8.114-12.671-12.619zm17.715 17.643l13.379 13.325 8.27-8.114-13.378-13.325zm18.423 18.349l12.67 12.619 8.271-8.114-12.67-12.619zm17.715 17.643l13.378 13.325 8.27-8.115-13.378-13.324zm18.423 18.349l11.962 11.913 8.27-8.114-11.962-11.913zm17.006 16.937l14.087 14.031 8.27-8.114-14.087-14.031zm-83.198-238.021l12.67 12.619 7.395-7.255-12.67-12.619zm17.715 17.643l13.378 13.325 7.395-7.255-13.379-13.325zm18.422 18.349l12.67 12.619 7.395-7.255-12.67-12.619zm17.715 17.643l13.499 13.444 7.395-7.255-13.499-13.444zm18.543 18.468l12.67 12.619 7.395-7.255-12.671-12.619zm17.715 17.644l13.378 13.324 7.395-7.255-13.378-13.325zm18.422 18.348l12.671 12.619 7.395-7.255-12.671-12.619zm17.715 17.643l13.378 13.325 7.396-7.256-13.379-13.324zm18.423 18.349l11.962 11.914 7.395-7.256-11.962-11.913zm17.006 16.937l14.087 14.031 7.395-7.256-14.087-14.03zM228.076 135.764l13.379 13.325 8.708-8.544-13.378-13.325zm18.423 18.349l12.67 12.619 8.708-8.544-12.67-12.619zm17.715 17.643l13.498 13.444 8.709-8.544-13.499-13.444zm18.542 18.468l12.671 12.619 8.708-8.544-12.671-12.619zm17.715 17.643l13.379 13.325 8.708-8.544-13.378-13.324zm18.423 18.349l12.67 12.619 8.708-8.544-12.67-12.619zm17.715 17.643l13.378 13.325 8.708-8.544-13.378-13.324zm18.423 18.349l11.962 11.913 8.707-8.543-11.961-11.914zm-115.13-138.046l13.378 13.325 7.833-7.686-13.378-13.324zm18.422 18.348l12.67 12.62 7.833-7.685-12.67-12.62zm17.715 17.644l13.499 13.444 7.832-7.685-13.498-13.444zm18.543 18.468l12.67 12.619 7.833-7.685-12.671-12.619zm17.715 17.643l13.378 13.325 7.833-7.685-13.379-13.325zm18.423 18.349l12.67 12.619 7.832-7.685-12.67-12.619zm17.714 17.643l13.379 13.324 7.832-7.684-13.378-13.325zm18.423 18.348l11.962 11.914 7.832-7.684-11.961-11.914zm-97.582-118.839l12.671 12.619 8.27-8.114-12.67-12.619zm17.715 17.643l13.499 13.445 8.27-8.115-13.499-13.444zm18.543 18.468l12.67 12.619 8.27-8.114-12.67-12.619zm17.715 17.644l13.378 13.324 8.271-8.114-13.379-13.324zm18.423 18.348l12.67 12.619 8.27-8.114-12.67-12.619zm17.715 17.643l13.378 13.325 8.27-8.114-13.378-13.324zm-61.008-83.276l13.499 13.444 7.832-7.684-13.499-13.444zm18.543 18.468l12.67 12.619 7.833-7.684-12.671-12.619zm17.715 17.644l13.379 13.324 7.832-7.684-13.379-13.325zm18.423 18.348l12.67 12.619 7.832-7.684-12.67-12.619z" stroke="#000"/></symbol><symbol viewBox="0 0 500 500" fill="currentColor" id="invert" xmlns="http://www.w3.org/2000/svg"><path d="M319.426 17.868l.063-.014c2.754-.594 3.695.339 6.168 2.922 2.401 2.506 3.3 3.83 2.785 6.811l-.012.067v105.481l-144.982.003c-7.118.428-15.427 4.305-20.291 8.968-4.474 5.109-7.955 13.82-8.352 21.228V343.16l-133.303.013-.063.013c-2.753.594-3.694-.339-6.168-2.922-2.399-2.506-3.3-3.828-2.783-6.81l.009-.067-.009-306.102-.013-.065c-.57-2.877.323-3.86 2.796-6.444 2.399-2.506 3.665-3.446 6.519-2.908l.064.011 297.572-.011z" paint-order="fill"/><path d="M182.729 143.286h281.742c10.054 0 18.202 8.514 18.202 19.021v289.807c0 10.502-8.148 19.017-18.202 19.017H182.729c-10.054 0-18.204-8.515-18.204-19.017V162.307c0-10.507 8.15-19.021 18.204-19.021zM465.17 155.66l-282.775.013-.287-.053c-.917-.289-1.231-.289-1.681-.044-.525.288-1.084.886-2.189 2.037-1.197 1.252-1.824 1.822-2.088 2.286-.192.334-.211.306.107 1.149l.027.075.035.19.051.262.011 290.889-.05.3c-.277.954-.277 1.287-.043 1.755.273.549.847 1.133 1.95 2.286 1.2 1.251 1.743 1.904 2.189 2.181.32.201.293.222 1.1-.111l.068-.028.185-.037.249-.052 282.778-.012.286.052c.915.29 1.231.29 1.68.044.525-.287 1.084-.885 2.189-2.037 1.196-1.252 1.823-1.822 2.089-2.286.19-.333.21-.306-.107-1.149l-.029-.073-.034-.191-.05-.262-.011-290.888.05-.301c.276-.956.276-1.284.043-1.756-.276-.548-.848-1.133-1.951-2.286-1.198-1.251-1.742-1.904-2.189-2.181-.32-.198-.293-.222-1.1.11l-.07.029-.183.039-.25.05z" paint-order="fill"/></symbol><symbol viewBox="14.951 9.638 458.7 458.7" fill="currentColor" id="segmentation" xmlns="http://www.w3.org/2000/svg"><path d="M142.633 82.981c8.449-1.367 18.034.092 26.082 3.478 8.381 3.526 17.821 11.697 23.039 17.822 4.217 4.951 3.241 12.285 7.824 15.215 5.168 3.303 16.057-.682 23.039 1.739 6.915 2.396 14.546 8.81 18.692 12.606 2.91 2.663 2.318 6.765 5.651 7.39 5.186.972 17.445-8.428 26.082-10.433 8.165-1.896 16.107-3.342 24.343-1.739 8.984 1.749 21.142 7.512 27.386 13.041 5.148 4.558 7.527 10.099 9.564 16.084 2.133 6.271 3.25 14.241 2.608 20.865-.62 6.394-2.531 11.628-6.086 18.258-4.504 8.4-21.094 21.252-20.865 27.82.164 4.744 6.786 7.748 11.736 9.999 5.619 2.553 14.744.962 20.866 3.477a40.952 40.952 0 0115.214 10.868c4.464 5.074 8.583 12.577 10.433 19.126 1.757 6.22 1.509 13.742.87 19.127-.528 4.441-4.019 6.831-3.478 11.302.723 5.984 8.84 14.237 11.302 21.735 2.395 7.295 3.627 15.768 3.478 22.604-.133 6.055-1.038 11.175-3.478 16.519-2.669 5.846-8.221 12.864-12.606 16.953-3.641 3.395-6.747 5.248-11.302 6.955-5.307 1.989-13.136 3.571-19.127 3.478-5.546-.086-10.541-1.122-15.649-3.478-5.638-2.599-10.417-9.564-16.519-12.171-6.075-2.596-14.673-1.413-19.996-3.478-4.39-1.702-5.82-5.945-10.433-6.955-5.941-1.301-16.993 3.217-23.473 2.608-5.219-.49-8.709-1.915-13.041-4.347-4.946-2.776-8.831-10.336-14.78-12.171-6.365-1.964-15.143 3.439-22.604 1.739-8.055-1.836-18.404-8.003-23.909-13.476-4.679-4.652-3.85-12.899-8.694-16.084-5.326-3.502-16.015.269-23.039-2.608-7.213-2.954-14.957-9.32-19.561-15.215-4.214-5.395-6.45-11.362-7.825-18.257-1.533-7.688-1.094-17.86 0-26.082 1.04-7.817 7.686-16.669 6.086-22.169-1.376-4.729-8.861-5.936-12.172-9.999-3.391-4.16-6.208-9.17-7.824-14.779-1.768-6.138-2.51-12.371-1.739-20.866 1.037-11.418 10.26-31.226 10.433-42.6.13-8.554-5.245-14.003-5.217-20.866.028-6.754 2.66-14.624 5.217-19.996 2.166-4.551 3.983-7.493 8.259-10.867 5.699-4.498 16.551-10.77 25.213-12.172zM29.27 9.638h430.062c3.703.153 7.726 1.795 10.125 4.194s4.041 6.422 4.194 10.125v430.062c-.153 3.703-1.795 7.726-4.194 10.125s-6.422 4.041-10.125 4.194H29.27c-3.703-.153-7.726-1.795-10.125-4.194s-4.041-6.422-4.194-10.125V23.957c.153-3.703 1.795-7.726 4.194-10.125s6.422-4.041 10.125-4.194zm-5.175 9.144c-1.517 1.516-2.297 2.903-2.144 5.175v430.062c-.153 2.272.627 3.659 2.144 5.175 1.516 1.517 2.903 2.297 5.175 2.144h430.062c2.272.153 3.659-.627 5.175-2.144 1.517-1.516 2.297-2.903 2.144-5.175V23.957c.153-2.272-.627-3.659-2.144-5.175-1.516-1.517-2.903-2.297-5.175-2.144H29.27c-2.272-.153-3.659.627-5.175 2.144z"/></symbol><symbol viewBox="0 0 500 500" fill="currentColor" id="toggle-transparency" xmlns="http://www.w3.org/2000/svg"><path d="M29.171 20.365h441.558c2.477.083 5.073 1.205 6.731 2.794 1.589 1.658 2.711 4.269 2.794 6.747v441.558c-.083 2.478-1.205 5.073-2.794 6.73-1.659 1.59-4.269 2.712-6.748 2.794H29.155c-2.479-.082-5.074-1.204-6.73-2.794-1.59-1.658-2.712-4.269-2.794-6.747V29.89c.082-2.479 1.204-5.075 2.794-6.731 1.657-1.589 4.269-2.711 6.746-2.794zm-3.968 455.05c1.104 1.157 2.277 1.733 3.949 1.642h3.042L476.323 32.928v-3.022c.09-1.672-.486-2.865-1.643-3.968a5.918 5.918 0 00-1.305-1.059l-86.933 86.933h-1.818V24.295h-90.939v87.45h-90.122v-87.45h-90.984v87.41H23.56v90.198h89.882v-89.218h90.122v90.122h-89.198v92.142h88.939l-88.962 88.962v-86.182H23.56v87.142h88.005v1.818l-87.418 87.418c-.44-.764-.643-1.619-.587-2.66-.09 1.671.487 2.865 1.643 3.968zm269.345-362.69h90.122v.859l-89.263 89.263h-.859zm-89.182 91.023h89.14l-89.14 89.14zM25.203 25.938c1.104-1.156 2.297-1.733 3.968-1.643-1.671-.09-2.864.487-3.968 1.643z"/></symbol></svg>