<?xml version="1.0" encoding="utf-8"?><svg viewBox="0 0 500 500" xmlns="http://www.w3.org/2000/svg" fill="currentColor"><path style="fill:rgb(51, 51, 51)"/><path style="fill:rgb(51, 51, 51)"/><g transform="matrix(1.8137530088424683, 0, 0, 1.8137530088424683, -394.4737548828125, -0.916856050491333)" style=""><path d="M 251.885 124.845 L 251.885 13.459 L 293.424 13.459 C 302.005 13.452 308.752 14.557 313.867 16.817 C 318.974 19.032 322.849 22.37 325.716 27.025 C 328.626 31.672 330.013 36.397 330.013 41.463 C 330.013 46.171 328.792 50.473 326.216 54.63 C 323.685 58.793 319.918 62.062 314.713 64.621 L 312.399 65.759 L 314.876 66.477 C 321.097 68.28 325.852 71.194 329.349 75.365 C 325.153 76.466 321.15 77.996 317.424 79.921 L 317.943 80.58 C 317.769 80.359 317.589 80.143 317.405 79.931 C 317.183 80.046 316.962 80.162 316.741 80.28 C 316.727 80.288 316.704 80.3 316.674 80.316 L 317.399 79.923 C 315.23 77.427 312.372 75.552 309.011 74.428 C 305.071 73.142 299.385 72.486 292.109 72.483 L 264.889 72.483 L 264.889 113.465 L 292.068 113.465 C 290.949 117.44 290.316 120.621 289.85 124.845 Z M 335.504 92.974 C 335.504 98.173 334.447 102.89 332.243 107.344 C 330.055 111.818 327.432 115.157 324.225 117.543 C 321.019 119.961 317.058 121.746 312.166 122.981 C 310.304 123.454 309.096 123.678 307.402 123.941 C 308.017 119.318 308.932 115.573 310.647 111.152 C 311.672 110.719 312.534 110.29 313.52 109.678 C 315.946 108.146 318.03 105.858 319.594 103.003 C 320.828 100.703 321.522 98.31 321.818 95.636 C 324.124 93.863 326.611 92.43 329.826 91.092 C 331.854 90.241 333.355 89.786 335.301 89.323 C 335.535 90.849 335.504 91.333 335.504 92.974 Z M 264.889 24.84 L 264.889 61.103 L 290.407 61.103 C 297.105 61.101 302.016 60.641 305.002 59.746 C 308.948 58.55 312.083 56.486 314.146 53.735 C 316.155 50.949 317.24 47.353 317.24 43.242 C 317.24 39.347 316.262 35.755 314.379 32.77 C 312.48 29.759 309.603 27.607 306.1 26.471 C 302.643 25.393 296.744 24.842 288.551 24.84 Z" style="fill:rgb(51, 51, 51)"/><path d="M 348.429 144.044 L 348.429 132.739 L 394.46 132.666 L 394.46 149.62 L 381.764 149.62 L 381.764 144.044 Z M 394.46 173.256 C 388.461 177.997 383.401 181.107 377.464 183.881 L 377.464 169.873 C 378.956 168.912 380.175 168.015 381.427 166.907 L 381.764 166.61 L 381.764 164.15 L 394.46 164.15 Z M 348.512 190.451 C 337.49 190.451 327.603 188.136 318.619 183.41 C 309.64 178.731 303.003 172.038 298.431 163.15 C 293.847 154.236 291.581 144.391 291.581 133.365 C 291.581 122.44 293.839 112.364 298.405 102.902 C 302.955 93.47 309.358 86.581 317.892 82.039 C 326.431 77.445 336.172 75.197 347.352 75.197 C 355.462 75.197 362.688 76.481 369.216 79.109 C 375.738 81.707 380.727 85.254 384.39 89.902 C 388.092 94.544 390.624 100.039 392.54 107.139 L 380.898 110.332 C 379.216 104.921 377.268 100.72 374.675 97.334 C 372.062 93.922 368.235 91.135 363.443 89.093 C 358.648 87.077 353.246 86.037 347.429 86.037 C 340.484 86.037 334.357 87.116 329.255 89.246 C 324.161 91.373 319.941 94.245 316.793 97.736 C 313.67 101.201 311.198 105.091 309.456 109.24 C 306.54 116.35 305.05 124.146 305.05 132.437 C 305.05 142.645 306.839 151.337 310.381 158.261 C 313.932 165.205 319.231 170.49 326.025 173.861 C 332.778 177.212 340.07 178.915 347.661 178.915 C 352.411 178.915 356.272 178.361 360.459 177.278 L 360.459 189.373 C 356.517 190.096 352.838 190.451 348.512 190.451 Z" style="fill:rgb(51, 51, 51)"/><path d="M 362.278 263.006 L 362.278 151.62 L 411.552 151.62 C 421.592 151.616 429.095 152.6 434.239 154.608 C 439.353 156.557 443.31 159.948 446.353 164.986 C 449.443 170.014 450.925 175.451 450.925 181.558 C 450.925 189.422 448.491 195.859 443.387 201.213 C 438.343 206.614 430.594 209.968 419.846 211.427 L 416.539 211.876 L 419.549 213.319 C 423.472 215.2 426.365 217 428.357 218.803 C 432.692 222.775 436.759 227.702 440.643 233.687 L 459.38 263.006 L 442.884 263.006 L 428.171 239.875 C 423.778 233.054 420.142 227.808 417.288 224.175 C 414.412 220.52 411.755 217.873 409.424 216.372 C 407.116 214.886 404.65 213.813 402.247 213.219 C 400.473 212.847 397.584 212.656 393.685 212.655 L 375.283 212.655 L 375.283 263.006 Z M 375.283 162.15 L 375.283 201.661 L 408.535 201.661 C 415.459 201.657 420.994 200.917 424.967 199.474 C 428.967 197.982 432.179 195.53 434.281 192.27 C 436.368 189.032 437.456 185.36 437.456 181.558 C 437.456 175.993 435.299 171.21 431.281 167.584 C 427.191 164.022 420.711 162.169 412.171 162.15 Z" style="fill:rgb(51, 51, 51)"/></g><g><path d="M 250.885 61.58 C 314.54 47.575 372.551 56.013 414.77 100.245 C 435.025 122.432 444.026 153.249 445.845 181.327 C 446.758 195.405 446.026 209.37 444.335 221.411 C 442.634 233.521 437.137 250.86 437.137 250.86 C 437.072 251.185 425.42 248.407 425.37 248.585 C 425.37 248.585 428.267 240.262 429.449 235.484 C 430.638 230.674 431.646 225.479 432.451 219.742 C 434.07 208.219 434.737 195.482 433.87 182.103 C 432.132 155.267 424.862 128.148 405.998 108.435 C 367.351 66.053 315.032 59.375 253.497 73.292 L 250.885 61.58 Z" style=""/><path d="M 424.827 230.181 L 448.848 278.882 L 400.805 278.882 L 424.827 230.181 Z" style="" transform="matrix(-0.899447, -0.437029, 0.437029, -0.899447, 695.697711, 669.130573)"/></g><g transform="matrix(-1, 0, 0, -1, 492.854218, 517.825073)" style=""><path d="M 250.885 61.58 C 314.54 47.575 372.551 56.013 414.77 100.245 C 435.025 122.432 444.026 153.249 445.845 181.327 C 446.758 195.405 446.026 209.37 444.335 221.411 C 442.634 233.521 437.137 250.86 437.137 250.86 C 437.072 251.185 425.42 248.407 425.37 248.585 C 425.37 248.585 428.267 240.262 429.449 235.484 C 430.638 230.674 431.646 225.479 432.451 219.742 C 434.07 208.219 434.737 195.482 433.87 182.103 C 432.132 155.267 424.862 128.148 405.998 108.435 C 367.351 66.053 315.032 59.375 253.497 73.292 L 250.885 61.58 Z" style=""/><path d="M 424.827 230.181 L 448.848 278.882 L 400.805 278.882 L 424.827 230.181 Z" style="" transform="matrix(-0.899447, -0.437029, 0.437029, -0.899447, 695.697711, 669.130573)"/></g></svg>