<svg xmlns="http://www.w3.org/2000/svg" viewBox="26.811 17.353 458.7 458.7" width="458.7" height="458.7" fill="currentColor"><path d="M154.493 90.696c8.449-1.367 18.034.092 26.082 3.478 8.381 3.526 17.821 11.697 23.039 17.822 4.217 4.951 3.241 12.285 7.824 15.215 5.168 3.303 16.057-.682 23.039 1.739 6.915 2.396 14.546 8.81 18.692 12.606 2.91 2.663 2.318 6.765 5.651 7.39 5.186.972 17.445-8.428 26.082-10.433 8.165-1.896 16.107-3.342 24.343-1.739 8.984 1.749 21.142 7.512 27.386 13.041 5.148 4.558 7.527 10.099 9.564 16.084 2.133 6.271 3.25 14.241 2.608 20.865-.62 6.394-2.531 11.628-6.086 18.258-4.504 8.4-21.094 21.252-20.865 27.82.164 4.744 6.786 7.748 11.736 9.999 5.619 2.553 14.744.962 20.866 3.477a40.95 40.95 0 0 1 15.214 10.868c4.464 5.074 8.583 12.577 10.433 19.126 1.757 6.22 1.509 13.742.87 19.127-.528 4.441-4.019 6.831-3.478 11.302.723 5.984 8.84 14.237 11.302 21.735 2.395 7.295 3.627 15.768 3.478 22.604-.133 6.055-1.038 11.175-3.478 16.519-2.669 5.846-8.221 12.864-12.606 16.953-3.641 3.395-6.747 5.248-11.302 6.955-5.307 1.989-13.136 3.571-19.127 3.478-5.546-.086-10.541-1.122-15.649-3.478-5.638-2.599-10.417-9.564-16.519-12.171-6.075-2.596-14.673-1.413-19.996-3.478-4.39-1.702-5.82-5.945-10.433-6.955-5.941-1.301-16.993 3.217-23.473 2.608-5.219-.49-8.709-1.915-13.041-4.347-4.946-2.776-8.831-10.336-14.78-12.171-6.365-1.964-15.143 3.439-22.604 1.739-8.055-1.836-18.404-8.003-23.909-13.476-4.679-4.652-3.85-12.899-8.694-16.084-5.326-3.502-16.015.269-23.039-2.608-7.213-2.954-14.957-9.32-19.561-15.215-4.214-5.395-6.45-11.362-7.825-18.257-1.533-7.688-1.094-17.86 0-26.082 1.04-7.817 7.686-16.669 6.086-22.169-1.376-4.729-8.861-5.936-12.172-9.999-3.391-4.16-6.208-9.17-7.824-14.779-1.768-6.138-2.51-12.371-1.739-20.866 1.037-11.418 10.26-31.226 10.433-42.6.13-8.554-5.245-14.003-5.217-20.866.028-6.754 2.66-14.624 5.217-19.996 2.166-4.551 3.983-7.493 8.259-10.867 5.699-4.498 16.551-10.77 25.213-12.172M41.13 17.353h430.062c3.703.153 7.726 1.795 10.125 4.194s4.041 6.422 4.194 10.125v430.062c-.153 3.703-1.795 7.726-4.194 10.125s-6.422 4.041-10.125 4.194H41.13c-3.703-.153-7.726-1.795-10.125-4.194s-4.041-6.422-4.194-10.125V31.672c.153-3.703 1.795-7.726 4.194-10.125s6.422-4.041 10.125-4.194m-5.175 9.144c-1.517 1.516-2.297 2.903-2.144 5.175v430.062c-.153 2.272.627 3.659 2.144 5.175 1.516 1.517 2.903 2.297 5.175 2.144h430.062c2.272.153 3.659-.627 5.175-2.144 1.517-1.516 2.297-2.903 2.144-5.175V31.672c.153-2.272-.627-3.659-2.144-5.175-1.516-1.517-2.903-2.297-5.175-2.144H41.13c-2.272-.153-3.659.627-5.175 2.144m99.535 84.209c-2.981 1.9-3.458 3.121-5.432 7.312-2.339 4.836-4.497 10.548-4.255 15.648l.031.639-.083.172c-1.437 2.984 3.96 7.955 5.261 19.912-.635 13.357-9.869 33.91-10.459 43.643-.786 7.425-.229 11.894 1.376 17.237 1.152 4.498 3.045 7.775 5.95 11.226l.498.592-.056.034c-.486.293.607.123 3.594 1.783 3.026 1.784 7.439 5.886 9.763 10.475l.332.656.054.64c.811 9.467-5.737 19.943-5.889 25.415-1.055 7.791-1.578 16.544-.141 22.998 1.165 6.144 2.42 10.034 5.85 14.031 3.837 5.103 9.571 9.996 15.456 12.162l.433.159.121.098c3.297 2.651 14.343-.931 23.753 2.985l.499.208.473.43c4.055 3.685 6.838 9.011 7.967 12.426 1.092 3.479.551 4.464 1.278 4.11l.064-.031.515.535c4.53 4.712 12.407 9.522 18.965 10.764l.519.098.138.088c3.468 2.215 12.079-3.236 22.271-1.836l.471.064.45.217c8.658 4.166 13.08 11.955 15.855 12.633l.094.022.355.203c3.839 2.189 5.283 2.986 8.946 3.091 4.018.931 15.778-3.494 24.506-2.465l.343.041.359.123c4.13 1.417 7.797 3.922 9.611 5.604.426.423.73.769.942 1.043l-.008-.026 1.272.807c2.685 1.703 11.175.473 19.78 3.384 8.143 4.317 13.206 11.404 16.656 12.231 3.988 1.986 7.305 2.714 11.904 2.699 4.888.193 10.939-1.065 15.477-2.832 3.74-1.319 5.217-2.143 7.974-4.872 3.873-3.537 8.329-8.998 10.35-13.78 2.043-4.073 2.539-7.304 2.602-12.615.2-5.995-.779-12.825-2.973-19.267-1.286-5.499-9.626-14.658-11.684-23.339l-.09-.382.002-.437c.029-4.331 1.287-8.676 2.389-10.918.447-.821.797-1.308 1.035-1.572l.088-.721c.608-4.998 1.024-10.516-.535-15.121-1.414-5.476-4.495-11.142-8.314-15.302-3.328-3.983-6.688-6.409-11.486-8.239-3.211-2.137-12.591-.659-20.991-3.533-2.473-1.124-6.48-2.985-9.571-5.119-3.385-2.587-7.112-8.136-8.213-13.046l-.155-.692.096-.611c1.627-10.335 18.769-25.366 21.972-32.178 3.271-6.003 4.672-9.443 4.998-14.542.666-5.41-.194-11.368-2.104-16.715-1.942-5.733-2.835-9.11-6.58-11.717-5.043-4.732-15.001-9.481-22.78-10.838-6.27-1.592-12.226-.203-20.214 1.655-6.73 1.143-20.825 10.639-29.613 10.595l-.852-.004-.852-.424c-4.145-2.061-7.934-5.96-9.164-8.376a31 31 0 0 1-.527-1.35c-4.009-3.673-9.704-8.836-14.832-10.255l-.411-.114-.16-.107c-3.485-2.331-14.942 1.38-24.175-2.287l-.529-.211-.499-.449c-3.947-3.558-6.692-8.701-7.73-12.004-.964-3.27-.601-4.348-1.43-4.379l-.048-.001-.353-.42c-4.695-5.594-12.227-12.377-19.225-15.047-6.853-3.045-13.752-4.221-20.598-2.865-6.882.771-15.554 6.048-20.677 10.151" style="stroke-width:2"/></svg>