<?xml version="1.0" encoding="utf-8"?><svg viewBox="0 0 500 500" xmlns="http://www.w3.org/2000/svg" fill="currentColor"><path d="M 265.733 296.194 L 265.733 246.927 L 444.028 246.643 L 444.028 402.519 C 416.658 424.313 388.422 440.7 359.318 451.68 C 330.236 462.66 300.383 468.15 269.759 468.15 C 228.396 468.15 190.822 459.317 157.036 441.649 C 123.252 423.982 97.747 398.428 80.521 364.991 C 63.296 331.554 54.684 294.203 54.684 252.937 C 54.684 212.055 63.25 173.886 80.378 138.431 C 97.508 103.004 122.159 76.691 154.327 59.497 C 186.473 42.304 223.512 33.708 265.447 33.708 C 295.881 33.708 323.393 38.618 347.985 48.435 C 372.575 58.277 391.853 71.996 405.826 89.592 C 419.818 107.164 430.451 130.085 437.72 158.353 L 387.471 172.119 C 381.151 150.728 373.3 133.915 363.916 121.678 C 354.53 109.441 341.129 99.646 323.714 92.296 C 306.3 84.945 286.972 81.268 265.733 81.268 C 240.263 81.268 218.25 85.133 199.696 92.865 C 181.115 100.62 166.136 110.793 154.755 123.386 C 143.375 136.001 134.525 149.851 128.206 164.932 C 117.491 190.923 112.133 219.109 112.133 249.489 C 112.133 286.935 118.583 318.272 131.482 343.505 C 144.409 368.715 163.212 387.438 187.9 399.673 C 212.607 411.911 238.837 418.029 266.588 418.029 C 290.703 418.029 314.247 413.393 337.221 404.121 C 360.195 394.849 377.612 384.959 389.466 374.453 L 389.466 296.194 L 265.733 296.194 Z" style="fill:rgb(51, 51, 51)"/><path style="fill:rgb(51, 51, 51)"/><path style="fill:rgb(51, 51, 51)"/></svg>