<?xml version="1.0" encoding="utf-8"?><svg viewBox="0 0 500 500" xmlns="http://www.w3.org/2000/svg" fill="currentColor"><path d="M 27.864 18.081 L 475.047 18.081 C 477.556 18.165 480.185 19.301 481.862 20.911 C 483.473 22.589 484.609 25.234 484.692 27.743 L 484.692 474.926 C 484.609 477.435 483.473 480.064 481.862 481.741 C 480.184 483.352 477.54 484.488 475.029 484.571 L 27.848 484.571 C 25.338 484.488 22.709 483.352 21.032 481.741 C 19.422 480.063 18.286 477.419 18.202 474.908 L 18.202 27.727 C 18.286 25.217 19.422 22.588 21.032 20.911 C 22.71 19.301 25.355 18.165 27.864 18.081 Z M 22.182 474.908 C 22.09 476.601 22.675 477.81 23.846 478.927 C 24.963 480.099 26.151 480.682 27.844 480.59 L 475.029 480.59 C 476.722 480.682 477.931 480.099 479.048 478.927 C 480.22 477.81 480.803 476.621 480.711 474.928 L 480.711 336.864 L 474.122 336.864 L 474.122 329.871 L 480.711 329.871 L 480.711 301.297 L 476.291 301.297 L 476.291 294.304 L 480.711 294.304 L 480.711 272.665 L 473.866 272.665 L 473.866 265.672 L 480.711 265.672 L 480.711 230.626 L 473.83 230.626 L 473.83 223.633 L 480.711 223.633 L 480.711 202.063 L 474.23 202.063 L 474.23 195.07 L 480.711 195.07 L 480.711 187.927 L 473.995 187.927 L 473.995 180.934 L 480.711 180.934 L 480.711 174.307 L 475.221 174.307 L 475.221 167.314 L 480.711 167.314 L 480.711 160.171 L 474.987 160.171 L 474.987 153.178 L 480.711 153.178 L 480.711 145.596 L 22.182 145.596 L 22.182 145.929 L 29.064 145.929 L 29.064 152.922 L 22.182 152.922 L 22.182 173.684 L 28.073 173.684 L 28.073 180.677 L 22.182 180.677 L 22.182 187.82 L 28.307 187.82 L 28.307 194.813 L 22.182 194.813 L 22.182 202.247 L 27.674 202.247 L 27.674 209.24 L 22.182 209.24 L 22.182 216.383 L 27.908 216.383 L 27.908 223.376 L 22.182 223.376 L 22.182 230.003 L 26.682 230.003 L 26.682 236.996 L 22.182 236.996 L 22.182 244.139 L 26.916 244.139 L 26.916 251.132 L 22.182 251.132 L 22.182 315.293 L 28.027 315.293 L 28.027 322.286 L 22.182 322.286 L 22.182 343.469 L 27.874 343.469 L 27.874 350.462 L 22.182 350.462 Z M 28.294 180.817 L 35.287 180.817 L 35.287 187.81 L 28.294 187.81 Z M 28.529 194.953 L 35.522 194.953 L 35.522 201.946 L 28.529 201.946 Z M 42.426 173.684 L 42.426 180.677 L 35.433 180.677 L 35.433 174.19 L 29.52 174.19 L 29.52 167.197 L 36.513 167.197 L 36.513 173.684 Z M 42.648 180.817 L 49.641 180.817 L 49.641 187.81 L 42.648 187.81 Z M 35.667 187.82 L 42.66 187.82 L 42.66 194.813 L 35.667 194.813 Z M 42.882 194.953 L 49.875 194.953 L 49.875 201.946 L 42.882 201.946 Z M 56.779 173.684 L 56.779 180.677 L 49.786 180.677 L 49.786 174.19 L 43.873 174.19 L 43.873 167.197 L 50.866 167.197 L 50.866 173.684 Z M 57.001 180.817 L 63.994 180.817 L 63.994 187.81 L 57.001 187.81 Z M 50.021 187.82 L 57.014 187.82 L 57.014 194.813 L 50.021 194.813 Z M 57.235 194.953 L 64.228 194.953 L 64.228 201.946 L 57.235 201.946 Z M 71.133 173.684 L 71.133 180.677 L 64.14 180.677 L 64.14 174.19 L 58.227 174.19 L 58.227 167.197 L 65.22 167.197 L 65.22 173.684 Z M 71.354 180.817 L 78.347 180.817 L 78.347 187.81 L 71.354 187.81 Z M 64.374 187.82 L 71.367 187.82 L 71.367 194.813 L 64.374 194.813 Z M 71.589 194.953 L 78.582 194.953 L 78.582 201.946 L 71.589 201.946 Z M 85.453 173.801 L 85.453 180.794 L 78.46 180.794 L 78.46 174.19 L 72.58 174.19 L 72.58 167.197 L 79.573 167.197 L 79.573 173.801 Z M 85.675 180.934 L 92.668 180.934 L 92.668 187.927 L 85.675 187.927 Z M 78.695 187.937 L 85.688 187.937 L 85.688 194.93 L 78.695 194.93 Z M 85.909 195.07 L 92.902 195.07 L 92.902 202.063 L 85.909 202.063 Z M 99.807 173.801 L 99.807 180.794 L 92.814 180.794 L 92.814 174.307 L 86.901 174.307 L 86.901 167.314 L 93.894 167.314 L 93.894 173.801 Z M 100.028 180.934 L 107.021 180.934 L 107.021 187.927 L 100.028 187.927 Z M 93.048 187.937 L 100.041 187.937 L 100.041 194.93 L 93.048 194.93 Z M 100.263 195.07 L 107.256 195.07 L 107.256 202.063 L 100.263 202.063 Z M 114.16 173.801 L 114.16 180.794 L 107.167 180.794 L 107.167 174.307 L 101.254 174.307 L 101.254 167.314 L 108.247 167.314 L 108.247 173.801 Z M 114.382 180.934 L 121.375 180.934 L 121.375 187.927 L 114.382 187.927 Z M 107.401 187.937 L 114.394 187.937 L 114.394 194.93 L 107.401 194.93 Z M 114.616 195.07 L 121.609 195.07 L 121.609 202.063 L 114.616 202.063 Z M 128.513 173.801 L 128.513 180.794 L 121.52 180.794 L 121.52 174.307 L 115.607 174.307 L 115.607 167.314 L 122.6 167.314 L 122.6 173.801 Z M 128.735 180.934 L 135.728 180.934 L 135.728 187.927 L 128.735 187.927 Z M 121.755 187.937 L 128.748 187.937 L 128.748 194.93 L 121.755 194.93 Z M 128.969 195.07 L 135.962 195.07 L 135.962 202.063 L 128.969 202.063 Z M 142.974 173.684 L 142.974 180.677 L 135.981 180.677 L 135.981 174.307 L 129.961 174.307 L 129.961 167.314 L 136.954 167.314 L 136.954 173.684 Z M 143.196 180.817 L 150.189 180.817 L 150.189 187.81 L 143.196 187.81 Z M 136.215 187.82 L 143.208 187.82 L 143.208 194.813 L 136.215 194.813 Z M 143.43 194.953 L 150.423 194.953 L 150.423 201.946 L 143.43 201.946 Z M 157.327 173.684 L 157.327 180.677 L 150.334 180.677 L 150.334 174.19 L 144.421 174.19 L 144.421 167.197 L 151.414 167.197 L 151.414 173.684 Z M 157.549 180.817 L 164.542 180.817 L 164.542 187.81 L 157.549 187.81 Z M 150.569 187.82 L 157.562 187.82 L 157.562 194.813 L 150.569 194.813 Z M 157.783 194.953 L 164.776 194.953 L 164.776 201.946 L 157.783 201.946 Z M 171.681 173.684 L 171.681 180.677 L 164.688 180.677 L 164.688 174.19 L 158.774 174.19 L 158.774 167.197 L 165.767 167.197 L 165.767 173.684 Z M 171.902 180.817 L 178.895 180.817 L 178.895 187.81 L 171.902 187.81 Z M 164.922 187.82 L 171.915 187.82 L 171.915 194.813 L 164.922 194.813 Z M 172.136 194.953 L 179.129 194.953 L 179.129 201.946 L 172.136 201.946 Z M 186.034 173.684 L 186.034 180.677 L 179.041 180.677 L 179.041 174.19 L 173.128 174.19 L 173.128 167.197 L 180.121 167.197 L 180.121 173.684 Z M 186.256 180.817 L 193.249 180.817 L 193.249 187.81 L 186.256 187.81 Z M 179.275 187.82 L 186.268 187.82 L 186.268 194.813 L 179.275 194.813 Z M 186.49 194.953 L 193.483 194.953 L 193.483 201.946 L 186.49 201.946 Z M 200.355 173.801 L 200.355 180.794 L 193.362 180.794 L 193.362 174.19 L 187.481 174.19 L 187.481 167.197 L 194.474 167.197 L 194.474 173.801 Z M 200.576 180.934 L 207.569 180.934 L 207.569 187.927 L 200.576 187.927 Z M 193.596 187.937 L 200.589 187.937 L 200.589 194.93 L 193.596 194.93 Z M 200.81 195.07 L 207.803 195.07 L 207.803 202.063 L 200.81 202.063 Z M 214.708 173.801 L 214.708 180.794 L 207.715 180.794 L 207.715 174.307 L 201.802 174.307 L 201.802 167.314 L 208.795 167.314 L 208.795 173.801 Z M 214.929 180.934 L 221.922 180.934 L 221.922 187.927 L 214.929 187.927 Z M 207.949 187.937 L 214.942 187.937 L 214.942 194.93 L 207.949 194.93 Z M 215.164 195.07 L 222.157 195.07 L 222.157 202.063 L 215.164 202.063 Z M 229.061 173.801 L 229.061 180.794 L 222.068 180.794 L 222.068 174.307 L 216.155 174.307 L 216.155 167.314 L 223.148 167.314 L 223.148 173.801 Z M 229.283 180.934 L 236.276 180.934 L 236.276 187.927 L 229.283 187.927 Z M 222.302 187.937 L 229.295 187.937 L 229.295 194.93 L 222.302 194.93 Z M 229.517 195.07 L 236.51 195.07 L 236.51 202.063 L 229.517 202.063 Z M 243.415 173.801 L 243.415 180.794 L 236.422 180.794 L 236.422 174.307 L 230.508 174.307 L 230.508 167.314 L 237.501 167.314 L 237.501 173.801 Z M 243.636 180.934 L 250.629 180.934 L 250.629 187.927 L 243.636 187.927 Z M 236.656 187.937 L 243.649 187.937 L 243.649 194.93 L 236.656 194.93 Z M 243.87 195.07 L 250.863 195.07 L 250.863 202.063 L 243.87 202.063 Z M 29.286 153.061 L 36.279 153.061 L 36.279 160.054 L 29.286 160.054 Z M 22.305 160.065 L 29.298 160.065 L 29.298 167.058 L 22.305 167.058 Z M 36.424 145.929 L 43.417 145.929 L 43.417 152.922 L 36.424 152.922 Z M 43.639 153.061 L 50.632 153.061 L 50.632 160.054 L 43.639 160.054 Z M 36.659 160.065 L 43.652 160.065 L 43.652 167.058 L 36.659 167.058 Z M 50.778 145.929 L 57.771 145.929 L 57.771 152.922 L 50.778 152.922 Z M 57.992 153.061 L 64.985 153.061 L 64.985 160.054 L 57.992 160.054 Z M 51.012 160.065 L 58.005 160.065 L 58.005 167.058 L 51.012 167.058 Z M 65.131 145.929 L 72.124 145.929 L 72.124 152.922 L 65.131 152.922 Z M 72.346 153.061 L 79.339 153.061 L 79.339 160.054 L 72.346 160.054 Z M 65.365 160.065 L 72.358 160.065 L 72.358 167.058 L 65.365 167.058 Z M 79.452 146.046 L 86.445 146.046 L 86.445 153.039 L 79.452 153.039 Z M 86.666 153.178 L 93.659 153.178 L 93.659 160.171 L 86.666 160.171 Z M 79.686 160.182 L 86.679 160.182 L 86.679 167.175 L 79.686 167.175 Z M 93.805 146.046 L 100.798 146.046 L 100.798 153.039 L 93.805 153.039 Z M 101.02 153.178 L 108.013 153.178 L 108.013 160.171 L 101.02 160.171 Z M 94.039 160.182 L 101.032 160.182 L 101.032 167.175 L 94.039 167.175 Z M 108.158 146.046 L 115.151 146.046 L 115.151 153.039 L 108.158 153.039 Z M 115.373 153.178 L 122.366 153.178 L 122.366 160.171 L 115.373 160.171 Z M 108.393 160.182 L 115.386 160.182 L 115.386 167.175 L 108.393 167.175 Z M 122.512 146.046 L 129.505 146.046 L 129.505 153.039 L 122.512 153.039 Z M 129.726 153.178 L 136.719 153.178 L 136.719 160.171 L 129.726 160.171 Z M 122.746 160.182 L 129.739 160.182 L 129.739 167.175 L 122.746 167.175 Z M 136.972 145.929 L 143.965 145.929 L 143.965 152.922 L 136.972 152.922 Z M 144.187 153.061 L 151.18 153.061 L 151.18 160.054 L 144.187 160.054 Z M 137.206 160.065 L 144.199 160.065 L 144.199 167.058 L 137.206 167.058 Z M 151.326 145.929 L 158.319 145.929 L 158.319 152.922 L 151.326 152.922 Z M 158.54 153.061 L 165.533 153.061 L 165.533 160.054 L 158.54 160.054 Z M 151.56 160.065 L 158.553 160.065 L 158.553 167.058 L 151.56 167.058 Z M 165.679 145.929 L 172.672 145.929 L 172.672 152.922 L 165.679 152.922 Z M 172.893 153.061 L 179.886 153.061 L 179.886 160.054 L 172.893 160.054 Z M 165.913 160.065 L 172.906 160.065 L 172.906 167.058 L 165.913 167.058 Z M 180.032 145.929 L 187.025 145.929 L 187.025 152.922 L 180.032 152.922 Z M 187.247 153.061 L 194.24 153.061 L 194.24 160.054 L 187.247 160.054 Z M 180.266 160.065 L 187.259 160.065 L 187.259 167.058 L 180.266 167.058 Z M 194.353 146.046 L 201.346 146.046 L 201.346 153.039 L 194.353 153.039 Z M 201.567 153.178 L 208.56 153.178 L 208.56 160.171 L 201.567 160.171 Z M 194.587 160.182 L 201.58 160.182 L 201.58 167.175 L 194.587 167.175 Z M 208.706 146.046 L 215.699 146.046 L 215.699 153.039 L 208.706 153.039 Z M 215.921 153.178 L 222.914 153.178 L 222.914 160.171 L 215.921 160.171 Z M 208.94 160.182 L 215.933 160.182 L 215.933 167.175 L 208.94 167.175 Z M 223.06 146.046 L 230.053 146.046 L 230.053 153.039 L 223.06 153.039 Z M 230.274 153.178 L 237.267 153.178 L 237.267 160.171 L 230.274 160.171 Z M 223.294 160.182 L 230.287 160.182 L 230.287 167.175 L 223.294 167.175 Z M 237.413 146.046 L 244.406 146.046 L 244.406 153.039 L 237.413 153.039 Z M 244.627 153.178 L 251.62 153.178 L 251.62 160.171 L 244.627 160.171 Z M 237.647 160.182 L 244.64 160.182 L 244.64 167.175 L 237.647 167.175 Z M 244.862 167.314 L 251.855 167.314 L 251.855 173.684 L 258.432 173.684 L 258.432 180.677 L 251.439 180.677 L 251.439 174.307 L 244.862 174.307 Z M 258.654 180.817 L 265.647 180.817 L 265.647 187.81 L 258.654 187.81 Z M 251.673 187.82 L 258.666 187.82 L 258.666 194.813 L 251.673 194.813 Z M 258.888 194.953 L 265.881 194.953 L 265.881 201.946 L 258.888 201.946 Z M 272.785 173.684 L 272.785 180.677 L 265.792 180.677 L 265.792 174.19 L 259.879 174.19 L 259.879 167.197 L 266.872 167.197 L 266.872 173.684 Z M 273.007 180.817 L 280 180.817 L 280 187.81 L 273.007 187.81 Z M 266.026 187.82 L 273.019 187.82 L 273.019 194.813 L 266.026 194.813 Z M 273.241 194.953 L 280.234 194.953 L 280.234 201.946 L 273.241 201.946 Z M 287.139 173.684 L 287.139 180.677 L 280.146 180.677 L 280.146 174.19 L 274.232 174.19 L 274.232 167.197 L 281.225 167.197 L 281.225 173.684 Z M 287.36 180.817 L 294.353 180.817 L 294.353 187.81 L 287.36 187.81 Z M 280.38 187.82 L 287.373 187.82 L 287.373 194.813 L 280.38 194.813 Z M 287.594 194.953 L 294.587 194.953 L 294.587 201.946 L 287.594 201.946 Z M 301.492 173.684 L 301.492 180.677 L 294.499 180.677 L 294.499 174.19 L 288.586 174.19 L 288.586 167.197 L 295.579 167.197 L 295.579 173.684 Z M 301.713 180.817 L 308.706 180.817 L 308.706 187.81 L 301.713 187.81 Z M 294.733 187.82 L 301.726 187.82 L 301.726 194.813 L 294.733 194.813 Z M 301.948 194.953 L 308.941 194.953 L 308.941 201.946 L 301.948 201.946 Z M 315.813 173.801 L 315.813 180.794 L 308.82 180.794 L 308.82 174.19 L 302.939 174.19 L 302.939 167.197 L 309.932 167.197 L 309.932 173.801 Z M 316.034 180.934 L 323.027 180.934 L 323.027 187.927 L 316.034 187.927 Z M 309.054 187.937 L 316.047 187.937 L 316.047 194.93 L 309.054 194.93 Z M 316.268 195.07 L 323.261 195.07 L 323.261 202.063 L 316.268 202.063 Z M 330.166 173.801 L 330.166 180.794 L 323.173 180.794 L 323.173 174.307 L 317.26 174.307 L 317.26 167.314 L 324.253 167.314 L 324.253 173.801 Z M 330.387 180.934 L 337.38 180.934 L 337.38 187.927 L 330.387 187.927 Z M 323.407 187.937 L 330.4 187.937 L 330.4 194.93 L 323.407 194.93 Z M 330.622 195.07 L 337.615 195.07 L 337.615 202.063 L 330.622 202.063 Z M 344.519 173.801 L 344.519 180.794 L 337.526 180.794 L 337.526 174.307 L 331.613 174.307 L 331.613 167.314 L 338.606 167.314 L 338.606 173.801 Z M 344.741 180.934 L 351.734 180.934 L 351.734 187.927 L 344.741 187.927 Z M 337.76 187.937 L 344.753 187.937 L 344.753 194.93 L 337.76 194.93 Z M 344.975 195.07 L 351.968 195.07 L 351.968 202.063 L 344.975 202.063 Z M 358.873 173.801 L 358.873 180.794 L 351.88 180.794 L 351.88 174.307 L 345.966 174.307 L 345.966 167.314 L 352.959 167.314 L 352.959 173.801 Z M 359.094 180.934 L 366.087 180.934 L 366.087 187.927 L 359.094 187.927 Z M 352.114 187.937 L 359.107 187.937 L 359.107 194.93 L 352.114 194.93 Z M 359.328 195.07 L 366.321 195.07 L 366.321 202.063 L 359.328 202.063 Z M 373.333 173.684 L 373.333 180.677 L 366.34 180.677 L 366.34 174.307 L 360.32 174.307 L 360.32 167.314 L 367.313 167.314 L 367.313 173.684 Z M 373.555 180.817 L 380.548 180.817 L 380.548 187.81 L 373.555 187.81 Z M 366.574 187.82 L 373.567 187.82 L 373.567 194.813 L 366.574 194.813 Z M 373.789 194.953 L 380.782 194.953 L 380.782 201.946 L 373.789 201.946 Z M 387.686 173.684 L 387.686 180.677 L 380.693 180.677 L 380.693 174.19 L 374.78 174.19 L 374.78 167.197 L 381.773 167.197 L 381.773 173.684 Z M 387.908 180.817 L 394.901 180.817 L 394.901 187.81 L 387.908 187.81 Z M 380.928 187.82 L 387.921 187.82 L 387.921 194.813 L 380.928 194.813 Z M 388.142 194.953 L 395.135 194.953 L 395.135 201.946 L 388.142 201.946 Z M 402.04 173.684 L 402.04 180.677 L 395.047 180.677 L 395.047 174.19 L 389.134 174.19 L 389.134 167.197 L 396.127 167.197 L 396.127 173.684 Z M 402.261 180.817 L 409.254 180.817 L 409.254 187.81 L 402.261 187.81 Z M 395.281 187.82 L 402.274 187.82 L 402.274 194.813 L 395.281 194.813 Z M 402.496 194.953 L 409.489 194.953 L 409.489 201.946 L 402.496 201.946 Z M 416.393 173.684 L 416.393 180.677 L 409.4 180.677 L 409.4 174.19 L 403.487 174.19 L 403.487 167.197 L 410.48 167.197 L 410.48 173.684 Z M 416.615 180.817 L 423.608 180.817 L 423.608 187.81 L 416.615 187.81 Z M 409.634 187.82 L 416.627 187.82 L 416.627 194.813 L 409.634 194.813 Z M 416.849 194.953 L 423.842 194.953 L 423.842 201.946 L 416.849 201.946 Z M 430.714 173.801 L 430.714 180.794 L 423.721 180.794 L 423.721 174.19 L 417.84 174.19 L 417.84 167.197 L 424.833 167.197 L 424.833 173.801 Z M 430.935 180.934 L 437.928 180.934 L 437.928 187.927 L 430.935 187.927 Z M 423.955 187.937 L 430.948 187.937 L 430.948 194.93 L 423.955 194.93 Z M 431.17 195.07 L 438.163 195.07 L 438.163 202.063 L 431.17 202.063 Z M 445.067 173.801 L 445.067 180.794 L 438.074 180.794 L 438.074 174.307 L 432.161 174.307 L 432.161 167.314 L 439.154 167.314 L 439.154 173.801 Z M 445.289 180.934 L 452.282 180.934 L 452.282 187.927 L 445.289 187.927 Z M 438.308 187.937 L 445.301 187.937 L 445.301 194.93 L 438.308 194.93 Z M 445.523 195.07 L 452.516 195.07 L 452.516 202.063 L 445.523 202.063 Z M 459.42 173.801 L 459.42 180.794 L 452.427 180.794 L 452.427 174.307 L 446.514 174.307 L 446.514 167.314 L 453.507 167.314 L 453.507 173.801 Z M 459.642 180.934 L 466.635 180.934 L 466.635 187.927 L 459.642 187.927 Z M 452.662 187.937 L 459.655 187.937 L 459.655 194.93 L 452.662 194.93 Z M 459.876 195.07 L 466.869 195.07 L 466.869 202.063 L 459.876 202.063 Z M 473.774 173.801 L 473.774 180.794 L 466.781 180.794 L 466.781 174.307 L 460.867 174.307 L 460.867 167.314 L 467.86 167.314 L 467.86 173.801 Z M 467.015 187.937 L 474.008 187.937 L 474.008 194.93 L 467.015 194.93 Z M 252.43 145.929 L 259.423 145.929 L 259.423 152.922 L 252.43 152.922 Z M 259.645 153.061 L 266.638 153.061 L 266.638 160.054 L 259.645 160.054 Z M 252.664 160.065 L 259.657 160.065 L 259.657 167.058 L 252.664 167.058 Z M 266.784 145.929 L 273.777 145.929 L 273.777 152.922 L 266.784 152.922 Z M 273.998 153.061 L 280.991 153.061 L 280.991 160.054 L 273.998 160.054 Z M 267.018 160.065 L 274.011 160.065 L 274.011 167.058 L 267.018 167.058 Z M 281.137 145.929 L 288.13 145.929 L 288.13 152.922 L 281.137 152.922 Z M 288.351 153.061 L 295.344 153.061 L 295.344 160.054 L 288.351 160.054 Z M 281.371 160.065 L 288.364 160.065 L 288.364 167.058 L 281.371 167.058 Z M 295.49 145.929 L 302.483 145.929 L 302.483 152.922 L 295.49 152.922 Z M 302.705 153.061 L 309.698 153.061 L 309.698 160.054 L 302.705 160.054 Z M 295.724 160.065 L 302.717 160.065 L 302.717 167.058 L 295.724 167.058 Z M 309.811 146.046 L 316.804 146.046 L 316.804 153.039 L 309.811 153.039 Z M 317.025 153.178 L 324.018 153.178 L 324.018 160.171 L 317.025 160.171 Z M 310.045 160.182 L 317.038 160.182 L 317.038 167.175 L 310.045 167.175 Z M 324.164 146.046 L 331.157 146.046 L 331.157 153.039 L 324.164 153.039 Z M 331.379 153.178 L 338.372 153.178 L 338.372 160.171 L 331.379 160.171 Z M 324.398 160.182 L 331.391 160.182 L 331.391 167.175 L 324.398 167.175 Z M 338.517 146.046 L 345.51 146.046 L 345.51 153.039 L 338.517 153.039 Z M 345.732 153.178 L 352.725 153.178 L 352.725 160.171 L 345.732 160.171 Z M 338.752 160.182 L 345.745 160.182 L 345.745 167.175 L 338.752 167.175 Z M 352.871 146.046 L 359.864 146.046 L 359.864 153.039 L 352.871 153.039 Z M 360.085 153.178 L 367.078 153.178 L 367.078 160.171 L 360.085 160.171 Z M 353.105 160.182 L 360.098 160.182 L 360.098 167.175 L 353.105 167.175 Z M 367.331 145.929 L 374.324 145.929 L 374.324 152.922 L 367.331 152.922 Z M 374.546 153.061 L 381.539 153.061 L 381.539 160.054 L 374.546 160.054 Z M 367.566 160.065 L 374.559 160.065 L 374.559 167.058 L 367.566 167.058 Z M 381.685 145.929 L 388.678 145.929 L 388.678 152.922 L 381.685 152.922 Z M 388.899 153.061 L 395.892 153.061 L 395.892 160.054 L 388.899 160.054 Z M 381.919 160.065 L 388.912 160.065 L 388.912 167.058 L 381.919 167.058 Z M 396.038 145.929 L 403.031 145.929 L 403.031 152.922 L 396.038 152.922 Z M 403.253 153.061 L 410.246 153.061 L 410.246 160.054 L 403.253 160.054 Z M 396.272 160.065 L 403.265 160.065 L 403.265 167.058 L 396.272 167.058 Z M 410.391 145.929 L 417.384 145.929 L 417.384 152.922 L 410.391 152.922 Z M 417.606 153.061 L 424.599 153.061 L 424.599 160.054 L 417.606 160.054 Z M 410.626 160.065 L 417.619 160.065 L 417.619 167.058 L 410.626 167.058 Z M 424.712 146.046 L 431.705 146.046 L 431.705 153.039 L 424.712 153.039 Z M 431.927 153.178 L 438.92 153.178 L 438.92 160.171 L 431.927 160.171 Z M 424.946 160.182 L 431.939 160.182 L 431.939 167.175 L 424.946 167.175 Z M 439.065 146.046 L 446.058 146.046 L 446.058 153.039 L 439.065 153.039 Z M 446.28 153.178 L 453.273 153.178 L 453.273 160.171 L 446.28 160.171 Z M 439.3 160.182 L 446.293 160.182 L 446.293 167.175 L 439.3 167.175 Z M 453.419 146.046 L 460.412 146.046 L 460.412 153.039 L 453.419 153.039 Z M 460.633 153.178 L 467.626 153.178 L 467.626 160.171 L 460.633 160.171 Z M 453.653 160.182 L 460.646 160.182 L 460.646 167.175 L 453.653 167.175 Z M 467.772 146.046 L 474.765 146.046 L 474.765 153.039 L 467.772 153.039 Z M 468.006 160.182 L 474.999 160.182 L 474.999 167.175 L 468.006 167.175 Z M 26.904 237.135 L 33.897 237.135 L 33.897 244.128 L 26.904 244.128 Z M 27.138 251.271 L 34.131 251.271 L 34.131 258.264 L 27.138 258.264 Z M 41.036 230.003 L 41.036 236.996 L 34.043 236.996 L 34.043 230.509 L 28.129 230.509 L 28.129 223.516 L 35.122 223.516 L 35.122 230.003 Z M 41.257 237.135 L 48.25 237.135 L 48.25 244.128 L 41.257 244.128 Z M 34.277 244.139 L 41.27 244.139 L 41.27 251.132 L 34.277 251.132 Z M 41.491 251.271 L 48.484 251.271 L 48.484 258.264 L 41.491 258.264 Z M 55.389 230.003 L 55.389 236.996 L 48.396 236.996 L 48.396 230.509 L 42.483 230.509 L 42.483 223.516 L 49.476 223.516 L 49.476 230.003 Z M 55.61 237.135 L 62.603 237.135 L 62.603 244.128 L 55.61 244.128 Z M 48.63 244.139 L 55.623 244.139 L 55.623 251.132 L 48.63 251.132 Z M 55.845 251.271 L 62.838 251.271 L 62.838 258.264 L 55.845 258.264 Z M 69.742 230.003 L 69.742 236.996 L 62.749 236.996 L 62.749 230.509 L 56.836 230.509 L 56.836 223.516 L 63.829 223.516 L 63.829 230.003 Z M 69.964 237.135 L 76.957 237.135 L 76.957 244.128 L 69.964 244.128 Z M 62.983 244.139 L 69.976 244.139 L 69.976 251.132 L 62.983 251.132 Z M 70.198 251.271 L 77.191 251.271 L 77.191 258.264 L 70.198 258.264 Z M 84.063 230.12 L 84.063 237.113 L 77.07 237.113 L 77.07 230.509 L 71.189 230.509 L 71.189 223.516 L 78.182 223.516 L 78.182 230.12 Z M 84.284 237.252 L 91.277 237.252 L 91.277 244.245 L 84.284 244.245 Z M 77.304 244.256 L 84.297 244.256 L 84.297 251.249 L 77.304 251.249 Z M 84.519 251.388 L 91.512 251.388 L 91.512 258.381 L 84.519 258.381 Z M 98.416 230.12 L 98.416 237.113 L 91.423 237.113 L 91.423 230.626 L 85.51 230.626 L 85.51 223.633 L 92.503 223.633 L 92.503 230.12 Z M 98.638 237.252 L 105.631 237.252 L 105.631 244.245 L 98.638 244.245 Z M 91.657 244.256 L 98.65 244.256 L 98.65 251.249 L 91.657 251.249 Z M 98.872 251.388 L 105.865 251.388 L 105.865 258.381 L 98.872 258.381 Z M 112.769 230.12 L 112.769 237.113 L 105.776 237.113 L 105.776 230.626 L 99.863 230.626 L 99.863 223.633 L 106.856 223.633 L 106.856 230.12 Z M 112.991 237.252 L 119.984 237.252 L 119.984 244.245 L 112.991 244.245 Z M 106.011 244.256 L 113.004 244.256 L 113.004 251.249 L 106.011 251.249 Z M 113.225 251.388 L 120.218 251.388 L 120.218 258.381 L 113.225 258.381 Z M 127.123 230.12 L 127.123 237.113 L 120.13 237.113 L 120.13 230.626 L 114.217 230.626 L 114.217 223.633 L 121.21 223.633 L 121.21 230.12 Z M 127.344 237.252 L 134.337 237.252 L 134.337 244.245 L 127.344 244.245 Z M 120.364 244.256 L 127.357 244.256 L 127.357 251.249 L 120.364 251.249 Z M 127.579 251.388 L 134.572 251.388 L 134.572 258.381 L 127.579 258.381 Z M 141.583 230.003 L 141.583 236.996 L 134.59 236.996 L 134.59 230.626 L 128.57 230.626 L 128.57 223.633 L 135.563 223.633 L 135.563 230.003 Z M 141.805 237.135 L 148.798 237.135 L 148.798 244.128 L 141.805 244.128 Z M 134.825 244.139 L 141.818 244.139 L 141.818 251.132 L 134.825 251.132 Z M 142.039 251.271 L 149.032 251.271 L 149.032 258.264 L 142.039 258.264 Z M 155.937 230.003 L 155.937 236.996 L 148.944 236.996 L 148.944 230.509 L 143.03 230.509 L 143.03 223.516 L 150.023 223.516 L 150.023 230.003 Z M 156.158 237.135 L 163.151 237.135 L 163.151 244.128 L 156.158 244.128 Z M 149.178 244.139 L 156.171 244.139 L 156.171 251.132 L 149.178 251.132 Z M 156.393 251.271 L 163.386 251.271 L 163.386 258.264 L 156.393 258.264 Z M 170.29 230.003 L 170.29 236.996 L 163.297 236.996 L 163.297 230.509 L 157.384 230.509 L 157.384 223.516 L 164.377 223.516 L 164.377 230.003 Z M 170.512 237.135 L 177.505 237.135 L 177.505 244.128 L 170.512 244.128 Z M 163.531 244.139 L 170.524 244.139 L 170.524 251.132 L 163.531 251.132 Z M 170.746 251.271 L 177.739 251.271 L 177.739 258.264 L 170.746 258.264 Z M 184.643 230.003 L 184.643 236.996 L 177.65 236.996 L 177.65 230.509 L 171.737 230.509 L 171.737 223.516 L 178.73 223.516 L 178.73 230.003 Z M 184.865 237.135 L 191.858 237.135 L 191.858 244.128 L 184.865 244.128 Z M 177.885 244.139 L 184.878 244.139 L 184.878 251.132 L 177.885 251.132 Z M 185.099 251.271 L 192.092 251.271 L 192.092 258.264 L 185.099 258.264 Z M 198.964 230.12 L 198.964 237.113 L 191.971 237.113 L 191.971 230.509 L 186.09 230.509 L 186.09 223.516 L 193.083 223.516 L 193.083 230.12 Z M 199.186 237.252 L 206.179 237.252 L 206.179 244.245 L 199.186 244.245 Z M 192.205 244.256 L 199.198 244.256 L 199.198 251.249 L 192.205 251.249 Z M 199.42 251.388 L 206.413 251.388 L 206.413 258.381 L 199.42 258.381 Z M 213.317 230.12 L 213.317 237.113 L 206.324 237.113 L 206.324 230.626 L 200.411 230.626 L 200.411 223.633 L 207.404 223.633 L 207.404 230.12 Z M 213.539 237.252 L 220.532 237.252 L 220.532 244.245 L 213.539 244.245 Z M 206.559 244.256 L 213.552 244.256 L 213.552 251.249 L 206.559 251.249 Z M 213.773 251.388 L 220.766 251.388 L 220.766 258.381 L 213.773 258.381 Z M 227.671 230.12 L 227.671 237.113 L 220.678 237.113 L 220.678 230.626 L 214.764 230.626 L 214.764 223.633 L 221.757 223.633 L 221.757 230.12 Z M 227.892 237.252 L 234.885 237.252 L 234.885 244.245 L 227.892 244.245 Z M 220.912 244.256 L 227.905 244.256 L 227.905 251.249 L 220.912 251.249 Z M 228.126 251.388 L 235.119 251.388 L 235.119 258.381 L 228.126 258.381 Z M 242.024 230.12 L 242.024 237.113 L 235.031 237.113 L 235.031 230.626 L 229.118 230.626 L 229.118 223.633 L 236.111 223.633 L 236.111 230.12 Z M 242.246 237.252 L 249.239 237.252 L 249.239 244.245 L 242.246 244.245 Z M 235.265 244.256 L 242.258 244.256 L 242.258 251.249 L 235.265 251.249 Z M 242.48 251.388 L 249.473 251.388 L 249.473 258.381 L 242.48 258.381 Z M 27.895 209.38 L 34.888 209.38 L 34.888 216.373 L 27.895 216.373 Z M 35.034 202.247 L 42.027 202.247 L 42.027 209.24 L 35.034 209.24 Z M 42.248 209.38 L 49.241 209.38 L 49.241 216.373 L 42.248 216.373 Z M 35.268 216.383 L 42.261 216.383 L 42.261 223.376 L 35.268 223.376 Z M 49.387 202.247 L 56.38 202.247 L 56.38 209.24 L 49.387 209.24 Z M 56.602 209.38 L 63.595 209.38 L 63.595 216.373 L 56.602 216.373 Z M 49.621 216.383 L 56.614 216.383 L 56.614 223.376 L 49.621 223.376 Z M 63.74 202.247 L 70.733 202.247 L 70.733 209.24 L 63.74 209.24 Z M 70.955 209.38 L 77.948 209.38 L 77.948 216.373 L 70.955 216.373 Z M 63.975 216.383 L 70.968 216.383 L 70.968 223.376 L 63.975 223.376 Z M 78.061 202.364 L 85.054 202.364 L 85.054 209.357 L 78.061 209.357 Z M 85.276 209.497 L 92.269 209.497 L 92.269 216.49 L 85.276 216.49 Z M 78.295 216.5 L 85.288 216.5 L 85.288 223.493 L 78.295 223.493 Z M 92.414 202.364 L 99.407 202.364 L 99.407 209.357 L 92.414 209.357 Z M 99.629 209.497 L 106.622 209.497 L 106.622 216.49 L 99.629 216.49 Z M 92.649 216.5 L 99.642 216.5 L 99.642 223.493 L 92.649 223.493 Z M 106.768 202.364 L 113.761 202.364 L 113.761 209.357 L 106.768 209.357 Z M 113.982 209.497 L 120.975 209.497 L 120.975 216.49 L 113.982 216.49 Z M 107.002 216.5 L 113.995 216.5 L 113.995 223.493 L 107.002 223.493 Z M 121.121 202.364 L 128.114 202.364 L 128.114 209.357 L 121.121 209.357 Z M 128.336 209.497 L 135.329 209.497 L 135.329 216.49 L 128.336 216.49 Z M 121.355 216.5 L 128.348 216.5 L 128.348 223.493 L 121.355 223.493 Z M 135.582 202.247 L 142.575 202.247 L 142.575 209.24 L 135.582 209.24 Z M 142.796 209.38 L 149.789 209.38 L 149.789 216.373 L 142.796 216.373 Z M 135.816 216.383 L 142.809 216.383 L 142.809 223.376 L 135.816 223.376 Z M 149.935 202.247 L 156.928 202.247 L 156.928 209.24 L 149.935 209.24 Z M 157.15 209.38 L 164.143 209.38 L 164.143 216.373 L 157.15 216.373 Z M 150.169 216.383 L 157.162 216.383 L 157.162 223.376 L 150.169 223.376 Z M 164.288 202.247 L 171.281 202.247 L 171.281 209.24 L 164.288 209.24 Z M 171.503 209.38 L 178.496 209.38 L 178.496 216.373 L 171.503 216.373 Z M 164.523 216.383 L 171.516 216.383 L 171.516 223.376 L 164.523 223.376 Z M 178.642 202.247 L 185.635 202.247 L 185.635 209.24 L 178.642 209.24 Z M 185.856 209.38 L 192.849 209.38 L 192.849 216.373 L 185.856 216.373 Z M 178.876 216.383 L 185.869 216.383 L 185.869 223.376 L 178.876 223.376 Z M 192.962 202.364 L 199.955 202.364 L 199.955 209.357 L 192.962 209.357 Z M 200.177 209.497 L 207.17 209.497 L 207.17 216.49 L 200.177 216.49 Z M 193.197 216.5 L 200.19 216.5 L 200.19 223.493 L 193.197 223.493 Z M 207.316 202.364 L 214.309 202.364 L 214.309 209.357 L 207.316 209.357 Z M 214.53 209.497 L 221.523 209.497 L 221.523 216.49 L 214.53 216.49 Z M 207.55 216.5 L 214.543 216.5 L 214.543 223.493 L 207.55 223.493 Z M 221.669 202.364 L 228.662 202.364 L 228.662 209.357 L 221.669 209.357 Z M 228.884 209.497 L 235.877 209.497 L 235.877 216.49 L 228.884 216.49 Z M 221.903 216.5 L 228.896 216.5 L 228.896 223.493 L 221.903 223.493 Z M 236.022 202.364 L 243.015 202.364 L 243.015 209.357 L 236.022 209.357 Z M 243.237 209.497 L 250.23 209.497 L 250.23 216.49 L 243.237 216.49 Z M 236.257 216.5 L 243.25 216.5 L 243.25 223.493 L 236.257 223.493 Z M 243.471 223.633 L 250.464 223.633 L 250.464 230.003 L 257.041 230.003 L 257.041 236.996 L 250.048 236.996 L 250.048 230.626 L 243.471 230.626 Z M 257.263 237.135 L 264.256 237.135 L 264.256 244.128 L 257.263 244.128 Z M 250.283 244.139 L 257.276 244.139 L 257.276 251.132 L 250.283 251.132 Z M 257.497 251.271 L 264.49 251.271 L 264.49 258.264 L 257.497 258.264 Z M 271.395 230.003 L 271.395 236.996 L 264.402 236.996 L 264.402 230.509 L 258.488 230.509 L 258.488 223.516 L 265.481 223.516 L 265.481 230.003 Z M 271.616 237.135 L 278.609 237.135 L 278.609 244.128 L 271.616 244.128 Z M 264.636 244.139 L 271.629 244.139 L 271.629 251.132 L 264.636 251.132 Z M 271.85 251.271 L 278.843 251.271 L 278.843 258.11 L 285.282 258.11 L 285.282 265.103 L 278.289 265.103 L 278.289 258.264 L 271.85 258.264 Z M 285.748 230.003 L 285.748 236.996 L 278.755 236.996 L 278.755 230.509 L 272.842 230.509 L 272.842 223.516 L 279.835 223.516 L 279.835 230.003 Z M 285.97 237.135 L 292.963 237.135 L 292.963 244.128 L 285.97 244.128 Z M 278.989 244.139 L 285.982 244.139 L 285.982 251.132 L 278.989 251.132 Z M 286.204 251.271 L 293.197 251.271 L 293.197 258.264 L 286.204 258.264 Z M 300.101 230.003 L 300.101 236.996 L 293.108 236.996 L 293.108 230.509 L 287.195 230.509 L 287.195 223.516 L 294.188 223.516 L 294.188 230.003 Z M 300.323 237.135 L 307.316 237.135 L 307.316 244.128 L 300.323 244.128 Z M 293.343 244.139 L 300.336 244.139 L 300.336 251.132 L 293.343 251.132 Z M 300.557 251.271 L 307.55 251.271 L 307.55 258.11 L 314.396 258.11 L 314.396 265.103 L 307.403 265.103 L 307.403 258.264 L 300.557 258.264 Z M 314.422 230.12 L 314.422 237.113 L 307.429 237.113 L 307.429 230.509 L 301.548 230.509 L 301.548 223.516 L 308.541 223.516 L 308.541 230.12 Z M 314.644 237.252 L 321.637 237.252 L 321.637 244.245 L 314.644 244.245 Z M 307.663 244.256 L 314.656 244.256 L 314.656 251.249 L 307.663 251.249 Z M 314.878 251.388 L 321.871 251.388 L 321.871 258.381 L 314.878 258.381 Z M 328.775 230.12 L 328.775 237.113 L 321.782 237.113 L 321.782 230.626 L 315.869 230.626 L 315.869 223.633 L 322.862 223.633 L 322.862 230.12 Z M 328.997 237.252 L 335.99 237.252 L 335.99 244.245 L 328.997 244.245 Z M 322.017 244.256 L 329.01 244.256 L 329.01 251.249 L 322.017 251.249 Z M 329.231 251.388 L 336.224 251.388 L 336.224 258.381 L 329.231 258.381 Z M 343.129 230.12 L 343.129 237.113 L 336.136 237.113 L 336.136 230.626 L 330.222 230.626 L 330.222 223.633 L 337.215 223.633 L 337.215 230.12 Z M 343.35 237.252 L 350.343 237.252 L 350.343 244.245 L 343.35 244.245 Z M 336.37 244.256 L 343.363 244.256 L 343.363 251.249 L 336.37 251.249 Z M 343.584 251.388 L 350.577 251.388 L 350.577 258.381 L 343.584 258.381 Z M 357.482 230.12 L 357.482 237.113 L 350.489 237.113 L 350.489 230.626 L 344.576 230.626 L 344.576 223.633 L 351.569 223.633 L 351.569 230.12 Z M 357.704 237.252 L 364.697 237.252 L 364.697 244.245 L 357.704 244.245 Z M 350.723 244.256 L 357.716 244.256 L 357.716 251.249 L 350.723 251.249 Z M 357.938 251.388 L 364.931 251.388 L 364.931 258.381 L 357.938 258.381 Z M 371.943 230.003 L 371.943 236.996 L 364.95 236.996 L 364.95 230.626 L 358.929 230.626 L 358.929 223.633 L 365.922 223.633 L 365.922 230.003 Z M 372.164 237.135 L 379.157 237.135 L 379.157 244.128 L 372.164 244.128 Z M 365.184 244.139 L 372.177 244.139 L 372.177 251.132 L 365.184 251.132 Z M 372.398 251.271 L 379.391 251.271 L 379.391 258.264 L 372.398 258.264 Z M 386.296 230.003 L 386.296 236.996 L 379.303 236.996 L 379.303 230.509 L 373.39 230.509 L 373.39 223.516 L 380.383 223.516 L 380.383 230.003 Z M 386.517 237.135 L 393.51 237.135 L 393.51 244.128 L 386.517 244.128 Z M 379.537 244.139 L 386.53 244.139 L 386.53 251.132 L 379.537 251.132 Z M 386.752 251.271 L 393.745 251.271 L 393.745 258.264 L 386.752 258.264 Z M 400.649 230.003 L 400.649 236.996 L 393.656 236.996 L 393.656 230.509 L 387.743 230.509 L 387.743 223.516 L 394.736 223.516 L 394.736 230.003 Z M 400.871 237.135 L 407.864 237.135 L 407.864 244.128 L 400.871 244.128 Z M 393.89 244.139 L 400.883 244.139 L 400.883 251.132 L 393.89 251.132 Z M 401.105 251.271 L 408.098 251.271 L 408.098 258.264 L 401.105 258.264 Z M 415.002 230.003 L 415.002 236.996 L 408.009 236.996 L 408.009 230.509 L 402.096 230.509 L 402.096 223.516 L 409.089 223.516 L 409.089 230.003 Z M 415.224 237.135 L 422.217 237.135 L 422.217 244.128 L 415.224 244.128 Z M 408.244 244.139 L 415.237 244.139 L 415.237 251.132 L 408.244 251.132 Z M 415.458 251.271 L 422.451 251.271 L 422.451 258.264 L 415.458 258.264 Z M 429.323 230.12 L 429.323 237.113 L 422.33 237.113 L 422.33 230.509 L 416.45 230.509 L 416.45 223.516 L 423.443 223.516 L 423.443 230.12 Z M 429.545 237.252 L 436.538 237.252 L 436.538 244.245 L 429.545 244.245 Z M 422.564 244.256 L 429.557 244.256 L 429.557 251.249 L 422.564 251.249 Z M 429.779 251.388 L 436.772 251.388 L 436.772 258.381 L 429.779 258.381 Z M 443.676 230.12 L 443.676 237.113 L 436.683 237.113 L 436.683 230.626 L 430.77 230.626 L 430.77 223.633 L 437.763 223.633 L 437.763 230.12 Z M 443.898 237.252 L 450.891 237.252 L 450.891 244.245 L 443.898 244.245 Z M 436.918 244.256 L 443.911 244.256 L 443.911 251.249 L 436.918 251.249 Z M 444.132 251.388 L 451.125 251.388 L 451.125 258.381 L 444.132 258.381 Z M 458.03 230.12 L 458.03 237.113 L 451.037 237.113 L 451.037 230.626 L 445.124 230.626 L 445.124 223.633 L 452.117 223.633 L 452.117 230.12 Z M 458.251 237.252 L 465.244 237.252 L 465.244 244.245 L 458.251 244.245 Z M 451.271 244.256 L 458.264 244.256 L 458.264 251.249 L 451.271 251.249 Z M 458.486 251.388 L 465.479 251.388 L 465.479 258.381 L 458.486 258.381 Z M 472.383 230.12 L 472.383 237.113 L 465.39 237.113 L 465.39 230.626 L 459.477 230.626 L 459.477 223.633 L 466.47 223.633 L 466.47 230.12 Z M 472.605 237.252 L 479.598 237.252 L 479.598 244.245 L 472.605 244.245 Z M 465.624 244.256 L 472.617 244.256 L 472.617 251.249 L 465.624 251.249 Z M 472.839 251.388 L 479.832 251.388 L 479.832 258.381 L 472.839 258.381 Z M 251.04 202.247 L 258.033 202.247 L 258.033 209.24 L 251.04 209.24 Z M 258.254 209.38 L 265.247 209.38 L 265.247 216.373 L 258.254 216.373 Z M 251.274 216.383 L 258.267 216.383 L 258.267 223.376 L 251.274 223.376 Z M 265.393 202.247 L 272.386 202.247 L 272.386 209.24 L 265.393 209.24 Z M 272.608 209.38 L 279.601 209.38 L 279.601 216.373 L 272.608 216.373 Z M 265.627 216.383 L 272.62 216.383 L 272.62 223.376 L 265.627 223.376 Z M 279.746 202.247 L 286.739 202.247 L 286.739 209.24 L 279.746 209.24 Z M 286.961 209.38 L 293.954 209.38 L 293.954 216.373 L 286.961 216.373 Z M 279.981 216.383 L 286.974 216.383 L 286.974 223.376 L 279.981 223.376 Z M 294.1 202.247 L 301.093 202.247 L 301.093 209.24 L 294.1 209.24 Z M 301.314 209.38 L 308.307 209.38 L 308.307 216.373 L 301.314 216.373 Z M 294.334 216.383 L 301.327 216.383 L 301.327 223.376 L 294.334 223.376 Z M 308.42 202.364 L 315.413 202.364 L 315.413 209.357 L 308.42 209.357 Z M 315.635 209.497 L 322.628 209.497 L 322.628 216.49 L 315.635 216.49 Z M 308.655 216.5 L 315.648 216.5 L 315.648 223.493 L 308.655 223.493 Z M 322.774 202.364 L 329.767 202.364 L 329.767 209.357 L 322.774 209.357 Z M 329.988 209.497 L 336.981 209.497 L 336.981 216.49 L 329.988 216.49 Z M 323.008 216.5 L 330.001 216.5 L 330.001 223.493 L 323.008 223.493 Z M 337.127 202.364 L 344.12 202.364 L 344.12 209.357 L 337.127 209.357 Z M 344.341 209.497 L 351.334 209.497 L 351.334 216.49 L 344.341 216.49 Z M 337.361 216.5 L 344.354 216.5 L 344.354 223.493 L 337.361 223.493 Z M 351.48 202.364 L 358.473 202.364 L 358.473 209.357 L 351.48 209.357 Z M 358.695 209.497 L 365.688 209.497 L 365.688 216.49 L 358.695 216.49 Z M 351.714 216.5 L 358.707 216.5 L 358.707 223.493 L 351.714 223.493 Z M 365.941 202.247 L 372.934 202.247 L 372.934 209.24 L 365.941 209.24 Z M 373.155 209.38 L 380.148 209.38 L 380.148 216.373 L 373.155 216.373 Z M 366.175 216.383 L 373.168 216.383 L 373.168 223.376 L 366.175 223.376 Z M 380.294 202.247 L 387.287 202.247 L 387.287 209.24 L 380.294 209.24 Z M 387.509 209.38 L 394.502 209.38 L 394.502 216.373 L 387.509 216.373 Z M 380.528 216.383 L 387.521 216.383 L 387.521 223.376 L 380.528 223.376 Z M 394.647 202.247 L 401.64 202.247 L 401.64 209.24 L 394.647 209.24 Z M 401.862 209.38 L 408.855 209.38 L 408.855 216.373 L 401.862 216.373 Z M 394.882 216.383 L 401.875 216.383 L 401.875 223.376 L 394.882 223.376 Z M 409.001 202.247 L 415.994 202.247 L 415.994 209.24 L 409.001 209.24 Z M 416.215 209.38 L 423.208 209.38 L 423.208 216.373 L 416.215 216.373 Z M 409.235 216.383 L 416.228 216.383 L 416.228 223.376 L 409.235 223.376 Z M 423.321 202.364 L 430.314 202.364 L 430.314 209.357 L 423.321 209.357 Z M 430.536 209.497 L 437.529 209.497 L 437.529 216.49 L 430.536 216.49 Z M 423.556 216.5 L 430.549 216.5 L 430.549 223.493 L 423.556 223.493 Z M 437.675 202.364 L 444.668 202.364 L 444.668 209.357 L 437.675 209.357 Z M 444.889 209.497 L 451.882 209.497 L 451.882 216.49 L 444.889 216.49 Z M 437.909 216.5 L 444.902 216.5 L 444.902 223.493 L 437.909 223.493 Z M 452.028 202.364 L 459.021 202.364 L 459.021 209.357 L 452.028 209.357 Z M 459.243 209.497 L 466.236 209.497 L 466.236 216.49 L 459.243 216.49 Z M 452.262 216.5 L 459.255 216.5 L 459.255 223.493 L 452.262 223.493 Z M 466.381 202.364 L 473.374 202.364 L 473.374 209.357 L 466.381 209.357 Z M 473.596 209.497 L 480.589 209.497 L 480.589 216.49 L 473.596 216.49 Z M 466.616 216.5 L 473.609 216.5 L 473.609 223.493 L 466.616 223.493 Z M 22.596 286.731 L 29.589 286.731 L 29.589 293.724 L 22.596 293.724 Z M 28.882 307.999 L 35.875 307.999 L 35.875 314.992 L 28.882 314.992 Z M 43.001 293.863 L 49.994 293.863 L 49.994 300.856 L 43.001 300.856 Z M 36.021 300.867 L 43.014 300.867 L 43.014 307.86 L 36.021 307.86 Z M 50.14 286.731 L 57.133 286.731 L 57.133 293.724 L 50.14 293.724 Z M 22.425 258.975 L 29.418 258.975 L 29.418 265.968 L 22.425 265.968 Z M 29.874 280.243 L 36.867 280.243 L 36.867 287.236 L 29.874 287.236 Z M 43.993 266.107 L 50.986 266.107 L 50.986 273.1 L 43.993 273.1 Z M 37.012 273.111 L 44.005 273.111 L 44.005 280.104 L 37.012 280.104 Z M 51.131 258.975 L 58.124 258.975 L 58.124 265.968 L 51.131 265.968 Z M 58.58 280.243 L 65.573 280.243 L 65.573 287.236 L 58.58 287.236 Z M 72.7 266.107 L 79.693 266.107 L 79.693 273.1 L 72.7 273.1 Z M 65.719 273.111 L 72.712 273.111 L 72.712 280.104 L 65.719 280.104 Z M 79.805 259.092 L 86.798 259.092 L 86.798 266.085 L 79.805 266.085 Z M 57.589 307.999 L 64.582 307.999 L 64.582 314.992 L 57.589 314.992 Z M 71.708 293.863 L 78.701 293.863 L 78.701 300.856 L 71.708 300.856 Z M 64.728 300.867 L 71.721 300.867 L 71.721 307.86 L 64.728 307.86 Z M 78.814 286.848 L 85.807 286.848 L 85.807 293.841 L 78.814 293.841 Z M 86.092 280.36 L 93.085 280.36 L 93.085 287.353 L 86.092 287.353 Z M 100.211 266.224 L 107.204 266.224 L 107.204 273.217 L 100.211 273.217 Z M 93.231 273.228 L 100.224 273.228 L 100.224 280.221 L 93.231 280.221 Z M 107.35 259.092 L 114.343 259.092 L 114.343 266.085 L 107.35 266.085 Z M 28.483 336.562 L 35.476 336.562 L 35.476 343.555 L 28.483 343.555 Z M 42.602 322.426 L 49.595 322.426 L 49.595 329.419 L 42.602 329.419 Z M 35.622 329.429 L 42.615 329.429 L 42.615 336.422 L 35.622 336.422 Z M 49.741 315.293 L 56.734 315.293 L 56.734 322.286 L 49.741 322.286 Z M 85.067 307.345 L 92.06 307.345 L 92.06 314.338 L 85.067 314.338 Z M 99.186 293.208 L 106.179 293.208 L 106.179 300.201 L 99.186 300.201 Z M 92.206 300.213 L 99.199 300.213 L 99.199 307.206 L 92.206 307.206 Z M 106.292 286.194 L 113.285 286.194 L 113.285 293.187 L 106.292 293.187 Z M 113.57 279.706 L 120.563 279.706 L 120.563 286.699 L 113.57 286.699 Z M 127.689 265.57 L 134.682 265.57 L 134.682 272.563 L 127.689 272.563 Z M 120.709 272.574 L 127.702 272.574 L 127.702 279.567 L 120.709 279.567 Z M 134.828 258.437 L 141.821 258.437 L 141.821 265.43 L 134.828 265.43 Z M 48.359 342.814 L 55.352 342.814 L 55.352 349.807 L 48.359 349.807 Z M 55.961 335.908 L 62.954 335.908 L 62.954 342.901 L 55.961 342.901 Z M 70.08 321.772 L 77.073 321.772 L 77.073 328.765 L 70.08 328.765 Z M 63.1 328.775 L 70.093 328.775 L 70.093 335.768 L 63.1 335.768 Z M 77.219 314.639 L 84.212 314.639 L 84.212 321.632 L 77.219 321.632 Z M 113.854 307.345 L 120.847 307.345 L 120.847 314.338 L 113.854 314.338 Z M 127.973 293.209 L 134.966 293.209 L 134.966 300.202 L 127.973 300.202 Z M 120.993 300.213 L 127.986 300.213 L 127.986 307.206 L 120.993 307.206 Z M 135.079 286.194 L 142.072 286.194 L 142.072 293.187 L 135.079 293.187 Z M 142.357 279.706 L 149.35 279.706 L 149.35 286.699 L 142.357 286.699 Z M 156.476 265.57 L 163.469 265.57 L 163.469 272.563 L 156.476 272.563 Z M 149.496 272.574 L 156.489 272.574 L 156.489 279.567 L 149.496 279.567 Z M 163.615 258.438 L 170.608 258.438 L 170.608 265.431 L 163.615 265.431 Z M 77.146 342.815 L 84.139 342.815 L 84.139 349.808 L 77.146 349.808 Z M 84.748 335.908 L 91.741 335.908 L 91.741 342.901 L 84.748 342.901 Z M 98.867 321.772 L 105.86 321.772 L 105.86 328.765 L 98.867 328.765 Z M 91.887 328.775 L 98.88 328.775 L 98.88 335.768 L 91.887 335.768 Z M 106.006 314.639 L 112.999 314.639 L 112.999 321.632 L 106.006 321.632 Z M 142.968 307.345 L 149.961 307.345 L 149.961 314.338 L 142.968 314.338 Z M 157.087 293.209 L 164.08 293.209 L 164.08 300.202 L 157.087 300.202 Z M 150.107 300.213 L 157.1 300.213 L 157.1 307.206 L 150.107 307.206 Z M 164.193 286.194 L 171.186 286.194 L 171.186 293.187 L 164.193 293.187 Z M 171.47 279.706 L 178.463 279.706 L 178.463 286.699 L 171.47 286.699 Z M 185.59 265.57 L 192.583 265.57 L 192.583 272.563 L 185.59 272.563 Z M 178.609 272.574 L 185.602 272.574 L 185.602 279.567 L 178.609 279.567 Z M 192.729 258.438 L 199.722 258.438 L 199.722 265.431 L 192.729 265.431 Z M 106.259 342.815 L 113.252 342.815 L 113.252 349.808 L 106.259 349.808 Z M 113.862 335.908 L 120.855 335.908 L 120.855 342.901 L 113.862 342.901 Z M 127.981 321.772 L 134.974 321.772 L 134.974 328.765 L 127.981 328.765 Z M 121.001 328.775 L 127.994 328.775 L 127.994 335.768 L 121.001 335.768 Z M 135.119 314.639 L 142.112 314.639 L 142.112 321.632 L 135.119 321.632 Z M 171.1 307.672 L 178.093 307.672 L 178.093 314.665 L 171.1 314.665 Z M 185.22 293.536 L 192.213 293.536 L 192.213 300.529 L 185.22 300.529 Z M 178.239 300.54 L 185.232 300.54 L 185.232 307.533 L 178.239 307.533 Z M 192.325 286.521 L 199.318 286.521 L 199.318 293.514 L 192.325 293.514 Z M 199.603 280.033 L 206.596 280.033 L 206.596 287.026 L 199.603 287.026 Z M 213.722 265.897 L 220.715 265.897 L 220.715 272.89 L 213.722 272.89 Z M 206.742 272.901 L 213.735 272.901 L 213.735 279.894 L 206.742 279.894 Z M 220.861 258.765 L 227.854 258.765 L 227.854 265.758 L 220.861 265.758 Z M 134.392 343.142 L 141.385 343.142 L 141.385 350.135 L 134.392 350.135 Z M 141.994 336.235 L 148.987 336.235 L 148.987 343.228 L 141.994 343.228 Z M 156.113 322.099 L 163.106 322.099 L 163.106 329.092 L 156.113 329.092 Z M 149.133 329.102 L 156.126 329.102 L 156.126 336.095 L 149.133 336.095 Z M 163.252 314.966 L 170.245 314.966 L 170.245 321.959 L 163.252 321.959 Z M 199.741 307.018 L 206.734 307.018 L 206.734 314.011 L 199.741 314.011 Z M 213.861 292.881 L 220.854 292.881 L 220.854 299.874 L 213.861 299.874 Z M 206.88 299.886 L 213.873 299.886 L 213.873 306.879 L 206.88 306.879 Z M 220.966 285.867 L 227.959 285.867 L 227.959 292.86 L 220.966 292.86 Z M 228.244 279.379 L 235.237 279.379 L 235.237 286.372 L 228.244 286.372 Z M 242.363 265.243 L 249.356 265.243 L 249.356 272.236 L 242.363 272.236 Z M 235.383 272.247 L 242.376 272.247 L 242.376 279.24 L 235.383 279.24 Z M 249.502 258.11 L 256.495 258.11 L 256.495 265.103 L 249.502 265.103 Z M 163.033 342.487 L 170.026 342.487 L 170.026 349.48 L 163.033 349.48 Z M 170.635 335.581 L 177.628 335.581 L 177.628 342.574 L 170.635 342.574 Z M 184.754 321.445 L 191.747 321.445 L 191.747 328.438 L 184.754 328.438 Z M 177.774 328.448 L 184.767 328.448 L 184.767 335.441 L 177.774 335.441 Z M 191.893 314.312 L 198.886 314.312 L 198.886 321.305 L 191.893 321.305 Z M 228.528 307.018 L 235.521 307.018 L 235.521 314.011 L 228.528 314.011 Z M 242.647 292.881 L 249.64 292.881 L 249.64 299.874 L 242.647 299.874 Z M 235.667 299.886 L 242.66 299.886 L 242.66 306.879 L 235.667 306.879 Z M 249.753 285.867 L 256.746 285.867 L 256.746 292.86 L 249.753 292.86 Z M 257.03 279.379 L 264.023 279.379 L 264.023 286.372 L 257.03 286.372 Z M 271.15 265.243 L 278.143 265.243 L 278.143 272.236 L 271.15 272.236 Z M 264.169 272.247 L 271.162 272.247 L 271.162 279.24 L 264.169 279.24 Z M 191.819 342.487 L 198.812 342.487 L 198.812 349.48 L 191.819 349.48 Z M 199.422 335.581 L 206.415 335.581 L 206.415 342.574 L 199.422 342.574 Z M 213.541 321.445 L 220.534 321.445 L 220.534 328.438 L 213.541 328.438 Z M 206.561 328.448 L 213.554 328.448 L 213.554 335.441 L 206.561 335.441 Z M 220.68 314.312 L 227.673 314.312 L 227.673 321.305 L 220.68 321.305 Z M 257.642 307.018 L 264.635 307.018 L 264.635 314.011 L 257.642 314.011 Z M 271.761 292.881 L 278.754 292.881 L 278.754 299.874 L 271.761 299.874 Z M 264.781 299.886 L 271.774 299.886 L 271.774 306.879 L 264.781 306.879 Z M 278.867 285.867 L 285.86 285.867 L 285.86 292.86 L 278.867 292.86 Z M 286.144 279.379 L 293.137 279.379 L 293.137 286.372 L 286.144 286.372 Z M 300.264 265.243 L 307.257 265.243 L 307.257 272.236 L 300.264 272.236 Z M 293.283 272.247 L 300.276 272.247 L 300.276 279.24 L 293.283 279.24 Z M 220.933 342.487 L 227.926 342.487 L 227.926 349.48 L 220.933 349.48 Z M 228.536 335.581 L 235.529 335.581 L 235.529 342.574 L 228.536 342.574 Z M 242.655 321.445 L 249.648 321.445 L 249.648 328.438 L 242.655 328.438 Z M 235.675 328.448 L 242.668 328.448 L 242.668 335.441 L 235.675 335.441 Z M 249.794 314.312 L 256.787 314.312 L 256.787 321.305 L 249.794 321.305 Z M 286.818 308.101 L 293.811 308.101 L 293.811 315.094 L 286.818 315.094 Z M 300.937 293.965 L 307.93 293.965 L 307.93 300.958 L 300.937 300.958 Z M 293.957 300.969 L 300.95 300.969 L 300.95 307.962 L 293.957 307.962 Z M 308.043 286.95 L 315.036 286.95 L 315.036 293.943 L 308.043 293.943 Z M 315.321 280.463 L 322.314 280.463 L 322.314 287.456 L 315.321 287.456 Z M 329.44 266.327 L 336.433 266.327 L 336.433 273.32 L 329.44 273.32 Z M 322.46 273.33 L 329.453 273.33 L 329.453 280.323 L 322.46 280.323 Z M 336.579 259.194 L 343.572 259.194 L 343.572 266.187 L 336.579 266.187 Z M 250.11 343.571 L 257.103 343.571 L 257.103 350.564 L 250.11 350.564 Z M 257.712 336.664 L 264.705 336.664 L 264.705 343.657 L 257.712 343.657 Z M 271.831 322.528 L 278.824 322.528 L 278.824 329.521 L 271.831 329.521 Z M 264.851 329.532 L 271.844 329.532 L 271.844 336.525 L 264.851 336.525 Z M 278.97 315.396 L 285.963 315.396 L 285.963 322.389 L 278.97 322.389 Z M 315.459 307.447 L 322.452 307.447 L 322.452 314.44 L 315.459 314.44 Z M 329.578 293.311 L 336.571 293.311 L 336.571 300.304 L 329.578 300.304 Z M 322.598 300.315 L 329.591 300.315 L 329.591 307.308 L 322.598 307.308 Z M 336.684 286.296 L 343.677 286.296 L 343.677 293.289 L 336.684 293.289 Z M 343.962 279.809 L 350.955 279.809 L 350.955 286.802 L 343.962 286.802 Z M 358.081 265.672 L 365.074 265.672 L 365.074 272.665 L 358.081 272.665 Z M 351.101 272.676 L 358.094 272.676 L 358.094 279.669 L 351.101 279.669 Z M 365.22 258.54 L 372.213 258.54 L 372.213 265.533 L 365.22 265.533 Z M 278.751 342.917 L 285.744 342.917 L 285.744 349.91 L 278.751 349.91 Z M 286.353 336.01 L 293.346 336.01 L 293.346 343.003 L 286.353 343.003 Z M 300.472 321.874 L 307.465 321.874 L 307.465 328.867 L 300.472 328.867 Z M 293.492 328.878 L 300.485 328.878 L 300.485 335.871 L 293.492 335.871 Z M 307.611 314.742 L 314.604 314.742 L 314.604 321.735 L 307.611 321.735 Z M 344.246 307.447 L 351.239 307.447 L 351.239 314.44 L 344.246 314.44 Z M 358.365 293.311 L 365.358 293.311 L 365.358 300.304 L 358.365 300.304 Z M 351.384 300.315 L 358.377 300.315 L 358.377 307.308 L 351.384 307.308 Z M 365.471 286.296 L 372.464 286.296 L 372.464 293.289 L 365.471 293.289 Z M 372.748 279.809 L 379.741 279.809 L 379.741 286.802 L 372.748 286.802 Z M 393.119 314.741 L 400.112 314.741 L 400.112 321.734 L 393.119 321.734 Z M 379 328.877 L 385.993 328.877 L 385.993 335.87 L 379 335.87 Z M 385.98 321.874 L 392.973 321.874 L 392.973 328.867 L 385.98 328.867 Z M 371.862 336.01 L 378.855 336.01 L 378.855 343.003 L 371.862 343.003 Z M 364.259 342.917 L 371.252 342.917 L 371.252 349.91 L 364.259 349.91 Z M 450.728 258.54 L 457.721 258.54 L 457.721 265.533 L 450.728 265.533 Z M 436.609 272.676 L 443.602 272.676 L 443.602 279.669 L 436.609 279.669 Z M 443.589 265.672 L 450.582 265.672 L 450.582 272.665 L 443.589 272.665 Z M 429.47 279.808 L 436.463 279.808 L 436.463 286.801 L 429.47 286.801 Z M 422.192 286.296 L 429.185 286.296 L 429.185 293.289 L 422.192 293.289 Z M 408.106 300.315 L 415.099 300.315 L 415.099 307.308 L 408.106 307.308 Z M 415.087 293.311 L 422.08 293.311 L 422.08 300.304 L 415.087 300.304 Z M 400.967 307.447 L 407.96 307.447 L 407.96 314.44 L 400.967 314.44 Z M 365.511 314.742 L 372.504 314.742 L 372.504 321.735 L 365.511 321.735 Z M 351.393 328.878 L 358.386 328.878 L 358.386 335.871 L 351.393 335.871 Z M 358.372 321.874 L 365.365 321.874 L 365.365 328.867 L 358.372 328.867 Z M 344.254 336.01 L 351.247 336.01 L 351.247 343.003 L 344.254 343.003 Z M 336.651 342.917 L 343.644 342.917 L 343.644 349.91 L 336.651 349.91 Z M 423.12 258.54 L 430.113 258.54 L 430.113 265.533 L 423.12 265.533 Z M 409.001 272.676 L 415.994 272.676 L 415.994 279.669 L 409.001 279.669 Z M 415.982 265.672 L 422.975 265.672 L 422.975 272.665 L 415.982 272.665 Z M 401.862 279.809 L 408.855 279.809 L 408.855 286.802 L 401.862 286.802 Z M 394.585 286.296 L 401.578 286.296 L 401.578 293.289 L 394.585 293.289 Z M 380.498 300.315 L 387.491 300.315 L 387.491 307.308 L 380.498 307.308 Z M 387.479 293.311 L 394.472 293.311 L 394.472 300.304 L 387.479 300.304 Z M 373.359 307.447 L 380.352 307.447 L 380.352 314.44 L 373.359 314.44 Z M 336.397 314.742 L 343.39 314.742 L 343.39 321.735 L 336.397 321.735 Z M 322.279 328.878 L 329.272 328.878 L 329.272 335.871 L 322.279 335.871 Z M 329.259 321.874 L 336.252 321.874 L 336.252 328.867 L 329.259 328.867 Z M 315.14 336.01 L 322.133 336.01 L 322.133 343.003 L 315.14 343.003 Z M 307.537 342.917 L 314.53 342.917 L 314.53 349.91 L 307.537 349.91 Z M 394.007 258.54 L 401 258.54 L 401 265.533 L 394.007 265.533 Z M 379.887 272.676 L 386.88 272.676 L 386.88 279.669 L 379.887 279.669 Z M 386.868 265.672 L 393.861 265.672 L 393.861 272.665 L 386.868 272.665 Z M 431.244 307.447 L 438.237 307.447 L 438.237 314.44 L 431.244 314.44 Z M 445.363 293.311 L 452.356 293.311 L 452.356 300.304 L 445.363 300.304 Z M 438.383 300.315 L 445.376 300.315 L 445.376 307.308 L 438.383 307.308 Z M 452.469 286.296 L 459.462 286.296 L 459.462 293.289 L 452.469 293.289 Z M 459.747 279.808 L 466.74 279.808 L 466.74 286.801 L 459.747 286.801 Z M 466.886 272.676 L 473.879 272.676 L 473.879 279.669 L 466.886 279.669 Z M 394.536 342.917 L 401.529 342.917 L 401.529 349.91 L 394.536 349.91 Z M 402.138 336.01 L 409.131 336.01 L 409.131 343.003 L 402.138 343.003 Z M 416.257 321.874 L 423.25 321.874 L 423.25 328.867 L 416.257 328.867 Z M 409.277 328.877 L 416.27 328.877 L 416.27 335.87 L 409.277 335.87 Z M 423.396 314.741 L 430.389 314.741 L 430.389 321.734 L 423.396 321.734 Z M 462.171 308.44 L 469.164 308.44 L 469.164 315.433 L 462.171 315.433 Z M 469.31 301.308 L 476.303 301.308 L 476.303 308.301 L 469.31 308.301 Z M 425.463 343.91 L 432.456 343.91 L 432.456 350.903 L 425.463 350.903 Z M 433.066 337.003 L 440.059 337.003 L 440.059 343.996 L 433.066 343.996 Z M 447.184 322.867 L 454.177 322.867 L 454.177 329.86 L 447.184 329.86 Z M 440.205 329.871 L 447.198 329.871 L 447.198 336.864 L 440.205 336.864 Z M 454.323 315.734 L 461.316 315.734 L 461.316 322.727 L 454.323 322.727 Z M 459.38 343.91 L 466.373 343.91 L 466.373 350.903 L 459.38 350.903 Z M 466.983 337.003 L 473.976 337.003 L 473.976 343.996 L 466.983 343.996 Z" style="" transform="matrix(1, 0, 0, 1, -5.684341886080802e-14, 0)"/></svg>