<svg xmlns="http://www.w3.org/2000/svg" viewBox="0 0 500 500" fill="currentColor"><path d="M469.499 48.514H27.781c-8.128 0-14.724 6.596-14.724 14.725v323.926c0 8.127 6.596 14.724 14.724 14.724h441.718c8.127 0 14.724-6.597 14.724-14.724V63.239c0-8.129-6.597-14.725-14.724-14.725m-14.724 29.447v244.124l-92.761-92.464c-5.564-5.95-15.017-5.95-20.613 0l-78.038 77.741-107.484-107.191c-5.565-5.946-15.019-5.946-20.613 0l-92.763 92.468V77.961zM42.503 372.441v-37.987l103.07-103.069 107.483 107.192c5.596 5.949 15.049 5.949 20.617 0l78.034-77.742 103.068 103.069v8.537zm235.583-147.238c45.352 0 73.681-49.09 51.006-88.345-22.677-39.254-79.332-39.254-102.009 0a59.1 59.1 0 0 0-7.891 29.448c0 32.541 26.385 58.897 58.894 58.897m0-88.345c22.677 0 36.842 24.531 25.504 44.172-11.339 19.643-39.665 19.643-51.003 0a29.3 29.3 0 0 1-3.947-14.724c0-16.256 13.193-29.448 29.446-29.448"/></svg>