<svg xmlns="http://www.w3.org/2000/svg" viewBox="0 0 500 500" fill="currentColor"><path d="M488.6 79.418c1.42 1.418 2.002 2.066 1.723 4.107v266.82c.28 2.04-.304 2.687-1.722 4.106-1.436 1.437-2.254 2.067-4.412 1.812H120.343c-2.158.255-2.975-.375-4.41-1.812-1.419-1.419-2-2.066-1.723-4.106v-8.585l9.357-11.075q1.45.917 2.909 1.798v11.944h24.781c29.231 10.734 60.244 10.816 90.016 0h236.782v-15.88l-90.884-90.885-68.44 68.184c-1.212 1.712-2.3 1.942-4.326 1.942-2.028 0-2.981-.083-4.21-1.8l-8.17-8.15a144.1 149.302 0 0 0 6.895-10.067l1.318 1.313 4.154 4.144 68.437-68.178c1.228-1.716 2.318-1.942 4.345-1.942s2.965.077 4.175 1.788l76.556 76.317 10.15 10.119V89.44h-218.58a145.422 150.671 0 0 0-28.706-11.835h253.42c2.158-.255 2.976.375 4.412 1.812M114.21 83.525c-.278-2.041.304-2.69 1.721-4.108 1.437-1.436 2.254-2.066 4.412-1.811h40.378a142.778 147.932 0 0 0-28.268 11.835h-5.977v3.5a144.1 149.302 0 0 0-12.266 8.504Zm98.825 117.266c1.225-1.715 2.315-1.938 4.343-1.938 2.025 0 2.966.076 4.176 1.784l50.74 50.604a93.863 97.252 0 0 1-2.905 5.153 88.575 91.773 0 0 1-3.213 5.691l-44.65-44.531-4.161-4.152-71.3 71.3a77.47 80.267 0 0 1-9.119-8.063Zm113.489-74.666c15.044 0 28.81 6.27 36.87 21.23 8.92 14.367 7.472 29.196.004 42.133-3.713 6.43-8.453 11.359-14.933 15.252a40.983 42.462 0 0 1-10.208 4.398 42.305 43.832 0 0 1-5.688 1.178 33 33 0 0 1-1.817.18 141.456 146.562 0 0 0-.808-11.846c8.527-1.197 17.488-6.721 22.73-14.911 5.088-9.89 4.786-22.349.002-30.637-4.767-8.258-15.194-14.655-26.154-15.148l-2.267.462s-6.024.463-9.438 1.906a29.084 30.134 0 0 0-2.607 1.274 133.524 138.344 0 0 0-6.44-10.629c6.257-3.324 13.35-4.842 20.754-4.842m-204.33 130.184c-3.256-5.705-5.943-11.592-7.984-17.613v-53.631c1.99-5.657 4.655-11.31 8.046-16.922a88.575 91.773 0 0 1 4.22-7.312v102.656a96.507 99.991 0 0 1-4.282-7.178"/><path d="M203.317 79.203v-.323l-7.504.094c-48.712.62-90.2 28.49-111.45 66.582s-23.853 89.252-.07 133.303c4.287 7.64 6.874 11.276 10.87 16.499L9.609 396.88l27.643 25.57 85.087-100.708c37.796 26.678 82.27 30.793 121.659 14.329 39.388-16.463 71.846-55.121 79.277-105.017 4.99-39.567-7.267-78.631-30.293-106.077-23.025-27.448-58.658-45.465-97.177-45.852zm-7.51 227.99c-36.067 0-63.479-18.999-79.338-47.46s-18.577-62.882.012-94.922c16.32-30.357 45.799-47.458 79.327-47.458 36.071 0 63.482 19 79.343 47.46 15.86 28.46 18.585 62.88.01 94.92-16.346 30.347-45.812 47.46-79.353 47.46"/></svg>