<svg xmlns="http://www.w3.org/2000/svg" viewBox="8.793 39.427 509.588 411.168" width="509.588" height="411.168" fill="currentColor"><path d="m83.58 39.427 345.421.004c3.814.304 8.712 2.352 11.462 4.825 2.471 2.749 4.27 7.059 4.75 10.754l73.168 321.669-.046.582c-.307 3.813-2.354 8.706-4.827 11.455-2.749 2.474-7.851 4.525-11.663 4.832l-345.426-.004c-3.814-.307-8.707-2.356-11.456-4.828-2.472-2.749-4.272-7.063-4.752-10.758L67.044 56.289l.046-.582c.307-3.812 2.356-8.704 4.826-11.453 2.751-2.473 7.85-4.523 11.664-4.827m-.617 15.869-.228.189 73.182 321.733-.176.173-.038.034c.082.047.183.125.306.247.122.123.2.224.246.306l.036-.039 345.554-.011c.43.438-.056.551.616-.254l.229-.191-73.181-321.729.175-.174.063-.056a1.6 1.6 0 0 1-.325-.22 1.7 1.7 0 0 1-.222-.327l-.049.057-345.571.012c-.422-.443.057-.557-.617.25M218.6 89.776c7.557-1.1 16.619.234 23.673 3.119 7.395 3.244 15.908 10.489 20.363 15.674 2.206 2.971 3.346 6.33 4.006 8.504.656 2.159.332 2.839 1.159 2.737 1.943 2.411 10.157-1.043 17.44.885 6.339 2.372 13.334 8.037 16.742 11.155 1.756 2.44 1.987 4.355 1.97 5.153q.038-.18.114-.444c2.188 1.241 10.993-6.273 18.883-8.334 6.671-1.546 14.089-2.725 21.626-1.433 7.804 1.599 18.743 6.807 24.341 11.632 4.774 4.545 7.392 10.061 9.097 15.045 1.821 5.492 2.839 12.937 2.337 18.842-.638 5.749-2.457 10.889-5.456 16.534-4.288 7.54-17.307 16.586-16.159 19.796-.552.344-.203-.11 1.164.858 1.456 1.032 3.341 1.887 5.329 2.791 3.046 1.862 10.288.548 16.581 2.719 5.179 2.198 10.272 5.829 14.067 10.045 3.898 4.521 7.733 11.517 9.432 17.296 1.503 5.755 1.38 12.767.851 17.302-.539 2.756-1.596 4.968-2.226 6.207-.627 1.23-.969 1.17-.567 1.677-.119 3.35 6.291 9.494 8.86 16.487 2.02 6.276 3.133 13.913 3.04 19.814-.145 5.24-1.096 10.333-3.243 15.226-2.456 5.207-7.484 11.631-11.257 15.19-3.348 3.044-6.668 5.043-10.728 6.608-4.642 1.706-11.843 3.134-17.186 3.108-4.921-.12-9.938-1.182-14.578-3.249-5.54-2.943-9.312-8.506-13.131-9.713-3.554-1.906-10.376-.926-15.892-2.728-2.646-1.265-4.628-2.97-5.746-4.026-1.116-1.054-1.147-1.485-1.892-1.335-3.289-1.173-11.859 2.501-18.241 2.187-4.9-.568-8.692-2.021-12.448-4.107-4.97-3.266-7.601-9.126-10.891-9.352-3.061-1.837-9.926 2.549-17.781 1.493-7.191-1.764-16.705-7.38-21.606-12.146-2.511-2.925-3.901-6.518-4.672-8.906-.77-2.381-.57-3.356-1.529-3.373-2.07-2.542-10.224.708-17.641-1.645-6.43-2.753-13.669-8.638-17.748-13.762-3.753-4.993-6.03-10.834-7.245-16.756-1.275-6.768-.95-15.752-.052-22.574 1.314-7.446 6.726-13.523 5.041-15.739.457-.519-.162-.231-1.978-1.266-1.834-1.045-4.698-2.7-6.868-4.998-2.963-3.694-5.689-8.602-7.21-13.638-1.499-5.324-2.181-11.246-1.57-18.586 1.056-9.994 8.449-25.707 8.355-33.819.824-5.073-3.491-9.421-4.189-16.694.152-6.204 2.507-13.585 4.673-18.18 1.869-3.892 4.036-7.142 8.048-10.5 4.874-3.813 14.733-9.352 22.538-10.781m-11.33 24.901-.369.298-.07.017c-1.408.326-.873.263-2.523 3.782-1.79 3.677-3.299 7.102-2.946 10.193l.025.508.062 1.277-.318.656c.282.25.662.796 1.079 1.77a44.5 44.5 0 0 1 3.311 12.12l.048.385-.025.394c-.726 11.628-8.141 28.159-8.399 35.097-.636 5.389-.3 8.218.902 12.098.65 2.9 1.677 4.719 3.648 7.037.559.244 1.243.567 2.008.974 2.861 1.755 7.475 6.136 9.869 10.522l.266.525.441.87.125 1.485c.279 9.137-4.969 17.822-4.713 20.959l.011.134-.054.396c-.828 6.068-1.285 12.216-.187 16.705.857 4.629 1.339 6.744 3.61 9.093 2.704 3.697 6.375 7.032 10.339 8.326l.347.127.784.289.744.606c.308 1.698 8.545-1.557 17.831 1.657l.402.167.802.334 1.021.93c3.789 3.65 6.712 8.988 7.777 12.101.217.749.383 1.418.508 1.98 3.145 3.317 8.036 6.359 12.389 7.022l.407.077.966.181.916.591c.391-.252-.098-.397 3.074-1.145 3.146-.743 7.834-1.599 12.792-1.069l.378.052.778.107 1.069.514c8.04 4.362 11.1 10.44 11.747 9.79l-.006-.002.729.165.931.532c3.048 1.739 3.04 2.052 4.844 1.825l.568-.071.419.198c1.779.844 10.947-2.756 19.127-2.073l.268.032.537.062.798.275q.449.164.894.347l9.181 5.827c.292.317.566.629.727.833l-.589-.745.327.207c.457 1.004 6.734-.241 14.801 2.202l.385.117.354.202c7.4 4.221 10.875 9.688 12.193 9.372l.231-.055.834.442c2.623 1.39 4.162 1.713 7.308 1.642 3.316.207 7.382-.632 10.627-1.932 2.618-.886 3.027-1.021 4.697-2.804 2.859-2.575 5.965-6.224 7.221-9.455 1.403-2.529 1.673-4.326 1.694-8.24.185-4.373-.466-9.074-2.119-13.794-.447-3.301-7.276-11.118-9.512-19.194l-.077-.329-.131-.565.003-.93c.122-4.157 1.389-8.748 2.43-10.954.154-.271.324-.553.498-.828.447-3.648.795-6.772-.274-9.343-.911-3.827-2.91-7.662-5.621-10.506-2.218-2.773-4.04-4.163-7.32-5.324l-.864-.306-.123-.202c-.803-1.327-7.757.144-15.698-2.267-2.003-.911-6.057-2.802-8.907-4.727-3.275-2.669-7.381-8.704-8.629-13.49l-.124-.554-.21-.935.228-1.437c2.127-9.786 16.093-22.521 18.049-27.173 2.506-4.565 3.466-6.554 3.547-9.865.543-3.677.006-7.607-1.407-11.416-1.609-4.767-1.412-6.305-3.429-6.983l-.153-.051-.412-.407c-3.415-3.365-10.126-6.538-15.724-7.42-3.852-1.266-7.821-.219-14.235 1.272-4.424.527-16.464 8.243-24.928 8.635l-.681-.003-1.163-.005-1.725-.858c-4.006-2.15-8.164-6.385-9.586-8.934-.217-.523-.191-.42-.208-.461-2.972-2.755-5.895-5.72-8.998-6.302l-.336-.094-.779-.216-.798-.537c-.638-1.571-9.358 1.66-18.463-1.338l-.44-.176-.824-.331-1.061-.955c-3.701-3.536-6.617-8.773-7.63-11.85a38 38 0 0 1-.525-2.133c-3.525-4.24-8.555-8.963-13.39-10.629-4.906-2.264-9.19-3.142-13.779-2.065-4.502.269-10.596 4.036-14.444 7.145" style="stroke-width:2"/><path d="M25.329 96.474h24.845l3.552 15.62h-6.265l-22.485-.012-.05-.059a1.6 1.6 0 0 1-.226.335l-.215.178 73.181 321.728-.176.173-.065.057c.088.042.199.113.336.228.672.805.185.692.616.254l345.553.011.057.065c.042-.087.113-.198.227-.334l.225-.188-5.599-24.618h15.874l5.418 23.815-.047.582c-.307 3.813-2.356 8.707-4.828 11.455-2.75 2.473-7.848 4.525-11.663 4.831l-345.424-.004c-3.814-.307-8.707-2.354-11.456-4.827-2.473-2.749-4.274-7.064-4.754-10.759L8.793 113.337l.046-.582c.306-3.812 2.354-8.703 4.827-11.452 2.75-2.474 7.849-4.525 11.663-4.829" style="stroke-width:2"/></svg>