<?xml version="1.0" encoding="utf-8"?><svg viewBox="14.951 9.638 458.7 458.7" xmlns="http://www.w3.org/2000/svg" fill="currentColor"><path stroke-width="0" d="M 142.633 82.981 C 151.082 81.614 160.667 83.073 168.715 86.459 C 177.096 89.985 186.536 98.156 191.754 104.281 C 195.971 109.232 194.995 116.566 199.578 119.496 C 204.746 122.799 215.635 118.814 222.617 121.235 C 229.532 123.631 237.163 130.045 241.309 133.841 C 244.219 136.504 243.627 140.606 246.96 141.231 C 252.146 142.203 264.405 132.803 273.042 130.798 C 281.207 128.902 289.149 127.456 297.385 129.059 C 306.369 130.808 318.527 136.571 324.771 142.1 C 329.919 146.658 332.298 152.199 334.335 158.184 C 336.468 164.455 337.585 172.425 336.943 179.049 C 336.323 185.443 334.412 190.677 330.857 197.307 C 326.353 205.707 309.763 218.559 309.992 225.127 C 310.156 229.871 316.778 232.875 321.728 235.126 C 327.347 237.679 336.472 236.088 342.594 238.603 C 348.421 240.997 353.61 244.697 357.808 249.471 C 362.272 254.545 366.391 262.048 368.241 268.597 C 369.998 274.817 369.75 282.339 369.111 287.724 C 368.583 292.165 365.092 294.555 365.633 299.026 C 366.356 305.01 374.473 313.263 376.935 320.761 C 379.33 328.056 380.562 336.529 380.413 343.365 C 380.28 349.42 379.375 354.54 376.935 359.884 C 374.266 365.73 368.714 372.748 364.329 376.837 C 360.688 380.232 357.582 382.085 353.027 383.792 C 347.72 385.781 339.891 387.363 333.9 387.27 C 328.354 387.184 323.359 386.148 318.251 383.792 C 312.613 381.193 307.834 374.228 301.732 371.621 C 295.657 369.025 287.059 370.208 281.736 368.143 C 277.346 366.441 275.916 362.198 271.303 361.188 C 265.362 359.887 254.31 364.405 247.83 363.796 C 242.611 363.306 239.121 361.881 234.789 359.449 C 229.843 356.673 225.958 349.113 220.009 347.278 C 213.644 345.314 204.866 350.717 197.405 349.017 C 189.35 347.181 179.001 341.014 173.496 335.541 C 168.817 330.889 169.646 322.642 164.802 319.457 C 159.476 315.955 148.787 319.726 141.763 316.849 C 134.55 313.895 126.806 307.529 122.202 301.634 C 117.988 296.239 115.752 290.272 114.377 283.377 C 112.844 275.689 113.283 265.517 114.377 257.295 C 115.417 249.478 122.063 240.626 120.463 235.126 C 119.087 230.397 111.602 229.19 108.291 225.127 C 104.9 220.967 102.083 215.957 100.467 210.348 C 98.699 204.21 97.957 197.977 98.728 189.482 C 99.765 178.064 108.988 158.256 109.161 146.882 C 109.291 138.328 103.916 132.879 103.944 126.016 C 103.972 119.262 106.604 111.392 109.161 106.02 C 111.327 101.469 113.144 98.527 117.42 95.153 C 123.119 90.655 133.971 84.383 142.633 82.981 Z M 29.27 9.638 L 459.332 9.638 C 463.035 9.791 467.058 11.433 469.457 13.832 C 471.856 16.231 473.498 20.254 473.651 23.957 L 473.651 454.019 C 473.498 457.722 471.856 461.745 469.457 464.144 C 467.058 466.543 463.035 468.185 459.332 468.338 L 29.27 468.338 C 25.567 468.185 21.544 466.543 19.145 464.144 C 16.746 461.745 15.104 457.722 14.951 454.019 L 14.951 23.957 C 15.104 20.254 16.746 16.231 19.145 13.832 C 21.544 11.433 25.567 9.791 29.27 9.638 Z M 24.095 18.782 C 22.578 20.298 21.798 21.685 21.951 23.957 L 21.951 454.019 C 21.798 456.291 22.578 457.678 24.095 459.194 C 25.611 460.711 26.998 461.491 29.27 461.338 L 459.332 461.338 C 461.604 461.491 462.991 460.711 464.507 459.194 C 466.024 457.678 466.804 456.291 466.651 454.019 L 466.651 23.957 C 466.804 21.685 466.024 20.298 464.507 18.782 C 462.991 17.265 461.604 16.485 459.332 16.638 L 29.27 16.638 C 26.998 16.485 25.611 17.265 24.095 18.782 Z" style="stroke-width:2px"/></svg>